<svg width="20" height="20" viewBox="0 0 20 20" fill="none" xmlns="http://www.w3.org/2000/svg">
<path d="M19.7667 7.825C19.925 8.53333 20 9.26667 20 10C20 15.5167 15.5167 20 10 20C4.48333 20 0 15.5167 0 10C0 4.48333 4.48333 0 10 0C10.7333 0 11.4667 0.0833333 12.175 0.233333C12.4 0.283333 12.5417 0.508333 12.4917 0.733333C12.4417 0.958333 12.2167 1.1 11.9917 1.05C11.3417 0.908333 10.6667 0.833333 10 0.833333C4.94167 0.833333 0.833333 4.94167 0.833333 10C0.833333 15.0583 4.94167 19.1667 10 19.1667C15.0583 19.1667 19.1667 15.0583 19.1667 10C19.1667 9.325 19.0917 8.65833 18.95 8.00833C18.9 7.78333 19.0417 7.55833 19.2667 7.50833C19.4917 7.45833 19.7167 7.6 19.7667 7.825ZM11.1667 4.28333C11.3917 4.325 11.6083 4.18333 11.6583 3.95833C11.7 3.73333 11.5583 3.51667 11.3333 3.46667C10.9 3.375 10.45 3.33333 10 3.33333C6.325 3.33333 3.33333 6.325 3.33333 10C3.33333 13.675 6.325 16.6667 10 16.6667C13.675 16.6667 16.6667 13.675 16.6667 10C16.6667 9.55 16.625 9.1 16.5333 8.66667C16.4917 8.44167 16.2667 8.3 16.0417 8.34167C15.8167 8.39167 15.6667 8.60833 15.7167 8.83333C15.7917 9.21667 15.8333 9.60833 15.8333 10C15.8333 13.2167 13.2167 15.8333 10 15.8333C6.78333 15.8333 4.16667 13.2167 4.16667 10C4.16667 6.78333 6.78333 4.16667 10 4.16667C10.3917 4.16667 10.7833 4.20833 11.1667 4.28333ZM9.64167 7.525C9.86667 7.49167 10.025 7.28333 9.99167 7.05C9.95833 6.81667 9.75 6.65833 9.51667 6.7C7.88333 6.93333 6.65833 8.35 6.65833 10C6.65833 11.8417 8.15 13.3333 9.99167 13.3333C11.6417 13.3333 13.0583 12.1083 13.2917 10.475C13.325 10.25 13.1667 10.0333 12.9417 10C12.7167 9.96667 12.5 10.125 12.4667 10.35C12.2917 11.575 11.225 12.4917 9.99167 12.4917C8.61667 12.4917 7.49167 11.3667 7.49167 9.99167C7.49167 8.75833 8.40833 7.69167 9.63333 7.51667L9.64167 7.525ZM13.3333 6.075V3.60833C13.3333 3.05 13.55 2.525 13.9417 2.13333L15.9583 0.125C16.075 0.00833334 16.2583 -0.0333333 16.4083 0.0333333C16.5667 0.1 16.6667 0.25 16.6667 0.416667V3.33333H19.5833C19.75 3.33333 19.9 3.43333 19.9667 3.59167C20.0333 3.75 19.9917 3.925 19.875 4.04167L17.8667 6.05C17.475 6.44167 16.95 6.65833 16.3917 6.65833H13.925L10.3 10.2833C10.2167 10.3667 10.1083 10.4083 10.0083 10.4083C9.90833 10.4083 9.79167 10.3667 9.71667 10.2833C9.55 10.1167 9.55 9.85833 9.71667 9.69167L13.3417 6.06667L13.3333 6.075ZM14.1667 5.83333H16.3917C16.725 5.83333 17.0417 5.7 17.275 5.46667L18.575 4.16667H16.25C16.0167 4.16667 15.8333 3.98333 15.8333 3.75V1.425L14.5333 2.725C14.3 2.95833 14.1667 3.275 14.1667 3.60833V5.83333Z" fill="url(#paint0_linear_1144_3260)"/>
<defs>
<linearGradient id="paint0_linear_1144_3260" x1="15.8446" y1="7.15501e-07" x2="4.1554" y2="20" gradientUnits="userSpaceOnUse">
<stop stop-color="#98E38B"/>
<stop offset="1" stop-color="#4F9A42"/>
</linearGradient>
</defs>
</svg>
