<svg width="16" height="16" viewBox="0 0 16 16" fill="none" xmlns="http://www.w3.org/2000/svg">
<path d="M9.53657 3.04299V2.11199C9.53657 1.08541 10.3699 0.25 11.394 0.25C11.7339 0.25 12.0614 0.34372 12.353 0.523092C12.5988 0.419441 13.0749 0.25 13.5609 0.25C14.4147 0.25 15.1087 0.945764 15.1087 1.80166C15.1087 2.65755 14.4147 3.35332 13.5609 3.35332C13.39 3.35332 13.2513 3.21429 13.2513 3.04299C13.2513 2.87168 13.39 2.73266 13.5609 2.73266C14.0729 2.73266 14.4896 2.31495 14.4896 1.80166C14.4896 1.28837 14.0729 0.870664 13.5609 0.870664C13.0272 0.870664 12.4688 1.1512 12.4638 1.15431C12.3567 1.2083 12.2298 1.19713 12.1363 1.12514C11.9171 0.958177 11.6602 0.870664 11.3946 0.870664C10.7117 0.870664 10.1563 1.4274 10.1563 2.11199V3.04299C10.1563 3.21429 10.0176 3.35332 9.84676 3.35332C9.67588 3.35332 9.53657 3.21429 9.53657 3.04299ZM3.65486 3.36511C3.82574 3.36511 3.96442 3.22608 3.96442 3.05478V2.26716C3.96442 1.49753 4.58912 0.870664 5.35746 0.870664C5.6955 0.870664 6.02488 0.999141 6.28429 1.23313C6.39883 1.33678 6.57219 1.33864 6.68982 1.23996C6.9771 0.998521 7.31948 0.870664 7.67919 0.870664C7.97389 0.870664 8.24631 0.958177 8.48096 1.10155C8.54906 0.90418 8.63512 0.716739 8.73975 0.53985C8.42462 0.360478 8.06614 0.25 7.67919 0.25C7.25571 0.25 6.85141 0.374133 6.49604 0.611226C6.15985 0.376615 5.76361 0.25 5.35746 0.25C4.24798 0.25 3.34529 1.15493 3.34529 2.26716V3.05478C3.34529 3.22608 3.48398 3.36511 3.65486 3.36511ZM10.6758 13.2709C10.8776 13.675 10.8566 14.1467 10.6194 14.5315C10.3823 14.9163 9.9712 15.1459 9.51986 15.1459H1.54363C1.09229 15.1459 0.681186 14.9163 0.44406 14.5315C0.206934 14.1467 0.185883 13.675 0.387719 13.2709L1.10715 11.8285C1.77023 10.499 2.12066 9.01191 2.12066 7.52604V5.52564C2.12066 5.01235 2.53733 4.59465 3.04935 4.59465H8.01538C8.52801 4.59465 8.94407 5.01235 8.94407 5.52564V7.52604C8.94407 9.01191 9.29387 10.4996 9.95696 11.8285L10.6758 13.2709ZM2.73917 7.52604C2.73917 7.99899 2.69521 8.47069 2.62958 8.93929H8.43391C8.36828 8.47069 8.32432 7.99899 8.32432 7.52604V5.52564C8.32432 5.35496 8.18502 5.21531 8.01476 5.21531H3.04873C2.87785 5.21531 2.73917 5.35496 2.73917 5.52564V7.52604ZM10.1216 13.5483L9.40222 12.1059C9.00165 11.3022 8.7218 10.4413 8.54287 9.55996H2.52061C2.34169 10.4413 2.06184 11.3022 1.66065 12.1059L0.941219 13.5483C0.835967 13.7594 0.847112 14.0045 0.970937 14.2056C1.09476 14.4055 1.30836 14.5259 1.54363 14.5259H9.51986C9.75512 14.5259 9.96934 14.4061 10.0932 14.2056C10.2164 14.0052 10.2269 13.7594 10.1216 13.5483ZM15.0097 13.2709L14.2902 11.8285C13.6278 10.4996 13.2773 9.01191 13.2773 7.52604V5.52564C13.2773 5.01235 12.8607 4.59465 12.3487 4.59465H10.4653C10.2944 4.59465 10.1557 4.73368 10.1557 4.90498C10.1557 5.07628 10.2944 5.21531 10.4653 5.21531H12.3487C12.5189 5.21531 12.6582 5.35496 12.6582 5.52564V7.52604C12.6582 7.99899 12.7022 8.47069 12.7678 8.93929H10.4653C10.2944 8.93929 10.1557 9.07832 10.1557 9.24963C10.1557 9.42093 10.2944 9.55996 10.4653 9.55996H12.8768C13.0557 10.4413 13.3355 11.3022 13.7361 12.1059L14.4555 13.5483C14.5608 13.7594 14.5497 14.0045 14.4264 14.2056C14.3026 14.4055 14.0884 14.5259 13.8531 14.5259H12.322C12.1511 14.5259 12.0125 14.6649 12.0125 14.8362C12.0125 15.0075 12.1511 15.1466 12.322 15.1466H13.8531C14.3045 15.1466 14.7162 14.9169 14.9527 14.5321C15.1892 14.1473 15.2115 13.675 15.0097 13.2709Z" fill="#5DA251" stroke="#4F9A42" stroke-width="0.5"/>
</svg>
