<svg width="21" height="21" viewBox="0 0 21 21" fill="none" xmlns="http://www.w3.org/2000/svg">
<path d="M10.5 21C9.57887 21 8.74037 20.4646 7.89049 20.2374C7.01152 20.0026 6.01873 20.0401 5.24895 19.5949C4.46862 19.143 4.00701 18.2602 3.37255 17.6266C2.73809 16.993 1.8549 16.5305 1.40424 15.7506C0.959068 14.9813 0.996587 13.9885 0.761774 13.1095C0.535392 12.2596 0 11.4211 0 10.5C0 9.57887 0.535392 8.74037 0.762617 7.89049C0.99743 7.01152 0.959911 6.01873 1.40509 5.24895C1.85701 4.46862 2.74019 4.00701 3.37255 3.37255C4.0049 2.73809 4.46862 1.8549 5.2481 1.40424C6.01789 0.959068 7.01068 0.996587 7.88965 0.761774C8.74037 0.535392 9.57887 0 10.5 0C11.4211 0 12.2596 0.535392 13.1108 0.762617C13.9897 0.99743 14.9825 0.959911 15.7519 1.40509C16.5314 1.85701 16.993 2.74019 17.6266 3.37255C18.2602 4.0049 19.1443 4.46862 19.5949 5.2481C20.0401 6.01789 20.0026 7.01068 20.2374 7.88965C20.4646 8.73953 21 9.57803 21 10.4992C21 11.4203 20.4646 12.2588 20.2374 13.1087C20.0026 13.9876 20.0401 14.9804 19.5949 15.7498C19.143 16.5305 18.2602 16.9922 17.6266 17.6258C16.993 18.2594 16.5305 19.1434 15.7506 19.5941C14.9813 20.0392 13.9885 20.0017 13.1095 20.2365C12.2596 20.4646 11.4211 21 10.5 21Z" fill="url(#paint0_linear_1144_2758)"/>
<path d="M11.545 10.7079L11.408 10.576V8.8054C11.4106 8.68615 11.3893 8.56759 11.3455 8.45666C11.3016 8.34573 11.2361 8.24468 11.1526 8.15943C11.0692 8.07418 10.9696 8.00644 10.8597 7.9602C10.7497 7.91396 10.6316 7.89014 10.5124 7.89014C10.3931 7.89014 10.275 7.91396 10.1651 7.9602C10.0551 8.00644 9.9555 8.07418 9.87208 8.15943C9.78866 8.24468 9.7231 8.34573 9.67925 8.45666C9.63541 8.56759 9.61415 8.68615 9.61674 8.8054V10.576L9.47973 10.7079C9.33459 10.8461 9.2191 11.0123 9.14032 11.1966C9.06153 11.3808 9.0211 11.5792 9.02149 11.7796C9.02807 12.1711 9.18821 12.5443 9.46741 12.8189C9.7466 13.0934 10.1225 13.2473 10.514 13.2473C10.9056 13.2473 11.2815 13.0934 11.5607 12.8189C11.8399 12.5443 12 12.1711 12.0066 11.7796C12.0066 11.5789 11.9656 11.3804 11.8862 11.1962C11.8069 11.0119 11.6908 10.8458 11.545 10.7079ZM10.5117 12.6859C10.3146 12.6857 10.1231 12.6206 9.96678 12.5005C9.81048 12.3804 9.69815 12.2121 9.6472 12.0217C9.59625 11.8313 9.60952 11.6294 9.68495 11.4473C9.76039 11.2652 9.89377 11.113 10.0644 11.0144V8.79402H10.9607V11.0148C11.1314 11.1135 11.2647 11.2657 11.3401 11.4478C11.4154 11.63 11.4286 11.8319 11.3775 12.0223C11.3263 12.2127 11.2138 12.3809 11.0574 12.5008C10.9009 12.6207 10.7093 12.6856 10.5122 12.6855L10.5117 12.6859Z" fill="#0032DF"/>
<path d="M10.4996 3.34229C9.08393 3.34229 7.70004 3.76208 6.52294 4.54859C5.34585 5.3351 4.42841 6.453 3.88666 7.76092C3.3449 9.06884 3.20315 10.508 3.47934 11.8965C3.75552 13.285 4.43724 14.5604 5.43827 15.5614C6.43931 16.5625 7.71471 17.2442 9.10319 17.5204C10.4917 17.7965 11.9309 17.6548 13.2388 17.113C14.5467 16.5713 15.6646 15.6539 16.4511 14.4768C17.2376 13.2997 17.6574 11.9158 17.6574 10.5001C17.6574 8.60172 16.9033 6.78111 15.5609 5.43876C14.2186 4.09641 12.398 3.34229 10.4996 3.34229ZM10.5123 14.1677C9.87883 14.1677 9.27134 13.9161 8.8234 13.4683C8.37547 13.0204 8.12376 12.413 8.12365 11.7796C8.12224 11.1994 8.33478 10.6391 8.72059 10.2058V8.80497C8.72059 8.32979 8.90935 7.87407 9.24536 7.53807C9.58136 7.20207 10.0371 7.0133 10.5123 7.0133C10.9874 7.0133 11.4431 7.20207 11.7792 7.53807C12.1152 7.87407 12.3039 8.32979 12.3039 8.80497V10.2058C12.6893 10.6393 12.9013 11.1996 12.8996 11.7796C12.8995 12.4128 12.648 13.02 12.2003 13.4678C11.7526 13.9157 11.1455 14.1674 10.5123 14.1677ZM13.6466 8.49553C13.499 8.49553 13.3546 8.45175 13.2318 8.36971C13.109 8.28767 13.0134 8.17107 12.9568 8.03465C12.9003 7.89823 12.8856 7.74811 12.9144 7.60328C12.9432 7.45846 13.0143 7.32543 13.1187 7.22101C13.2231 7.1166 13.3561 7.04549 13.501 7.01669C13.6458 6.98788 13.7959 7.00266 13.9323 7.05917C14.0687 7.11568 14.1853 7.21137 14.2674 7.33415C14.3494 7.45693 14.3932 7.60127 14.3932 7.74894C14.3932 7.94695 14.3146 8.13685 14.1745 8.27686C14.0345 8.41688 13.8446 8.49553 13.6466 8.49553Z" fill="#0032DF"/>
<defs>
<linearGradient id="paint0_linear_1144_2758" x1="10.5" y1="0" x2="10.5" y2="21" gradientUnits="userSpaceOnUse">
<stop stop-color="#AAC4FF"/>
<stop offset="1" stop-color="#0025D4"/>
</linearGradient>
</defs>
</svg>
