<svg width="21" height="21" viewBox="0 0 21 21" fill="none" xmlns="http://www.w3.org/2000/svg">
<path d="M10.5 21C9.57887 21 8.74037 20.4646 7.89049 20.2374C7.01152 20.0026 6.01873 20.0401 5.24895 19.5949C4.46862 19.143 4.00701 18.2602 3.37255 17.6266C2.73809 16.993 1.8549 16.5305 1.40424 15.7506C0.959068 14.9813 0.996587 13.9885 0.761774 13.1095C0.535392 12.2596 0 11.4211 0 10.5C0 9.57887 0.535392 8.74037 0.762617 7.89049C0.99743 7.01152 0.959911 6.01873 1.40509 5.24895C1.85701 4.46862 2.74019 4.00701 3.37255 3.37255C4.0049 2.73809 4.46862 1.8549 5.2481 1.40424C6.01789 0.959068 7.01068 0.996587 7.88965 0.761774C8.74037 0.535392 9.57887 0 10.5 0C11.4211 0 12.2596 0.535392 13.1108 0.762617C13.9897 0.99743 14.9825 0.959911 15.7519 1.40509C16.5314 1.85701 16.993 2.74019 17.6266 3.37255C18.2602 4.0049 19.1443 4.46862 19.5949 5.2481C20.0401 6.01789 20.0026 7.01068 20.2374 7.88965C20.4646 8.73953 21 9.57803 21 10.4992C21 11.4203 20.4646 12.2588 20.2374 13.1087C20.0026 13.9876 20.0401 14.9804 19.5949 15.7498C19.143 16.5305 18.2602 16.9922 17.6266 17.6258C16.993 18.2594 16.5305 19.1434 15.7506 19.5941C14.9813 20.0392 13.9885 20.0017 13.1095 20.2365C12.2596 20.4646 11.4211 21 10.5 21Z" fill="url(#paint0_linear_1144_2745)"/>
<path d="M10.4996 3.34229C9.08393 3.34229 7.70004 3.76208 6.52294 4.54859C5.34585 5.3351 4.42841 6.453 3.88666 7.76092C3.3449 9.06884 3.20315 10.508 3.47934 11.8965C3.75552 13.285 4.43724 14.5604 5.43827 15.5614C6.43931 16.5625 7.71471 17.2442 9.10319 17.5204C10.4917 17.7965 11.9309 17.6548 13.2388 17.113C14.5467 16.5713 15.6646 15.6539 16.4511 14.4768C17.2376 13.2997 17.6574 11.9158 17.6574 10.5001C17.6574 8.60172 16.9033 6.78111 15.5609 5.43876C14.2186 4.09641 12.398 3.34229 10.4996 3.34229ZM9.97602 8.27758C9.88255 8.1759 9.82071 8.04921 9.79806 7.91297C9.7754 7.77673 9.7929 7.63683 9.84843 7.51038C9.90395 7.38392 9.9951 7.27636 10.1107 7.20084C10.2264 7.12532 10.3615 7.08511 10.4996 7.08511C10.6377 7.08511 10.7728 7.12532 10.8885 7.20084C11.0041 7.27636 11.0953 7.38392 11.1508 7.51038C11.2063 7.63683 11.2238 7.77673 11.2012 7.91297C11.1785 8.04921 11.1167 8.1759 11.0232 8.27758C11.7449 8.41707 12.3893 8.81916 12.8317 9.40612C12.4237 9.6159 12.0902 9.94619 11.8764 10.3521C11.7188 10.1342 11.5117 9.95676 11.2722 9.8344C11.0327 9.71204 10.7675 9.64824 10.4986 9.64824C10.2296 9.64824 9.96445 9.71204 9.72492 9.8344C9.48539 9.95676 9.2783 10.1342 9.12066 10.3521C8.90721 9.94676 8.57431 9.6168 8.16707 9.40697C8.61045 8.82065 9.25456 8.41851 9.97602 8.27758ZM13.3439 13.9148H7.65529V13.3461H13.3439V13.9148ZM13.1871 12.7766H7.81169L7.08195 9.66581C8.10257 9.77542 8.79268 10.4381 8.79268 11.355H9.36179C9.36179 11.0532 9.48171 10.7636 9.69517 10.5502C9.90864 10.3367 10.1981 10.2168 10.5 10.2168C10.8019 10.2168 11.0914 10.3367 11.3049 10.5502C11.5183 10.7636 11.6383 11.0532 11.6383 11.355H12.2074C12.2074 10.4381 12.8975 9.77542 13.9185 9.66581L13.1871 12.7766Z" fill="#BF0086"/>
<defs>
<linearGradient id="paint0_linear_1144_2745" x1="10.5" y1="0" x2="10.5" y2="21" gradientUnits="userSpaceOnUse">
<stop stop-color="#FF94F3"/>
<stop offset="1" stop-color="#FF1556"/>
</linearGradient>
</defs>
</svg>
