<svg width="21" height="21" viewBox="0 0 21 21" fill="none" xmlns="http://www.w3.org/2000/svg">
<path d="M10.5 21C9.57887 21 8.74037 20.4646 7.89049 20.2374C7.01152 20.0026 6.01873 20.0401 5.24895 19.5949C4.46862 19.143 4.00701 18.2602 3.37255 17.6266C2.73809 16.993 1.8549 16.5305 1.40424 15.7506C0.959068 14.9813 0.996587 13.9885 0.761774 13.1095C0.535392 12.2596 0 11.4211 0 10.5C0 9.57887 0.535392 8.74037 0.762617 7.89049C0.99743 7.01152 0.959911 6.01873 1.40509 5.24895C1.85701 4.46862 2.74019 4.00701 3.37255 3.37255C4.0049 2.73809 4.46862 1.8549 5.2481 1.40424C6.01789 0.959068 7.01068 0.996587 7.88965 0.761774C8.74037 0.535392 9.57887 0 10.5 0C11.4211 0 12.2596 0.535392 13.1108 0.762617C13.9897 0.99743 14.9825 0.959911 15.7519 1.40509C16.5314 1.85701 16.993 2.74019 17.6266 3.37255C18.2602 4.0049 19.1443 4.46862 19.5949 5.2481C20.0401 6.01789 20.0026 7.01068 20.2374 7.88965C20.4646 8.73953 21 9.57803 21 10.4992C21 11.4203 20.4646 12.2588 20.2374 13.1087C20.0026 13.9876 20.0401 14.9804 19.5949 15.7498C19.143 16.5305 18.2602 16.9922 17.6266 17.6258C16.993 18.2594 16.5305 19.1434 15.7506 19.5941C14.9813 20.0392 13.9885 20.0017 13.1095 20.2365C12.2596 20.4646 11.4211 21 10.5 21Z" fill="url(#paint0_linear_1144_2703)"/>
<path d="M11.6983 11.1293H10.8509L11.1064 10.4054C11.1224 10.364 11.1281 10.3192 11.1229 10.2751C11.1178 10.2309 11.1019 10.1886 11.0768 10.152C11.0516 10.1153 11.0179 10.0853 10.9785 10.0646C10.9392 10.044 10.8954 10.0332 10.8509 10.0332H10.332C10.2749 10.0333 10.2193 10.0511 10.1729 10.0842C10.1264 10.1173 10.0914 10.164 10.0727 10.2179L9.49219 11.8995C9.48083 11.9372 9.47844 11.9771 9.48521 12.0159C9.49198 12.0547 9.50772 12.0914 9.53119 12.123C9.55465 12.1547 9.58518 12.1804 9.62035 12.1982C9.65552 12.216 9.69435 12.2253 9.73375 12.2254H10.5769L10.3134 13.0192C10.2388 13.2793 10.5862 13.4433 10.7396 13.2203L11.9052 11.5146C11.9301 11.4772 11.9444 11.4338 11.9466 11.3889C11.9487 11.344 11.9386 11.2994 11.9173 11.2599C11.8961 11.2203 11.8645 11.1872 11.8259 11.1642C11.7873 11.1412 11.7432 11.1292 11.6983 11.1293Z" fill="#FF9600"/>
<path d="M10.4996 3.34229C9.08393 3.34229 7.70004 3.76208 6.52294 4.54859C5.34585 5.3351 4.42841 6.453 3.88666 7.76092C3.3449 9.06884 3.20315 10.508 3.47934 11.8965C3.75552 13.285 4.43724 14.5604 5.43827 15.5614C6.43931 16.5625 7.71471 17.2442 9.10319 17.5204C10.4917 17.7965 11.9309 17.6548 13.2388 17.113C14.5467 16.5713 15.6646 15.6539 16.4511 14.4768C17.2376 13.2997 17.6574 11.9158 17.6574 10.5001C17.6574 8.60172 16.9033 6.78111 15.5609 5.43876C14.2186 4.09641 12.398 3.34229 10.4996 3.34229ZM13.9957 12.6412C13.9257 13.3516 13.2887 13.8726 12.2533 13.8726H8.85254C8.1384 13.8726 7.50141 13.3516 7.43143 12.6412C7.40294 12.3588 7.46319 12.0745 7.6038 11.8279C7.74441 11.5812 7.95839 11.3846 8.21597 11.2652C8.11109 11.1359 8.03732 10.9842 8.00037 10.8219C7.96341 10.6595 7.96426 10.4908 8.00284 10.3289C8.04142 10.1669 8.1167 10.0159 8.22287 9.88766C8.32905 9.7594 8.46328 9.65724 8.6152 9.58908C8.52408 9.41861 8.4983 9.22074 8.54269 9.03261C8.63332 8.6473 9.00304 8.39225 9.39847 8.39225H10.3019C10.4705 8.22362 10.6391 7.89691 10.6952 7.50232C10.7001 7.46427 10.7142 7.42798 10.7363 7.39662C10.7584 7.36525 10.7878 7.33976 10.822 7.32236C10.8562 7.30495 10.8941 7.29615 10.9325 7.29673C10.9709 7.29731 11.0085 7.30725 11.0422 7.32568C11.3794 7.51033 11.6678 8.00399 11.7694 8.39225H12.0274C12.4232 8.39225 12.7925 8.6473 12.8836 9.03261C12.9278 9.2208 12.9019 9.41866 12.8106 9.58908C12.9626 9.65719 13.0968 9.7593 13.203 9.88753C13.3091 10.0158 13.3844 10.1667 13.423 10.3286C13.4616 10.4906 13.4624 10.6592 13.4255 10.8215C13.3885 10.9839 13.3148 11.1355 13.2099 11.2648C13.4676 11.3841 13.6818 11.5808 13.8227 11.8275C13.9635 12.0742 14.024 12.3586 13.9957 12.6412Z" fill="#FF9600"/>
<defs>
<linearGradient id="paint0_linear_1144_2703" x1="10.5" y1="0" x2="10.5" y2="21" gradientUnits="userSpaceOnUse">
<stop stop-color="#F3FF7F"/>
<stop offset="1" stop-color="#FF9500"/>
</linearGradient>
</defs>
</svg>
