<svg width="36" height="36" viewBox="0 0 36 36" fill="none" xmlns="http://www.w3.org/2000/svg">
<g clip-path="url(#clip0_1144_2871)">
<path d="M18 36C16.4375 36 15.0614 34.7292 13.6204 34.3431C12.1283 33.9452 10.3045 34.3431 8.99892 33.5906C7.67386 32.824 7.11434 31.0359 6.03867 29.9613C4.96301 28.8867 3.17602 28.3261 2.4094 27C1.65036 25.6988 2.05482 23.8706 1.65687 22.3786C1.27084 20.9386 0 19.5625 0 18C0 16.4375 1.27084 15.0614 1.65687 13.6204C2.06024 12.1283 1.65361 10.3012 2.4094 9C3.17602 7.67494 4.9641 7.11542 6.03867 6.03976C7.11325 4.9641 7.67386 3.17602 9 2.4094C10.3012 1.65036 12.1294 2.05482 13.6214 1.65687C15.0614 1.27084 16.4375 0 18 0C19.5625 0 20.9386 1.27084 22.3796 1.65687C23.8717 2.06024 25.6988 1.65361 27 2.4094C28.3251 3.17602 28.8846 4.9641 29.9602 6.03867C31.0359 7.11325 32.8229 7.67386 33.5895 8.99892C34.3486 10.3001 33.9441 12.1283 34.342 13.6204C34.7292 15.0614 36 16.4375 36 18C36 19.5625 34.7292 20.9386 34.3431 22.3796C33.9452 23.8717 34.3431 25.6955 33.5906 27.0011C32.824 28.3261 31.0359 28.8857 29.9613 29.9613C28.8867 31.037 28.3261 32.824 27.0011 33.5906C25.6999 34.3496 23.8717 33.9452 22.3796 34.3431C20.9386 34.7292 19.5625 36 18 36Z" fill="url(#paint0_linear_1144_2871)"/>
<path d="M18 30.1446C24.7073 30.1446 30.1446 24.7073 30.1446 18C30.1446 11.2928 24.7073 5.85547 18 5.85547C11.2928 5.85547 5.85547 11.2928 5.85547 18C5.85547 24.7073 11.2928 30.1446 18 30.1446Z" fill="#37B400"/>
<path d="M11.4717 11.0679C11.4717 11.0679 13.8312 9.44143 16.4087 10.8608C16.8755 11.1159 17.2367 11.5283 17.4281 12.0247C17.6195 12.521 17.6287 13.0692 17.454 13.5717C17.5631 13.8624 17.6497 14.1611 17.7131 14.4652C17.9791 14.1824 18.2818 13.9366 18.6131 13.7343C18.5138 13.3478 18.545 12.9394 18.7019 12.5724C18.8588 12.2055 19.1326 11.9007 19.4806 11.7055C21.5148 10.5681 23.6998 11.8834 23.6998 11.8834C23.2226 13.0816 22.379 14.2375 21.2492 14.8696C20.9569 15.0317 20.6255 15.1096 20.2917 15.0947C19.9578 15.0797 19.6347 14.9726 19.3581 14.785C18.3605 15.3511 17.9083 16.3888 17.9083 16.7087H16.619C16.619 15.6916 16.5106 14.952 16.3631 14.3979C16.1983 13.6649 15.5943 13.0349 15.5943 13.0349C14.9548 12.2647 14.0653 11.7432 13.0808 11.5613C14.4829 13.1629 15.011 13.8135 15.3135 15.0897C14.9133 15.0986 14.5178 15.0025 14.1663 14.8111C12.7338 14.026 12.1158 12.2087 11.4717 11.0679ZM26.3694 15.864C26.2064 15.7155 26.0157 15.6007 25.8082 15.5263C25.6007 15.4518 25.3805 15.4192 25.1604 15.4302C24.9417 15.4398 24.7272 15.4926 24.5291 15.5857C24.3311 15.6787 24.1535 15.8102 24.0066 15.9724L21.7295 18.3764C21.7932 18.7308 21.7839 19.0946 21.7021 19.4453C21.6202 19.796 21.4676 20.1263 21.2536 20.416C21.0396 20.7057 20.7687 20.9486 20.4575 21.1298C20.1462 21.311 19.8013 21.4268 19.4437 21.47L16.7145 21.8603L16.5323 20.5873L19.2616 20.197C19.6184 20.1464 19.9428 19.9623 20.1693 19.682C20.3957 19.4016 20.5074 19.0458 20.4819 18.6862C20.4563 18.3267 20.2953 17.9903 20.0314 17.7448C19.7675 17.4994 19.4203 17.3631 19.0599 17.3636H13.404C12.8922 17.3642 12.4016 17.5677 12.0398 17.9296C11.678 18.2914 11.4744 18.782 11.4738 19.2937V23.7981C11.4747 24.3097 11.6783 24.8001 12.0401 25.1619C12.4019 25.5237 12.8923 25.7273 13.404 25.7282H19.627L26.4952 18.2289C26.7883 17.8984 26.9399 17.466 26.9171 17.0248C26.8944 16.5837 26.6993 16.1691 26.3737 15.8705L26.3694 15.864Z" fill="url(#paint1_linear_1144_2871)"/>
</g>
<defs>
<linearGradient id="paint0_linear_1144_2871" x1="18" y1="0" x2="18" y2="36" gradientUnits="userSpaceOnUse">
<stop stop-color="#71FF6A"/>
<stop offset="1" stop-color="#00BF0C"/>
</linearGradient>
<linearGradient id="paint1_linear_1144_2871" x1="11.4717" y1="18.0001" x2="26.9148" y2="18.0001" gradientUnits="userSpaceOnUse">
<stop stop-color="#71FF6A"/>
<stop offset="1" stop-color="#99FF5F"/>
</linearGradient>
<clipPath id="clip0_1144_2871">
<rect width="36" height="36" fill="white"/>
</clipPath>
</defs>
</svg>
