<svg width="21" height="21" viewBox="0 0 21 21" fill="none" xmlns="http://www.w3.org/2000/svg">
<g clip-path="url(#clip0_1144_2731)">
<path d="M10.5 21C9.57887 21 8.74037 20.4646 7.89049 20.2374C7.01152 20.0026 6.01873 20.0401 5.24895 19.5949C4.46862 19.143 4.00701 18.2602 3.37255 17.6266C2.73809 16.993 1.8549 16.5305 1.40424 15.7506C0.959068 14.9813 0.996587 13.9885 0.761774 13.1095C0.535392 12.2596 0 11.4211 0 10.5C0 9.57887 0.535392 8.74037 0.762617 7.89049C0.99743 7.01152 0.959911 6.01873 1.40509 5.24895C1.85701 4.46862 2.74019 4.00701 3.37255 3.37255C4.0049 2.73809 4.46862 1.8549 5.2481 1.40424C6.01789 0.959068 7.01068 0.996587 7.88965 0.761774C8.74037 0.535392 9.57887 0 10.5 0C11.4211 0 12.2596 0.535392 13.1108 0.762617C13.9897 0.99743 14.9825 0.959911 15.7519 1.40509C16.5314 1.85701 16.993 2.74019 17.6266 3.37255C18.2602 4.0049 19.1443 4.46862 19.5949 5.2481C20.0401 6.01789 20.0026 7.01068 20.2374 7.88965C20.4646 8.73953 21 9.57803 21 10.4992C21 11.4203 20.4646 12.2588 20.2374 13.1087C20.0026 13.9876 20.0401 14.9804 19.5949 15.7498C19.143 16.5305 18.2602 16.9922 17.6266 17.6258C16.993 18.2594 16.5305 19.1434 15.7506 19.5941C14.9813 20.0392 13.9885 20.0017 13.1095 20.2365C12.2596 20.4646 11.4211 21 10.5 21Z" fill="url(#paint0_linear_1144_2731)"/>
<path d="M10.4996 3.34229C9.08393 3.34229 7.70004 3.76208 6.52294 4.54859C5.34585 5.3351 4.42841 6.453 3.88666 7.76092C3.3449 9.06884 3.20315 10.508 3.47934 11.8965C3.75552 13.285 4.43724 14.5604 5.43827 15.5614C6.43931 16.5625 7.71471 17.2442 9.10319 17.5204C10.4917 17.7965 11.9309 17.6548 13.2388 17.113C14.5467 16.5713 15.6646 15.6539 16.4511 14.4768C17.2376 13.2997 17.6574 11.9158 17.6574 10.5001C17.6574 8.60172 16.9033 6.78111 15.5609 5.43876C14.2186 4.09641 12.398 3.34229 10.4996 3.34229ZM8.50812 13.8191H7.5128C7.38205 13.8192 7.25258 13.7934 7.13177 13.7435C7.01097 13.6935 6.90119 13.6202 6.80872 13.5277C6.71625 13.4353 6.6429 13.3256 6.59286 13.2048C6.54281 13.084 6.51705 12.9545 6.51705 12.8238V10.1679C6.517 10.0371 6.54271 9.90761 6.59274 9.78678C6.64276 9.66594 6.7161 9.55615 6.80858 9.46368C6.90105 9.3712 7.01084 9.29786 7.13168 9.24784C7.25251 9.19781 7.38202 9.1721 7.5128 9.17215H8.50812V13.8191ZM14.4822 10.1687L13.8186 13.8191H9.17209V9.17299L9.96548 7.58832C10.0457 7.42805 10.1815 7.30245 10.3475 7.23499C10.5136 7.16753 10.6985 7.16282 10.8677 7.22174C11.037 7.28065 11.179 7.39917 11.2673 7.55514C11.3556 7.71112 11.384 7.8939 11.3474 8.06933L11.1632 9.17384H14.4822V10.1687Z" fill="#662D91"/>
</g>
<defs>
<linearGradient id="paint0_linear_1144_2731" x1="10.5" y1="0" x2="10.5" y2="21" gradientUnits="userSpaceOnUse">
<stop stop-color="#DD94FF"/>
<stop offset="1" stop-color="#8300AA"/>
</linearGradient>
<clipPath id="clip0_1144_2731">
<rect width="21" height="21" fill="white"/>
</clipPath>
</defs>
</svg>
