<svg width="292" height="292" viewBox="0 0 292 292" fill="none" xmlns="http://www.w3.org/2000/svg">
<path d="M46.7901 92.2253C63.621 61.2383 105.961 25.0653 164.051 40.1325C222.142 55.1997 261.381 87.0744 254.951 142.531C248.521 197.988 214.725 244.065 141.912 245.414C69.0989 246.763 9.88131 160.174 46.7901 92.2253Z" fill="#A0EB93"/>
<path opacity="0.7" d="M46.7901 92.2253C63.621 61.2383 105.961 25.0653 164.051 40.1325C222.142 55.1997 261.381 87.0744 254.951 142.531C248.521 197.988 214.725 244.065 141.912 245.414C69.0989 246.763 9.88131 160.174 46.7901 92.2253Z" fill="white"/>
<mask id="mask0_1232_655" style="mask-type:luminance" maskUnits="userSpaceOnUse" x="116" y="79" width="102" height="22">
<path d="M134.075 97.0901C134.075 97.0901 142.029 87.968 153.633 87.968C153.633 87.968 154.018 80.8899 161.937 79.3598C169.856 77.8297 171.392 84.902 171.392 84.902C171.392 84.902 177.232 81.7951 185.105 84.902C192.977 88.0089 191.365 97.0609 191.365 97.0609C191.365 97.0609 214.036 96.325 217.925 100.477H116.047C116.047 100.477 118.102 95.3965 134.075 97.0901Z" fill="white"/>
</mask>
<g mask="url(#mask0_1232_655)">
<path opacity="0.5" d="M134.075 97.0901C134.075 97.0901 142.029 87.968 153.633 87.968C153.633 87.968 154.018 80.8899 161.937 79.3598C169.856 77.8297 171.392 84.902 171.392 84.902C171.392 84.902 177.232 81.7951 185.105 84.902C192.977 88.0089 191.365 97.0609 191.365 97.0609C191.365 97.0609 214.036 96.325 217.925 100.477H116.047C116.047 100.477 118.102 95.3965 134.075 97.0901Z" stroke="#263238" stroke-linecap="round" stroke-linejoin="round"/>
</g>
<path d="M134.075 97.0901C134.075 97.0901 142.029 87.968 153.633 87.968C153.633 87.968 154.018 80.8899 161.937 79.3598C169.856 77.8297 171.392 84.902 171.392 84.902C171.392 84.902 177.232 81.7951 185.105 84.902C192.977 88.0089 191.365 97.0609 191.365 97.0609C191.365 97.0609 214.036 96.325 217.925 100.477H116.047C116.047 100.477 118.102 95.3965 134.075 97.0901Z" stroke="#263238" stroke-linecap="round" stroke-linejoin="round"/>
<mask id="mask1_1232_655" style="mask-type:luminance" maskUnits="userSpaceOnUse" x="132" y="28" width="83" height="18">
<path d="M199.804 43.0058C199.804 43.0058 193.456 35.735 184.205 35.735C184.205 35.735 183.896 30.0877 177.583 28.8671C171.27 27.6466 170.037 33.288 170.037 33.288C170.037 33.288 165.365 30.8118 159.105 33.288C152.844 35.7642 154.106 42.9882 154.106 42.9882C154.106 42.9882 136.002 42.4042 132.924 45.7097H214.182C214.182 45.7097 212.541 41.6567 199.804 43.0058Z" fill="white"/>
</mask>
<g mask="url(#mask1_1232_655)">
<path opacity="0.5" d="M199.804 43.0058C199.804 43.0058 193.456 35.735 184.205 35.735C184.205 35.735 183.896 30.0877 177.583 28.8671C171.27 27.6466 170.037 33.288 170.037 33.288C170.037 33.288 165.365 30.8118 159.105 33.288C152.844 35.7642 154.106 42.9882 154.106 42.9882C154.106 42.9882 136.002 42.4042 132.924 45.7097H214.182C214.182 45.7097 212.541 41.6567 199.804 43.0058Z" stroke="#263238" stroke-linecap="round" stroke-linejoin="round"/>
</g>
<path d="M199.804 43.0058C199.804 43.0058 193.456 35.735 184.205 35.735C184.205 35.735 183.896 30.0877 177.583 28.8671C171.27 27.6466 170.037 33.288 170.037 33.288C170.037 33.288 165.365 30.8118 159.105 33.288C152.844 35.7642 154.106 42.9882 154.106 42.9882C154.106 42.9882 136.002 42.4042 132.924 45.7097H214.182C214.182 45.7097 212.541 41.6567 199.804 43.0058Z" stroke="#263238" stroke-linecap="round" stroke-linejoin="round"/>
<mask id="mask2_1232_655" style="mask-type:luminance" maskUnits="userSpaceOnUse" x="43" y="59" width="50" height="11">
<path d="M52.5016 68.2754C52.5016 68.2754 56.2684 63.9538 61.7697 63.9538C61.8732 62.931 62.3167 61.9724 63.0292 61.2314C63.7417 60.4903 64.682 60.0095 65.7 59.8658C69.4493 59.1416 70.1793 62.4879 70.1793 62.4879C71.2043 62.0444 72.3094 61.8155 73.4263 61.8155C74.5432 61.8155 75.6483 62.0444 76.6733 62.4879C80.3993 63.9596 79.6459 68.252 79.6459 68.252C79.6459 68.252 90.3798 67.9016 92.2253 69.8697H43.9635C43.9635 69.8697 44.9329 67.4695 52.5016 68.2754Z" fill="white"/>
</mask>
<g mask="url(#mask2_1232_655)">
<path opacity="0.5" d="M52.5016 68.2754C52.5016 68.2754 56.2684 63.9538 61.7697 63.9538C61.8732 62.931 62.3167 61.9724 63.0292 61.2314C63.7417 60.4903 64.682 60.0095 65.7 59.8658C69.4493 59.1416 70.1793 62.4879 70.1793 62.4879C71.2043 62.0444 72.3094 61.8155 73.4263 61.8155C74.5432 61.8155 75.6483 62.0444 76.6733 62.4879C80.3993 63.9596 79.6459 68.252 79.6459 68.252C79.6459 68.252 90.3798 67.9016 92.2253 69.8697H43.9635C43.9635 69.8697 44.9329 67.4695 52.5016 68.2754Z" stroke="#263238" stroke-linecap="round" stroke-linejoin="round"/>
</g>
<path d="M52.5016 68.2754C52.5016 68.2754 56.2684 63.9538 61.7697 63.9538C61.8732 62.931 62.3167 61.9724 63.0292 61.2314C63.7417 60.4903 64.682 60.0095 65.7 59.8658C69.4493 59.1416 70.1793 62.4879 70.1793 62.4879C71.2043 62.0444 72.3094 61.8155 73.4263 61.8155C74.5432 61.8155 75.6483 62.0444 76.6733 62.4879C80.3993 63.9596 79.6459 68.252 79.6459 68.252C79.6459 68.252 90.3798 67.9016 92.2253 69.8697H43.9635C43.9635 69.8697 44.9329 67.4695 52.5016 68.2754Z" stroke="#263238" stroke-linecap="round" stroke-linejoin="round"/>
<mask id="mask3_1232_655" style="mask-type:luminance" maskUnits="userSpaceOnUse" x="101" y="159" width="49" height="11">
<path d="M110.212 168.145C110.212 168.145 113.979 163.824 119.481 163.824C119.583 162.801 120.026 161.841 120.739 161.1C121.452 160.359 122.393 159.878 123.411 159.736C127.16 159.023 127.896 162.352 127.896 162.352C128.921 161.908 130.026 161.68 131.143 161.68C132.26 161.68 133.365 161.908 134.39 162.352C138.116 163.818 137.363 168.116 137.363 168.116C137.363 168.116 148.097 167.766 149.942 169.734H101.674C101.674 169.734 102.644 167.339 110.212 168.145Z" fill="white"/>
</mask>
<g mask="url(#mask3_1232_655)">
<path opacity="0.5" d="M110.212 168.145C110.212 168.145 113.979 163.824 119.481 163.824C119.583 162.801 120.026 161.841 120.739 161.1C121.452 160.359 122.393 159.878 123.411 159.736C127.16 159.023 127.896 162.352 127.896 162.352C128.921 161.908 130.026 161.68 131.143 161.68C132.26 161.68 133.365 161.908 134.39 162.352C138.116 163.818 137.363 168.116 137.363 168.116C137.363 168.116 148.097 167.766 149.942 169.734H101.674C101.674 169.734 102.644 167.339 110.212 168.145Z" stroke="#263238" stroke-linecap="round" stroke-linejoin="round"/>
</g>
<path d="M110.212 168.145C110.212 168.145 113.979 163.824 119.481 163.824C119.583 162.801 120.026 161.841 120.739 161.1C121.452 160.359 122.393 159.878 123.411 159.736C127.16 159.023 127.896 162.352 127.896 162.352C128.921 161.908 130.026 161.68 131.143 161.68C132.26 161.68 133.365 161.908 134.39 162.352C138.116 163.818 137.363 168.116 137.363 168.116C137.363 168.116 148.097 167.766 149.942 169.734H101.674C101.674 169.734 102.644 167.339 110.212 168.145Z" stroke="#263238" stroke-linecap="round" stroke-linejoin="round"/>
<path d="M66.8154 113.366L66.757 104.256C66.7354 103.941 66.5953 103.647 66.365 103.432C66.1346 103.217 65.8312 103.097 65.516 103.097C65.2009 103.097 64.8974 103.217 64.6671 103.432C64.4367 103.647 64.2966 103.941 64.275 104.256V107.24" stroke="#263238" stroke-linecap="round" stroke-linejoin="round"/>
<path d="M64.2049 115.801L64.1816 119.148" stroke="#263238" stroke-linecap="round" stroke-linejoin="round"/>
<path d="M67.3352 194.291L66.8738 122.582" stroke="#263238" stroke-linecap="round" stroke-linejoin="round"/>
<path d="M64.1407 125.449L63.7027 194.291" stroke="#263238" stroke-linecap="round" stroke-linejoin="round"/>
<path d="M96.944 119.72L70.4245 114.061L68.9645 116.117L67.9075 116.006L56.6889 89.1417C56.6125 88.9572 56.468 88.8092 56.2853 88.7285C56.1027 88.6477 55.896 88.6404 55.7081 88.708C55.5202 88.7757 55.3656 88.9131 55.2764 89.0917C55.1871 89.2703 55.1701 89.4765 55.2289 89.6673L62.9844 115.655L65.4897 115.941L65.8869 116.893L48.1099 140.002C48.001 140.16 47.9542 140.352 47.9783 140.542C48.0024 140.732 48.0959 140.906 48.2407 141.031C48.3855 141.157 48.5715 141.224 48.7629 141.221C48.9543 141.217 49.1377 141.143 49.2779 141.013L68.0009 121.39L67.0081 119.054L67.6681 118.202L96.7104 121.262C96.8116 121.277 96.9149 121.272 97.0143 121.248C97.1137 121.223 97.2073 121.179 97.2897 121.119C97.3721 121.058 97.4418 120.981 97.4947 120.894C97.5476 120.806 97.5827 120.709 97.5981 120.608C97.6134 120.506 97.6086 120.403 97.5841 120.304C97.5595 120.204 97.5156 120.111 97.4549 120.028C97.3941 119.946 97.3177 119.876 97.2301 119.823C97.1424 119.77 97.0452 119.735 96.944 119.72Z" stroke="#263238" stroke-linecap="round" stroke-linejoin="round"/>
<path d="M67.3352 117.693C67.7545 117.693 68.0944 117.354 68.0944 116.934C68.0944 116.515 67.7545 116.175 67.3352 116.175C66.9159 116.175 66.576 116.515 66.576 116.934C66.576 117.354 66.9159 117.693 67.3352 117.693Z" stroke="#263238" stroke-linecap="round" stroke-linejoin="round"/>
<path d="M91.2325 144.861L91.1858 137.649C91.1858 137.389 91.0824 137.139 90.8984 136.955C90.7144 136.771 90.4648 136.668 90.2046 136.668C89.9444 136.668 89.6949 136.771 89.5109 136.955C89.3269 137.139 89.2235 137.389 89.2235 137.649V140.014" stroke="#263238" stroke-linecap="round" stroke-linejoin="round"/>
<path d="M89.1651 146.788L89.1476 149.428" stroke="#263238" stroke-linecap="round" stroke-linejoin="round"/>
<path d="M91.6413 208.873L91.2792 152.149" stroke="#263238" stroke-linecap="round" stroke-linejoin="round"/>
<path d="M89.1184 154.415L88.768 208.873" stroke="#263238" stroke-linecap="round" stroke-linejoin="round"/>
<path d="M115.083 149.901L94.0999 145.416L92.9319 147.045L92.0909 146.958L83.22 125.7C83.1927 125.623 83.1496 125.553 83.0934 125.493C83.0372 125.434 82.9693 125.387 82.8939 125.356C82.8185 125.325 82.7373 125.309 82.6557 125.311C82.5741 125.313 82.4937 125.332 82.4199 125.367C82.2795 125.427 82.1658 125.536 82.1002 125.673C82.0346 125.811 82.0216 125.968 82.0637 126.115L88.2015 146.672L90.1813 146.899L90.4966 147.653L76.4222 165.92C76.3161 166.044 76.2636 166.205 76.2762 166.368C76.2888 166.53 76.3655 166.681 76.4894 166.787C76.6133 166.893 76.7743 166.946 76.9369 166.933C77.0996 166.921 77.2505 166.844 77.3566 166.72L92.161 151.198L91.3785 149.364L91.8982 148.686L114.873 151.104C114.954 151.117 115.036 151.113 115.115 151.093C115.195 151.072 115.269 151.035 115.332 150.983C115.396 150.932 115.449 150.868 115.486 150.795C115.524 150.723 115.546 150.643 115.55 150.561C115.566 150.413 115.527 150.264 115.441 150.143C115.355 150.022 115.228 149.936 115.083 149.901Z" stroke="#263238" stroke-linecap="round" stroke-linejoin="round"/>
<path d="M92.272 147.682C92.272 147.797 92.2377 147.91 92.1736 148.006C92.1094 148.102 92.0182 148.177 91.9115 148.221C91.8048 148.266 91.6873 148.277 91.574 148.255C91.4608 148.232 91.3567 148.177 91.275 148.095C91.1933 148.013 91.1377 147.909 91.1152 147.796C91.0927 147.683 91.1042 147.565 91.1484 147.458C91.1926 147.352 91.2675 147.26 91.3635 147.196C91.4596 147.132 91.5725 147.098 91.688 147.098C91.8429 147.098 91.9914 147.159 92.1009 147.269C92.2104 147.378 92.272 147.527 92.272 147.682Z" stroke="#263238" stroke-linecap="round" stroke-linejoin="round"/>
<path d="M219.345 113.366L219.403 104.256C219.425 103.941 219.565 103.647 219.795 103.432C220.025 103.217 220.329 103.097 220.644 103.097C220.959 103.097 221.263 103.217 221.493 103.432C221.723 103.647 221.863 103.941 221.885 104.256V107.24" stroke="#263238" stroke-linecap="round" stroke-linejoin="round"/>
<path d="M221.955 115.801L221.978 119.148" stroke="#263238" stroke-linecap="round" stroke-linejoin="round"/>
<path d="M218.825 194.291L219.286 122.582" stroke="#263238" stroke-linecap="round" stroke-linejoin="round"/>
<path d="M222.019 125.449L222.457 194.291" stroke="#263238" stroke-linecap="round" stroke-linejoin="round"/>
<path d="M189.216 119.72L215.735 114.061L217.195 116.117L218.252 116.006L229.471 89.1417C229.547 88.9572 229.692 88.8092 229.875 88.7285C230.057 88.6477 230.264 88.6404 230.452 88.708C230.64 88.7757 230.794 88.9131 230.884 89.0917C230.973 89.2703 230.99 89.4765 230.931 89.6673L223.176 115.655L220.67 115.941L220.273 116.893L238.068 139.991C238.176 140.148 238.223 140.34 238.199 140.53C238.175 140.72 238.082 140.894 237.937 141.02C237.792 141.145 237.606 141.212 237.415 141.209C237.223 141.205 237.04 141.131 236.9 141.001L218.177 121.379L219.169 119.043L218.509 118.19L189.467 121.25C189.27 121.27 189.073 121.214 188.916 121.094C188.759 120.974 188.654 120.798 188.622 120.603C188.59 120.408 188.633 120.208 188.744 120.044C188.854 119.88 189.023 119.764 189.216 119.72Z" stroke="#263238" stroke-linecap="round" stroke-linejoin="round"/>
<path d="M218.825 117.693C219.244 117.693 219.584 117.354 219.584 116.934C219.584 116.515 219.244 116.175 218.825 116.175C218.405 116.175 218.066 116.515 218.066 116.934C218.066 117.354 218.405 117.693 218.825 117.693Z" stroke="#263238" stroke-linecap="round" stroke-linejoin="round"/>
<path d="M194.927 144.861L194.974 137.649C194.974 137.389 195.078 137.139 195.262 136.955C195.446 136.771 195.695 136.668 195.955 136.668C196.216 136.668 196.465 136.771 196.649 136.955C196.833 137.139 196.936 137.389 196.936 137.649V140.014" stroke="#263238" stroke-linecap="round" stroke-linejoin="round"/>
<path d="M196.995 146.788L197.012 149.428" stroke="#263238" stroke-linecap="round" stroke-linejoin="round"/>
<path d="M194.519 208.873L194.881 152.149" stroke="#263238" stroke-linecap="round" stroke-linejoin="round"/>
<path d="M197.042 154.415L197.392 208.873" stroke="#263238" stroke-linecap="round" stroke-linejoin="round"/>
<path d="M171.077 149.901L192.06 145.416L193.228 147.045L194.069 146.958L202.94 125.7C202.967 125.623 203.01 125.553 203.067 125.493C203.123 125.434 203.191 125.387 203.266 125.356C203.341 125.325 203.423 125.309 203.504 125.311C203.586 125.313 203.666 125.332 203.74 125.367C203.88 125.427 203.994 125.536 204.06 125.673C204.125 125.811 204.138 125.968 204.096 126.115L197.958 146.672L195.979 146.899L195.663 147.653L209.738 165.92C209.844 166.044 209.896 166.205 209.884 166.368C209.871 166.53 209.794 166.681 209.671 166.787C209.547 166.893 209.386 166.946 209.223 166.933C209.06 166.921 208.909 166.844 208.803 166.72L193.999 151.198L194.781 149.364L194.262 148.686L171.287 151.104C171.206 151.117 171.124 151.113 171.045 151.093C170.965 151.072 170.891 151.035 170.828 150.983C170.764 150.932 170.711 150.868 170.674 150.795C170.636 150.723 170.614 150.643 170.61 150.561C170.594 150.413 170.633 150.264 170.719 150.143C170.805 150.022 170.932 149.936 171.077 149.901Z" stroke="#263238" stroke-linecap="round" stroke-linejoin="round"/>
<path d="M193.917 147.682C193.917 147.797 193.951 147.91 194.016 148.006C194.08 148.102 194.171 148.177 194.278 148.221C194.384 148.266 194.502 148.277 194.615 148.255C194.728 148.232 194.832 148.177 194.914 148.095C194.996 148.013 195.051 147.909 195.074 147.796C195.096 147.683 195.085 147.565 195.041 147.458C194.997 147.352 194.922 147.26 194.826 147.196C194.73 147.132 194.617 147.098 194.501 147.098C194.346 147.098 194.198 147.159 194.088 147.269C193.979 147.378 193.917 147.527 193.917 147.682Z" stroke="#263238" stroke-linecap="round" stroke-linejoin="round"/>
<path d="M18.0106 185.776C18.0106 185.776 19.1435 188.766 22.6826 193.368C27.2553 199.36 35.8985 208.079 51.392 216.442C78.7232 231.217 96.0213 255.769 96.0213 255.769L111.924 205.083C111.924 205.083 104.851 204.569 94.9 197.491C88.1081 192.72 80.008 184.883 71.9138 172.14C51.8942 140.656 30.952 133.829 30.952 133.829" fill="white"/>
<mask id="mask4_1232_655" style="mask-type:luminance" maskUnits="userSpaceOnUse" x="18" y="133" width="94" height="123">
<path d="M18.0106 185.776C18.0106 185.776 19.1435 188.766 22.6826 193.368C27.2553 199.36 35.8985 208.079 51.392 216.442C78.7232 231.217 96.0213 255.769 96.0213 255.769L111.924 205.083C111.924 205.083 104.851 204.569 94.9 197.491C88.1081 192.72 80.008 184.883 71.9138 172.14C51.8942 140.656 30.952 133.829 30.952 133.829" fill="white"/>
</mask>
<g mask="url(#mask4_1232_655)">
<path opacity="0.4" d="M22.665 193.368C27.2553 199.36 35.8985 208.079 51.392 216.442C78.7232 231.217 96.0213 255.769 96.0213 255.769L111.924 205.083C111.924 205.083 104.851 204.569 94.9 197.491C86.7532 197.269 69.8639 202.8 61.2382 211.134C61.209 211.145 41.283 201.042 22.665 193.368Z" fill="#A0EB93"/>
<path d="M75.2484 204.277C75.2484 204.277 84.972 212.675 90.4324 212.95" stroke="#263238" stroke-linecap="round" stroke-linejoin="round"/>
<path d="M46.72 214.013C53.6521 217.382 63.8195 221.149 67.5162 223.076" stroke="#263238" stroke-linecap="round" stroke-linejoin="round"/>
<path d="M73.3037 174.412C75.1841 178.297 77.4021 182.01 79.9321 185.508" stroke="#263238" stroke-linecap="round" stroke-linejoin="round"/>
</g>
<path d="M18.0106 185.776C18.0106 185.776 19.1435 188.766 22.6826 193.368C27.2553 199.36 35.8985 208.079 51.392 216.442C78.7232 231.217 96.0213 255.769 96.0213 255.769L111.924 205.083C111.924 205.083 104.851 204.569 94.9 197.491C88.1081 192.72 80.008 184.883 71.9138 172.14C51.8942 140.656 30.952 133.829 30.952 133.829" stroke="#263238" stroke-linecap="round" stroke-linejoin="round"/>
<path d="M271.91 181.104C271.91 181.104 270.777 184.094 267.238 188.696C262.648 194.688 254.005 203.407 238.541 211.77C211.209 226.545 193.911 251.097 193.911 251.097L178.009 200.411C178.009 200.411 185.081 199.897 195.033 192.819C201.795 188.019 209.89 180.199 217.99 167.456C238.009 135.973 258.957 129.146 258.957 129.146" fill="white"/>
<mask id="mask5_1232_655" style="mask-type:luminance" maskUnits="userSpaceOnUse" x="178" y="129" width="94" height="123">
<path d="M271.91 181.104C271.91 181.104 270.777 184.094 267.238 188.696C262.648 194.688 254.005 203.407 238.541 211.77C211.209 226.545 193.911 251.097 193.911 251.097L178.009 200.411C178.009 200.411 185.081 199.897 195.033 192.819C201.795 188.019 209.89 180.199 217.99 167.456C238.009 135.973 258.957 129.146 258.957 129.146" fill="white"/>
</mask>
<g mask="url(#mask5_1232_655)">
<path opacity="0.4" d="M267.256 188.696C262.666 194.688 254.022 203.407 238.558 211.77C211.227 226.545 193.929 251.097 193.929 251.097L178.027 200.411C178.027 200.411 185.099 199.897 195.05 192.819C203.197 192.597 217.698 196.358 224.968 208.003C224.968 208.009 248.638 196.37 267.256 188.696Z" fill="#A0EB93"/>
<path d="M204.651 190.839C204.651 190.839 199.903 198.554 187.633 203.395" stroke="#263238" stroke-linecap="round" stroke-linejoin="round"/>
<path d="M241.496 210.549C238.576 211.77 226.475 215.572 223.701 217.517" stroke="#263238" stroke-linecap="round" stroke-linejoin="round"/>
<path d="M218.159 173.255C218.159 173.255 220.921 163.327 224.968 157.312" stroke="#263238" stroke-linecap="round" stroke-linejoin="round"/>
</g>
<path d="M271.91 181.104C271.91 181.104 270.777 184.094 267.238 188.696C262.648 194.688 254.005 203.407 238.541 211.77C211.209 226.545 193.911 251.097 193.911 251.097L178.009 200.411C178.009 200.411 185.081 199.897 195.033 192.819C201.795 188.019 209.89 180.199 217.99 167.456C238.009 135.973 258.957 129.146 258.957 129.146" stroke="#263238" stroke-linecap="round" stroke-linejoin="round"/>
<path d="M124.871 217.213L107.801 219.263C107.801 219.263 95.8811 222.895 93.002 225.482C90.1229 228.07 86.3386 235.007 86.3386 235.007C86.3386 235.007 82.1454 235.802 79.9963 235.007C79.7552 234.941 79.5304 234.825 79.3364 234.667C79.1424 234.51 78.9833 234.313 78.8692 234.091C78.5952 233.438 78.3992 232.756 78.2852 232.058C77.9806 229.873 77.9492 227.658 78.1918 225.465C78.1918 225.465 75.3886 221.459 75.2718 219.818C75.155 218.177 75.7506 211.414 77.4442 209.522C77.5127 209.44 77.589 209.366 77.672 209.3C79.5408 207.805 90.2046 203.063 90.2046 203.063C90.2046 203.063 92.6049 199.459 98.4741 198.391C104.343 197.322 117.01 201.06 117.01 201.06L118.85 204.832L124.871 217.213Z" fill="white"/>
<path opacity="0.4" d="M78.2969 232.076C77.9923 229.89 77.9609 227.676 78.2034 225.483C78.2034 225.483 75.4002 221.476 75.2834 219.835C75.1666 218.194 75.7623 211.431 77.4559 209.539C75.4937 213.452 75.885 219.415 78.6239 217.517C81.9586 215.181 85.3983 219.935 85.3983 219.935C81.76 221.821 79.097 228.251 78.2969 232.076Z" fill="#A0EB93"/>
<path opacity="0.4" d="M124.871 217.213L107.801 219.263C107.801 219.263 95.8811 222.895 93.002 225.482C90.1229 228.07 86.3385 235.007 86.3385 235.007C86.3385 235.007 82.1454 235.802 79.9963 235.007C81.9702 234.423 84.8318 232.204 85.375 229.232C86.1458 225.004 93.2648 221.196 92.9962 217.92C92.7275 214.643 87.2671 209.3 87.2671 209.3C90.4674 208.605 93.3524 210.596 93.3524 210.596C92.1133 209.101 90.6448 207.812 89.0016 206.777C95.2679 206.099 96.471 210.532 96.471 210.532C98.223 210.923 102.311 209.3 102.311 209.3C102.332 207.713 102.782 206.161 103.613 204.809L105.646 207.992C107.859 207.992 115.287 205.878 118.821 204.832L124.871 217.213Z" fill="#A0EB93"/>
<path d="M78.8692 234.114C79.7861 236.246 86.3327 235.013 86.3327 235.013C86.3327 235.013 90.1229 228.07 93.002 225.482C95.8811 222.895 107.801 219.257 107.801 219.257L124.871 217.213L117.004 201.077C117.004 201.077 104.337 197.345 98.4682 198.414C92.599 199.483 90.1988 203.086 90.1988 203.086C90.1988 203.086 79.535 207.822 77.6662 209.323C75.7974 210.824 75.1316 218.194 75.2659 219.835C75.4002 221.476 78.1859 225.482 78.1859 225.482C78.1859 225.482 77.5318 231.013 78.8692 234.114Z" stroke="#263238" stroke-linecap="round" stroke-linejoin="round"/>
<path d="M79.132 232.677C79.132 232.677 80.2007 226.68 85.2698 224.501C85.2698 224.501 85.8013 220.927 84.4698 219.28C83.1382 217.633 79.2663 220.834 79.132 224.501C78.9977 228.169 79.132 232.677 79.132 232.677Z" stroke="#263238" stroke-linecap="round" stroke-linejoin="round"/>
<path d="M90.1988 210.55C90.1988 210.55 99.0931 214.544 94.4445 224.478" stroke="#263238" stroke-linecap="round" stroke-linejoin="round"/>
<path d="M93.3524 208.681C93.3524 208.681 100.909 215.198 95.3555 223.403" stroke="#263238" stroke-linecap="round" stroke-linejoin="round"/>
<path d="M103.637 207.355C103.211 210.236 103.211 213.164 103.637 216.045" stroke="#263238" stroke-linecap="round" stroke-linejoin="round"/>
<path d="M81.2694 217.517C81.2694 217.517 79.6693 218.282 78.6006 222.282" stroke="#263238" stroke-linecap="round" stroke-linejoin="round"/>
<path d="M79.9321 210.55C79.9321 210.55 77.6662 210.859 76.469 215.344" stroke="#263238" stroke-linecap="round" stroke-linejoin="round"/>
<path d="M211.28 217.213C209.411 218.41 208.424 220.927 208.424 220.927C208.424 220.927 208.774 225.482 208.424 226.68C208.073 227.877 205.539 230.149 203.536 228.881C201.533 227.614 200.505 222.948 195.319 220.927L162.878 208.009C163.978 206.453 165.291 205.059 166.779 203.869C169.172 201.894 171.842 200.281 174.704 199.08C183.137 195.476 193.392 193.211 198.408 194.811C201.223 195.716 204.616 198.864 207.232 201.965C209.253 204.353 210.806 206.73 211.28 208.009C212.342 210.947 213.16 216.01 211.28 217.213Z" fill="white"/>
<path opacity="0.4" d="M211.28 217.213C209.411 218.41 208.424 220.927 208.424 220.927C208.424 220.927 208.774 225.482 208.424 226.68C208.073 227.877 205.539 230.149 203.536 228.881C201.533 227.614 200.505 222.948 195.319 220.927L162.878 208.009C163.978 206.453 165.291 205.059 166.779 203.869C171.223 203.869 177.075 204.289 181.869 206.275C181.869 206.275 181.542 202.671 183.411 203.08C183.411 203.08 182.938 199.436 184.953 199.255C186.968 199.074 186.495 200.423 186.495 200.423C186.495 200.423 186.495 204.096 188.124 204.838C189.753 205.58 188.796 200.511 191.926 199.804C191.926 199.804 192.101 205.515 193.935 207.367C193.935 207.367 191.85 213.388 194.694 216.372C197.538 219.356 202.87 222.913 204.038 222.796C205.206 222.679 200.896 217.482 200.896 217.482C200.896 217.482 200.978 212.185 204.248 211.145C207.519 210.106 210.363 212.769 210.363 212.769C209.868 209.033 208.821 205.392 207.256 201.965C209.276 204.353 210.83 206.73 211.303 208.009C212.342 210.947 213.16 216.01 211.28 217.213Z" fill="#A0EB93"/>
<path d="M162.872 208.009C162.872 208.009 166.265 202.677 174.704 199.08C183.142 195.482 193.392 193.211 198.408 194.811C203.425 196.411 210.211 205.077 211.256 208.009C212.302 210.941 213.125 216.01 211.256 217.213C209.387 218.416 208.406 220.921 208.406 220.921C208.406 220.921 208.757 225.482 208.406 226.68C208.056 227.877 205.521 230.149 203.524 228.881C201.527 227.614 200.487 222.948 195.301 220.921" stroke="#263238" stroke-linecap="round" stroke-linejoin="round"/>
<path d="M200.896 217.482C200.896 217.482 201.299 212.278 203.816 212.547C206.333 212.816 208.249 218.282 208.43 224.478C208.424 224.478 205.679 219.082 200.896 217.482Z" stroke="#263238" stroke-linecap="round" stroke-linejoin="round"/>
<path d="M192.609 219.257C192.609 219.257 189.689 209.878 195.938 206.281" stroke="#263238" stroke-linecap="round" stroke-linejoin="round"/>
<path d="M191.92 201.077C191.92 201.077 189.502 209.125 191.92 213.633C191.92 213.633 186.208 209.347 181.875 211.21" stroke="#263238" stroke-linecap="round" stroke-linejoin="round"/>
<path d="M186.88 211.145C186.88 211.145 186.057 208.009 186.191 206.281C186.325 204.552 184.013 202.543 184.9 200.411" stroke="#263238" stroke-linecap="round" stroke-linejoin="round"/>
<path d="M183.405 204.277C183.405 204.277 185.315 208.622 186.495 209.317" stroke="#263238" stroke-linecap="round" stroke-linejoin="round"/>
<path d="M187.633 214.544C187.633 214.544 190.039 213.481 191.926 214.544" stroke="#263238" stroke-linecap="round" stroke-linejoin="round"/>
<path d="M206.21 206.8C206.21 206.8 210.076 206.473 211.011 214.311" stroke="#263238" stroke-linecap="round" stroke-linejoin="round"/>
<path d="M149.376 150.532C149.376 150.532 140.072 145.171 147.694 125.799C155.315 106.428 178.225 100.553 183.405 94.7131C183.405 94.7131 181.314 154.205 149.376 150.532Z" fill="#A0EB93"/>
<mask id="mask6_1232_655" style="mask-type:luminance" maskUnits="userSpaceOnUse" x="144" y="94" width="40" height="57">
<path d="M149.376 150.532C149.376 150.532 140.072 145.171 147.694 125.799C155.315 106.428 178.225 100.553 183.405 94.7131C183.405 94.7131 181.314 154.205 149.376 150.532Z" fill="white"/>
</mask>
<g mask="url(#mask6_1232_655)">
<path opacity="0.3" d="M179.346 100.273C176.73 105.243 168.677 111.515 159.829 126.605C155.503 134.153 151.901 142.094 149.072 150.322C147.664 149.282 141.97 144.026 146.28 129.882C146.45 134.904 148.231 137.725 148.231 137.725C147.67 118.19 179.346 100.273 179.346 100.273Z" fill="black" fill-opacity="0.7"/>
</g>
<path d="M149.376 150.532C149.376 150.532 140.072 145.171 147.694 125.799C155.315 106.428 178.225 100.553 183.405 94.7131C183.405 94.7131 181.314 154.205 149.376 150.532Z" stroke="#263238" stroke-linecap="round" stroke-linejoin="round"/>
<path d="M150.234 126.605C150.234 126.605 148.786 136.96 152.115 143.705L153.779 139.389C153.779 139.389 165.33 139.08 171.334 131.686" stroke="#263238" stroke-linecap="round" stroke-linejoin="round"/>
<path d="M156.553 117.828C156.553 117.828 153.931 127.528 155.782 134.308L156.553 130.921C156.553 130.921 171.03 127.172 174.108 122.704" stroke="#263238" stroke-linecap="round" stroke-linejoin="round"/>
<path d="M164.051 111.544C164.051 111.544 160.547 118.78 160.629 124.789L162.34 121.869C162.34 121.869 174.569 119.533 176.73 115.708" stroke="#263238" stroke-linecap="round" stroke-linejoin="round"/>
<path d="M171.334 105.295C168.782 108.799 165.751 116.712 165.751 116.712L168.542 113.536C168.542 113.536 175.445 111.737 178.027 108.367" stroke="#263238" stroke-linecap="round" stroke-linejoin="round"/>
<path d="M138.285 201.626C138.285 201.626 142.257 131.686 175.959 105.266C175.959 105.266 144.692 131.096 143.08 201.626H138.285Z" fill="#A0EB93"/>
<mask id="mask7_1232_655" style="mask-type:luminance" maskUnits="userSpaceOnUse" x="138" y="105" width="38" height="97">
<path d="M138.285 201.626C138.285 201.626 142.257 131.686 175.959 105.266C175.959 105.266 144.692 131.096 143.08 201.626H138.285Z" fill="white"/>
</mask>
<g mask="url(#mask7_1232_655)">
<path opacity="0.3" d="M138.285 201.626C138.285 201.626 142.257 131.686 175.959 105.266C175.959 105.266 144.692 131.096 143.08 201.626H138.285Z" fill="black" fill-opacity="0.7"/>
</g>
<path d="M138.285 201.626C138.285 201.626 142.257 131.686 175.959 105.266C175.959 105.266 144.692 131.096 143.08 201.626H138.285Z" stroke="#263238" stroke-linecap="round" stroke-linejoin="round"/>
<path d="M135.132 128.719C135.132 128.719 143.454 123.925 136.633 106.598C129.812 89.2703 109.325 84.0143 104.694 78.7933C104.694 78.7933 106.562 131.984 135.132 128.719Z" fill="#A0EB93"/>
<mask id="mask8_1232_655" style="mask-type:luminance" maskUnits="userSpaceOnUse" x="104" y="78" width="36" height="51">
<path d="M135.132 128.719C135.132 128.719 143.454 123.925 136.633 106.598C129.812 89.2703 109.325 84.0143 104.694 78.7933C104.694 78.7933 106.562 131.984 135.132 128.719Z" fill="white"/>
</mask>
<g mask="url(#mask8_1232_655)">
<path opacity="0.3" d="M136.656 106.586C136.293 105.65 135.853 104.746 135.342 103.882C134.297 102.13 136.93 107.322 136.983 111.515C137.021 112.564 136.82 113.607 136.396 114.567C135.973 115.527 135.337 116.378 134.536 117.057C134.01 114.312 133.724 111.433 132.41 108.963C125.718 96.325 110.09 84.8728 107.608 82.9865C107.876 83.3252 116.432 94.0824 121.495 100.273C124.211 103.607 126.015 107.812 127.803 111.684C130.068 116.607 132.101 121.612 134.116 126.658C134.396 127.365 134.7 128.065 134.962 128.766C137.228 127.353 138.466 124.725 138.992 122.103C139.856 117.623 138.828 112.992 137.398 108.671C137.17 107.964 136.93 107.269 136.656 106.586Z" fill="black" fill-opacity="0.7"/>
</g>
<path d="M135.132 128.719C135.132 128.719 143.454 123.925 136.633 106.598C129.812 89.2703 109.325 84.0143 104.694 78.7933C104.694 78.7933 106.562 131.984 135.132 128.719Z" stroke="#263238" stroke-linecap="round" stroke-linejoin="round"/>
<path d="M134.361 107.322C134.361 107.322 135.657 116.578 132.679 122.611L131.19 118.751C131.19 118.751 120.859 118.476 115.486 111.865" stroke="#263238" stroke-linecap="round" stroke-linejoin="round"/>
<path d="M128.714 99.4669C128.714 99.4669 131.05 108.145 129.403 114.207L128.714 111.176C128.714 111.176 115.76 107.824 113.01 103.829" stroke="#263238" stroke-linecap="round" stroke-linejoin="round"/>
<path d="M122.003 93.8197C122.003 93.8197 125.134 100.296 125.064 105.669L123.534 103.047C123.534 103.047 112.595 100.98 110.686 97.5398" stroke="#263238" stroke-linecap="round" stroke-linejoin="round"/>
<path d="M115.486 88.2542C117.775 91.4136 120.485 98.4683 120.485 98.4683L117.968 95.6301C117.968 95.6301 111.795 94.0182 109.488 91.0048" stroke="#263238" stroke-linecap="round" stroke-linejoin="round"/>
<path d="M143.664 171.585C143.664 171.585 141.503 111.865 111.363 88.2133C111.363 88.2133 140.382 114.207 140.808 181.098C140.808 181.098 141.754 181.285 142.262 179.744" fill="#A0EB93"/>
<mask id="mask9_1232_655" style="mask-type:luminance" maskUnits="userSpaceOnUse" x="111" y="88" width="33" height="94">
<path d="M143.664 171.585C143.664 171.585 141.503 111.865 111.363 88.2133C111.363 88.2133 140.382 114.207 140.808 181.098C140.808 181.098 141.754 181.285 142.262 179.744" fill="white"/>
</mask>
<g mask="url(#mask9_1232_655)">
<path opacity="0.3" d="M143.664 171.585C143.664 171.585 141.503 111.865 111.363 88.2133C111.363 88.2133 140.382 114.207 140.808 181.098C140.808 181.098 141.754 181.285 142.262 179.744" fill="black" fill-opacity="0.7"/>
</g>
<path d="M143.664 171.585C143.664 171.585 141.503 111.865 111.363 88.2133C111.363 88.2133 140.382 114.207 140.808 181.098C140.808 181.098 141.754 181.285 142.262 179.744" stroke="#263238" stroke-linecap="round" stroke-linejoin="round"/>
<path d="M94.9292 225.833C94.9292 225.833 92.9202 224.244 94.9292 219.28C96.4709 215.479 101.488 215.665 101.762 211.688C103.818 211.945 105.459 210.585 106.522 208.92C107.584 207.256 108.443 205.259 110.218 204.383C110.802 204.114 111.386 203.968 111.924 203.682C114.032 202.561 114.762 199.53 117.039 198.84C118.383 198.432 119.959 198.986 121.192 198.362C122.424 197.737 123.031 196.026 124.369 195.442C124.943 195.266 125.528 195.132 126.121 195.039C128.486 194.42 130.01 191.535 132.457 191.599C133.164 191.628 133.923 191.914 134.554 191.599C135.05 191.354 135.348 190.787 135.862 190.589C136.304 190.484 136.766 190.502 137.199 190.641C138.565 190.935 139.988 190.817 141.287 190.302C142.455 189.771 142.724 188.223 143.436 187.873C146.269 186.477 149.446 191.914 151.087 193.275C152.044 194.075 153.125 192.031 154.369 192.078C155.502 192.124 156.08 193.876 157.201 193.736C156.681 194.145 156.979 195.05 157.552 195.383C158.163 195.639 158.822 195.765 159.485 195.751C161.096 195.92 162.551 196.767 163.952 197.591C164.204 197.712 164.423 197.89 164.595 198.11C164.764 198.367 164.799 198.694 164.974 198.946C165.342 199.465 166.195 199.53 166.469 200.079C166.556 200.375 166.607 200.681 166.621 200.99C166.802 201.854 167.824 202.245 168.706 202.309C169.588 202.374 170.534 202.269 171.287 202.736C171.808 203.165 172.282 203.648 172.7 204.178C174.452 205.878 176.485 205.784 178.102 207.933C179.796 210.182 180.941 212.64 183.358 214.264C187.446 217.015 188.614 220.892 189.73 224.496C190.845 228.099 175.001 237.069 143.01 239.364C111.018 241.659 94.5087 228.262 94.9292 225.833Z" fill="#263238"/>
<path opacity="0.4" d="M124.777 200.896C125.49 201.083 126.529 201.036 126.617 200.312C126.602 200.148 126.614 199.982 126.652 199.821C126.839 199.389 127.505 199.722 127.966 199.617C128.311 199.535 128.521 199.197 128.772 198.951C129.094 198.656 129.509 198.482 129.945 198.461C130.382 198.44 130.812 198.572 131.161 198.835C131.564 199.162 131.832 199.664 132.294 199.897C133.158 200.33 134.577 199.845 134.898 200.75" stroke="white" stroke-linecap="round" stroke-linejoin="round"/>
<path opacity="0.4" d="M137.094 205.457C137.294 205.585 137.52 205.666 137.756 205.695C137.991 205.723 138.231 205.698 138.455 205.621C138.68 205.544 138.884 205.417 139.053 205.25C139.222 205.084 139.351 204.881 139.43 204.657C139.494 204.423 139.518 204.149 139.716 204.003C140.02 203.787 140.429 204.079 140.802 204.114C141.544 204.19 141.97 203.326 142.455 202.771C142.749 202.442 143.125 202.197 143.546 202.062C143.966 201.927 144.414 201.906 144.845 202.002C145.276 202.097 145.673 202.306 145.996 202.607C146.319 202.907 146.556 203.288 146.683 203.711L151.087 204.879" stroke="white" stroke-linecap="round" stroke-linejoin="round"/>
<path opacity="0.4" d="M144.628 196.183C145.382 195.942 146.172 195.83 146.964 195.85C146.86 195.605 146.837 195.332 146.899 195.073C146.96 194.814 147.103 194.581 147.307 194.409C147.511 194.236 147.764 194.134 148.03 194.116C148.296 194.098 148.561 194.165 148.786 194.309C148.973 194.138 149.194 194.01 149.434 193.931C149.674 193.853 149.929 193.827 150.18 193.854C150.432 193.882 150.674 193.963 150.892 194.091C151.11 194.22 151.297 194.394 151.443 194.601L151.618 195.336C152.768 195.718 153.836 196.312 154.766 197.088" stroke="white" stroke-linecap="round" stroke-linejoin="round"/>
<path opacity="0.4" d="M156.851 201.673L158.019 202.017C157.826 201.714 158.188 201.34 158.544 201.27C158.901 201.271 159.254 201.209 159.59 201.089C159.94 200.878 160.045 200.435 160.273 200.096C160.501 199.757 161.073 199.564 161.266 199.921C161.219 199.547 161.634 199.243 162.013 199.255C162.394 199.305 162.753 199.463 163.047 199.71L166.037 201.79" stroke="white" stroke-linecap="round" stroke-linejoin="round"/>
<path d="M85.1764 235.008C85.1764 235.008 88.5578 229.033 93.002 225.483C97.4462 221.932 100.647 217.371 104.559 212.535C108.472 207.7 114.16 201.568 117.004 201.077C119.848 200.587 126.249 201.503 126.962 207.355C126.962 207.355 131.312 202.099 137.404 205.778C143.495 209.458 140.47 216.413 140.47 216.413C140.47 216.413 142.689 215.525 144.067 216.413C145.445 217.301 149.37 264.365 149.37 264.365C147.123 264.929 144.921 265.659 142.782 266.549C139.407 267.969 135.138 268.15 132.27 266.549C132.27 266.549 126.938 267.928 123.382 267.682C119.825 267.437 110.224 267.262 106.849 266.368C103.13 265.293 99.5102 263.904 96.0271 262.216C93.4869 260.767 91.3939 258.648 89.9769 256.09C88.914 253.929 86.9576 253.223 83.9325 249.578C80.9074 245.934 85.1764 235.008 85.1764 235.008Z" fill="white"/>
<path opacity="0.4" d="M144.067 216.413C142.735 215.56 140.621 216.355 140.475 216.413C140.739 215.749 140.935 215.061 141.059 214.357L137.409 222.049C137.409 222.049 131.762 229.395 129.741 232.689C127.721 235.983 129.449 236.327 126.967 241.572C124.485 246.816 120.853 256.849 117.01 257.661C113.168 258.473 105.003 255.681 103.485 251.751C101.966 247.82 105.628 245.047 110.119 239.353C114.61 233.659 116.473 231.527 116.117 228.887C115.76 226.248 124.877 210.339 125.461 209.37C125.221 209.685 123.814 211.572 122.05 213.902C122.839 212.428 123.519 210.897 124.082 209.323L115.679 205.784C115.679 205.784 107.415 214.579 111.859 217.943C114.3 219.794 116.718 219.824 118.967 217.943C117.215 220.238 115.492 222.37 114.528 223.421C111.859 226.341 111.322 229.582 110.125 231.498C108.928 233.413 104.174 241.367 100.074 244.241C95.9746 247.114 93.551 247.902 90.2105 246.104C87.9329 244.871 86.5196 238.109 85.8422 233.945C85.4159 234.616 85.1881 235.025 85.1881 235.025C85.1881 235.025 80.9249 245.946 83.95 249.59C86.9751 253.234 88.9257 253.941 89.9886 256.102C91.4073 258.65 93.4927 260.763 96.0213 262.216C99.5152 263.904 103.145 265.295 106.872 266.374C110.248 267.256 119.848 267.437 123.405 267.682C126.962 267.928 132.294 266.549 132.294 266.549C135.138 268.15 139.401 267.974 142.806 266.549C144.759 265.741 146.762 265.06 148.803 264.511C148.99 264.272 149.165 264.021 149.352 263.77C148.867 258.333 145.358 217.248 144.067 216.413Z" fill="#A0EB93"/>
<path opacity="0.4" d="M129.94 209.317C129.94 209.317 121.472 219.123 127.312 223.403C133.152 227.684 139.477 219.526 139.751 212.769L129.94 209.317Z" fill="#A0EB93"/>
<path d="M149.376 264.365L148.792 264.511C146.75 265.06 144.747 265.741 142.794 266.549C139.412 267.974 135.149 268.15 132.282 266.549C132.282 266.549 126.95 267.933 123.393 267.682C119.837 267.431 110.236 267.256 106.86 266.374C103.137 265.294 99.5114 263.903 96.0213 262.216C93.4861 260.76 91.3962 258.64 89.9769 256.084C88.914 253.923 86.9576 253.223 83.9383 249.573C80.919 245.923 85.1764 235.008 85.1764 235.008C85.1764 235.008 85.4042 234.599 85.8305 233.927C86.9985 232.041 89.7199 228.087 93.002 225.483C97.4463 221.92 100.647 217.371 104.559 212.535C108.472 207.7 114.16 201.568 117.004 201.077C119.848 200.587 126.249 201.503 126.962 207.355C126.962 207.355 131.312 202.099 137.404 205.778C141.392 208.202 141.492 212.015 141.054 214.351C140.929 215.055 140.734 215.744 140.47 216.407C140.616 216.355 142.73 215.56 144.061 216.407C145.393 217.254 148.862 258.327 149.317 263.764C149.352 264.155 149.376 264.365 149.376 264.365Z" stroke="#263238" stroke-linecap="round" stroke-linejoin="round"/>
<path d="M126.962 207.355C125.005 208.944 114.336 229.08 112.362 231.48C110.388 233.88 104.892 240.719 102.492 243.236C100.801 245.154 99.3655 247.284 98.223 249.572C96.6923 251.111 95.0444 252.529 93.294 253.812" stroke="#263238" stroke-linecap="round" stroke-linejoin="round"/>
<path d="M140.47 216.413C138.739 219.344 137.179 222.372 135.798 225.482C134.046 229.611 129.041 240.147 126.956 244.17C124.871 248.194 121.53 257.369 119.13 258.841C116.73 260.312 113.261 263.641 111.129 263.372" stroke="#263238" stroke-linecap="round" stroke-linejoin="round"/>
<path d="M113.004 264.552C113.004 264.552 112.42 263.244 113.004 262.94" stroke="#263238" stroke-linecap="round" stroke-linejoin="round"/>
<path d="M133.794 265.194C133.794 265.194 138.601 260.598 139.266 257.24C139.932 253.882 149.37 227.456 149.37 227.456" stroke="#263238" stroke-linecap="round" stroke-linejoin="round"/>
<path d="M115.667 205.778C115.667 205.778 121.139 205.422 124.071 209.317C124.071 209.317 119.667 220.279 114.336 217.493C109.004 214.708 115.667 205.778 115.667 205.778Z" fill="white" stroke="#263238" stroke-linecap="round" stroke-linejoin="round"/>
<path d="M129.94 209.317C129.94 209.317 135.435 209.125 139.751 212.769C139.751 212.769 136.872 225.079 129.94 223.211C123.008 221.342 127.668 213.289 129.94 209.317Z" fill="white" stroke="#263238" stroke-linecap="round" stroke-linejoin="round"/>
<path d="M141.807 219.835C141.807 219.835 138.735 224.46 139.138 227.836C139.541 231.212 144.067 230.587 144.067 230.587" stroke="#263238" stroke-linecap="round" stroke-linejoin="round"/>
<path d="M118.867 231.48C118.867 231.48 122.64 234.272 126.29 235.013" stroke="#263238" stroke-linecap="round" stroke-linejoin="round"/>
<path d="M87.2671 236.549C87.2671 236.549 87.8044 242.973 89.1359 245.216C90.4674 247.458 99.4318 247.347 99.4318 247.347" stroke="#263238" stroke-linecap="round" stroke-linejoin="round"/>
<path d="M101.669 251.745C103.154 254.368 105.446 256.443 108.204 257.661C112.876 259.746 116.111 258.829 116.111 258.829" stroke="#263238" stroke-linecap="round" stroke-linejoin="round"/>
<path d="M124.071 261.077C124.071 261.077 131.137 264.318 135.406 261.766" stroke="#263238" stroke-linecap="round" stroke-linejoin="round"/>
<path d="M104.337 220.921C104.337 220.921 105.844 224.425 108.893 225.231" stroke="#263238" stroke-linecap="round" stroke-linejoin="round"/>
<path d="M133.794 243.236C135.292 244.472 137.162 245.169 139.103 245.216" stroke="#263238" stroke-linecap="round" stroke-linejoin="round"/>
<path d="M201.276 247.079C201.276 247.079 197.007 254.811 192.475 256.948C187.943 259.086 184.205 258.286 181.542 259.868C178.879 261.451 174.342 262.269 168.21 263.337C162.078 264.406 155.899 265.738 151.519 264.938C150.002 264.647 148.538 264.132 147.174 263.407C144.228 261.778 141.559 259.693 139.266 257.229C137.088 254.992 137.275 251.389 138.741 248.959C139.059 248.368 139.494 247.848 140.02 247.431C140.547 247.014 141.153 246.71 141.801 246.536C141.801 246.536 140.335 245.368 138.682 243.89C136.89 242.29 134.892 240.316 134.343 239.066C133.269 236.666 133.537 232.403 137.263 228.665C138.335 227.577 139.626 226.729 141.051 226.178C142.476 225.628 144.002 225.386 145.527 225.471C145.527 225.471 139.815 220.799 142.058 215.333C142.87 213.359 144.318 210.748 148.727 210.001C155.04 208.932 158.597 212.535 158.597 212.535C158.597 212.535 157.598 206.275 163.964 204.943C170.329 203.612 184.205 213.744 186.88 215.081C188.801 216.039 191.815 218.235 194.647 219.981L195.325 220.402C196.107 220.869 196.872 221.295 197.579 221.634C200.878 224.034 201.877 227.824 203.542 228.881C204.011 229.146 204.546 229.271 205.084 229.242C205.622 229.213 206.14 229.031 206.578 228.718C206.689 228.887 206.794 229.051 206.882 229.208C208.208 231.609 211.408 241.776 201.276 247.079Z" fill="white"/>
<path opacity="0.4" d="M201.276 247.079C201.276 247.079 197.007 254.811 192.475 256.948C187.943 259.086 184.205 258.286 181.542 259.868C178.879 261.451 174.342 262.269 168.21 263.337C162.078 264.406 155.899 265.738 151.519 264.937C150.002 264.647 148.538 264.132 147.174 263.407C150.485 263.156 153.014 261.498 154.182 259.01C155.648 255.926 151.291 255.693 150.246 257.643C149.2 259.594 142.94 258.893 144.044 257.643C145.147 256.394 142.94 249.999 141.778 249.14C141.281 248.761 140.026 248.796 138.718 248.959C139.035 248.368 139.471 247.848 139.997 247.431C140.523 247.014 141.129 246.71 141.778 246.536C141.778 246.536 140.312 245.368 138.659 243.89L142.747 246.314C142.747 246.314 151.507 253.906 156.29 257.643C161.073 261.381 170.143 260.493 172.525 257.643C174.908 254.793 164.098 245.917 160.723 243.219C157.452 240.614 156.01 236.251 155.928 235.983C156.214 236.251 165.062 244.819 169.944 250.536C174.931 256.376 180.129 254.624 185.776 251.99C191.424 249.356 188.264 241.823 186.46 240.03C184.655 238.237 176.707 231.334 175.457 229.238C174.207 227.141 165.529 219.736 164.945 219.269C165.529 219.654 175.136 225.874 176.514 227.445C177.892 229.016 181.496 231.533 186.845 235.352C192.194 239.171 196.253 243.604 200.207 235.352C202.922 229.676 197.958 223.363 194.595 219.969L195.272 220.39C196.055 220.857 196.82 221.283 197.526 221.622C200.826 224.022 201.825 227.813 203.489 228.87C203.958 229.134 204.493 229.259 205.031 229.23C205.569 229.201 206.088 229.019 206.526 228.706C206.637 228.875 206.742 229.039 206.829 229.197C208.208 231.609 211.408 241.776 201.276 247.079Z" fill="#A0EB93"/>
<path opacity="0.4" d="M147.168 222.656C147.922 220.803 149.098 219.152 150.603 217.834C152.107 216.516 153.899 215.567 155.835 215.064C155.835 215.064 162.37 219.596 162.37 223.328C162.37 227.059 159.852 229.95 155.18 228.508C150.508 227.065 147.168 222.656 147.168 222.656Z" fill="#A0EB93"/>
<path opacity="0.4" d="M162.872 213.218C162.872 213.218 165.546 209.75 169.675 208.687C169.675 208.687 178.278 215.222 175.042 218.685C171.807 222.148 164.203 217.75 162.872 213.218Z" fill="#A0EB93"/>
<path opacity="0.4" d="M138.285 238.938C138.285 238.938 141.579 233.787 146.42 232.403C146.42 232.403 156.424 238.05 151.355 242.494C146.286 246.939 139.488 241.338 138.285 238.938Z" fill="#A0EB93"/>
<path d="M201.276 247.079C201.276 247.079 197.007 254.811 192.475 256.948C187.943 259.086 184.205 258.286 181.542 259.868C178.879 261.451 174.342 262.269 168.21 263.337C162.078 264.406 155.899 265.738 151.519 264.938C147.139 264.137 143.01 261.066 139.255 257.229C135.973 253.853 138.058 247.342 141.789 246.536C141.789 246.536 135.395 241.467 134.332 239.066C133.269 236.666 133.526 232.403 137.252 228.665C138.324 227.577 139.615 226.729 141.04 226.178C142.464 225.628 143.99 225.386 145.515 225.471C145.515 225.471 139.804 220.799 142.046 215.333C142.858 213.359 144.306 210.748 148.716 210.001C155.029 208.932 158.585 212.535 158.585 212.535C158.585 212.535 157.587 206.275 163.952 204.943C170.318 203.612 184.205 213.744 186.88 215.081C188.953 216.121 192.311 218.585 195.325 220.402C196.107 220.869 196.872 221.295 197.579 221.634C200.878 224.034 201.877 227.824 203.542 228.881C204.011 229.146 204.546 229.271 205.084 229.242C205.622 229.213 206.14 229.031 206.578 228.718C206.689 228.887 206.794 229.051 206.882 229.208C208.208 231.609 211.408 241.776 201.276 247.079Z" stroke="#263238" stroke-linecap="round" stroke-linejoin="round"/>
<path d="M158.603 212.576C159.496 214.632 167.608 221.92 171.112 224.057C174.616 226.195 184.386 236.859 187.23 238.272C190.074 239.685 192.562 244.141 195.938 245.21" stroke="#263238" stroke-linecap="round" stroke-linejoin="round"/>
<path d="M145.539 225.482C150.427 229.57 155.94 236.503 158.603 238.459C161.266 240.415 167.316 247.172 169.985 250.548C172.654 253.923 174.429 256.236 184.918 257.661" stroke="#263238" stroke-linecap="round" stroke-linejoin="round"/>
<path d="M188.632 247.347C188.632 247.347 187.925 253.771 178.12 254.992" stroke="#263238" stroke-linecap="round" stroke-linejoin="round"/>
<path d="M200.388 228.881C200.388 228.881 203.051 236.503 195.938 239.347" stroke="#263238" stroke-linecap="round" stroke-linejoin="round"/>
<path d="M141.807 246.547C141.807 246.547 148.704 252.323 151.519 253.923C154.334 255.523 158.071 259.792 160.915 260.68C162.776 261.195 164.742 261.195 166.604 260.68" stroke="#263238" stroke-linecap="round" stroke-linejoin="round"/>
<path d="M173.974 254.513C173.24 255.743 172.267 256.814 171.112 257.661" stroke="#263238" stroke-linecap="round" stroke-linejoin="round"/>
<path d="M145.539 221.611C146.29 219.756 147.465 218.103 148.97 216.785C150.475 215.467 152.268 214.519 154.205 214.019C154.205 214.019 160.74 218.55 160.74 222.288C160.74 226.026 158.217 228.905 153.545 227.462C148.873 226.02 145.539 221.611 145.539 221.611Z" fill="white" stroke="#263238" stroke-linecap="round" stroke-linejoin="round"/>
<path d="M161.803 212.576C161.803 212.576 164.478 209.107 168.607 208.038C168.607 208.038 177.215 214.573 173.974 218.042C170.732 221.511 163.14 217.079 161.803 212.576Z" fill="white" stroke="#263238" stroke-linecap="round" stroke-linejoin="round"/>
<path d="M137.404 238.015C137.404 238.015 140.691 232.858 145.539 231.48C145.539 231.48 155.537 237.127 150.473 241.572C145.41 246.016 138.607 240.415 137.404 238.015Z" fill="white" stroke="#263238" stroke-linecap="round" stroke-linejoin="round"/>
<path d="M139.751 254.741C139.751 254.741 144.388 253.801 145.527 249.573C145.527 249.573 150.269 253.234 147.536 256.084C143.518 260.283 139.751 254.741 139.751 254.741Z" fill="white" stroke="#263238" stroke-linecap="round" stroke-linejoin="round"/>
<path d="M180.339 226.68C181.152 226.229 181.851 225.599 182.383 224.837C182.914 224.074 183.264 223.201 183.405 222.282" stroke="#263238" stroke-linecap="round" stroke-linejoin="round"/>
<path d="M171.941 231.48C171.941 231.48 170.908 237.32 165.225 238.278" stroke="#263238" stroke-linecap="round" stroke-linejoin="round"/>
<path d="M157.68 245.216C157.68 245.216 155.344 248.597 151.91 249.572" stroke="#263238" stroke-linecap="round" stroke-linejoin="round"/>
<path d="M159.782 260.184C158.822 261.577 157.491 262.673 155.94 263.349" stroke="#263238" stroke-linecap="round" stroke-linejoin="round"/>
<path d="M163.976 261.077C164.036 261.476 164.015 261.882 163.915 262.273C163.814 262.663 163.636 263.029 163.392 263.349" stroke="#263238" stroke-linecap="round" stroke-linejoin="round"/>
<path d="M147.407 262.216C148.557 262.12 149.669 261.765 150.661 261.177C151.654 260.589 152.5 259.785 153.136 258.823" stroke="#263238" stroke-linecap="round" stroke-linejoin="round"/>
</svg>
