<svg width="126" height="164" viewBox="0 0 126 164" fill="none" xmlns="http://www.w3.org/2000/svg">
<g clip-path="url(#clip0_1523_3770)">
<path d="M114.197 82.1569L113.399 83.8411C104.049 103.695 86.657 114.632 64.4228 114.632C42.5373 114.642 22.2623 101.637 12.7976 81.5169C9.84491 75.2482 8.52717 64.0379 8.26572 55.637L8.16811 52.3089C11.2693 48.075 15.274 44.5327 19.9121 41.9209C24.5502 39.3092 29.7139 37.6887 35.055 37.1687C40.3962 36.6486 45.7907 37.2412 50.8748 38.9064C55.9588 40.5715 60.6144 43.2706 64.5274 46.8217C67.9208 51.4443 72.3873 55.2349 77.5693 57.8897C82.7513 60.5446 88.5046 61.99 94.3686 62.1102C100.233 62.2303 106.044 61.0219 111.338 58.5817C116.632 56.1415 121.261 52.5374 124.854 48.0579C122.033 35.2985 115.036 23.7555 104.899 15.1373C94.7608 6.51904 82.0209 1.2835 68.5643 0.205478C66.8561 0.0684939 65.134 1.7794e-06 63.3979 1.7794e-06C46.8007 -0.00387833 30.8762 6.33801 19.1017 17.6408C7.32725 28.9436 0.659513 44.2889 0.554532 60.3259L0.300049 61.0568V61.5655C0.505727 68.8414 1.20294 78.2124 4.83194 86.2024C15.2274 109.162 38.5109 124 64.1439 124C89.777 124 113.064 109.162 123.459 86.2024L125.293 82.1603L114.197 82.1569Z" fill="#00A500"/>
<path d="M91.4086 38.0941C84.6737 30.3712 75.6443 24.8357 65.5442 22.238C55.4441 19.6402 44.7617 20.1057 34.9446 23.5713C25.1274 27.037 16.6504 33.3353 10.6622 41.6126C4.67403 49.8899 1.46429 59.7461 1.46799 69.8453C1.46799 70.1821 1.46799 70.492 1.46799 70.812C1.33901 69.3905 1.26929 67.9522 1.26929 66.497C1.26981 56.3346 4.59658 46.4328 10.7737 38.208C16.9508 29.9831 25.6617 23.8567 35.6604 20.7052C45.659 17.5536 56.433 17.5384 66.4412 20.6617C76.4493 23.785 85.1787 29.8867 91.3807 38.0941H91.4086Z" fill="#6FE81E"/>
</g>
<mask id="path-3-outside-1_1523_3770" maskUnits="userSpaceOnUse" x="-0.699951" y="145" width="124" height="16" fill="black">
<rect fill="white" x="-0.699951" y="145" width="124" height="16"/>
<path d="M6.30005 156.8C7.32405 156.8 8.22805 156.528 9.01205 155.984C9.79605 155.44 10.372 154.712 10.74 153.8H12.06C11.852 154.408 11.556 154.968 11.172 155.48C10.804 155.992 10.364 156.432 9.85205 156.8C9.35605 157.168 8.80405 157.464 8.19605 157.688C7.58805 157.896 6.95605 158 6.30005 158C5.45205 158 4.66005 157.848 3.92405 157.544C3.20405 157.224 2.57205 156.8 2.02805 156.272C1.50005 155.728 1.07605 155.096 0.756049 154.376C0.452049 153.64 0.300049 152.848 0.300049 152C0.300049 151.168 0.452049 150.384 0.756049 149.648C1.07605 148.912 1.50005 148.28 2.02805 147.752C2.57205 147.208 3.20405 146.784 3.92405 146.48C4.66005 146.16 5.45205 146 6.30005 146C7.13205 146 7.91605 146.16 8.65205 146.48C9.38805 146.784 10.02 147.208 10.548 147.752C11.092 148.28 11.516 148.912 11.82 149.648C12.14 150.384 12.3 151.168 12.3 152V152.6H10.14H1.50005C1.59605 153.208 1.78005 153.768 2.05205 154.28C2.34005 154.792 2.70005 155.232 3.13205 155.6C3.56405 155.968 4.04405 156.264 4.57205 156.488C5.11605 156.696 5.69205 156.8 6.30005 156.8ZM6.30005 147.2C5.69205 147.2 5.11605 147.312 4.57205 147.536C4.04405 147.744 3.56405 148.032 3.13205 148.4C2.70005 148.768 2.34005 149.216 2.05205 149.744C1.78005 150.256 1.59605 150.808 1.50005 151.4H11.1C11.004 150.808 10.812 150.256 10.524 149.744C10.252 149.216 9.90005 148.768 9.46805 148.4C9.03605 148.032 8.54805 147.744 8.00405 147.536C7.46005 147.312 6.89205 147.2 6.30005 147.2ZM22.1297 156.8C22.7057 156.8 23.2417 156.712 23.7377 156.536C24.2337 156.344 24.6817 156.088 25.0817 155.768C25.4977 155.448 25.8497 155.072 26.1377 154.64C26.4417 154.192 26.6657 153.712 26.8097 153.2H28.0097C27.8657 153.888 27.6097 154.528 27.2417 155.12C26.8737 155.696 26.4337 156.2 25.9217 156.632C25.4097 157.064 24.8257 157.4 24.1697 157.64C23.5297 157.88 22.8497 158 22.1297 158C21.2817 158 20.4897 157.848 19.7537 157.544C19.0337 157.224 18.4017 156.8 17.8577 156.272C17.3297 155.728 16.9057 155.096 16.5857 154.376C16.2817 153.64 16.1297 152.848 16.1297 152C16.1297 151.168 16.2817 150.384 16.5857 149.648C16.9057 148.912 17.3297 148.28 17.8577 147.752C18.4017 147.208 19.0337 146.784 19.7537 146.48C20.4897 146.16 21.2817 146 22.1297 146C22.8497 146 23.5297 146.12 24.1697 146.36C24.8257 146.6 25.4097 146.936 25.9217 147.368C26.4337 147.8 26.8737 148.312 27.2417 148.904C27.6097 149.48 27.8657 150.112 28.0097 150.8H26.8097C26.6657 150.288 26.4417 149.816 26.1377 149.384C25.8497 148.936 25.4977 148.552 25.0817 148.232C24.6817 147.912 24.2337 147.664 23.7377 147.488C23.2417 147.296 22.7057 147.2 22.1297 147.2C21.4737 147.2 20.8497 147.328 20.2577 147.584C19.6817 147.84 19.1777 148.184 18.7457 148.616C18.3137 149.048 17.9697 149.56 17.7137 150.152C17.4577 150.728 17.3297 151.344 17.3297 152C17.3297 152.656 17.4577 153.28 17.7137 153.872C17.9697 154.448 18.3137 154.952 18.7457 155.384C19.1777 155.816 19.6817 156.16 20.2577 156.416C20.8497 156.672 21.4737 156.8 22.1297 156.8ZM37.8422 146C38.6582 146 39.4262 146.16 40.1462 146.48C40.8662 146.784 41.4982 147.208 42.0422 147.752C42.6022 148.28 43.0422 148.912 43.3622 149.648C43.6822 150.384 43.8422 151.168 43.8422 152C43.8422 152.848 43.6822 153.64 43.3622 154.376C43.0422 155.096 42.6022 155.728 42.0422 156.272C41.4982 156.8 40.8662 157.224 40.1462 157.544C39.4262 157.848 38.6582 158 37.8422 158C36.9942 158 36.2022 157.848 35.4662 157.544C34.7462 157.224 34.1142 156.8 33.5702 156.272C33.0422 155.728 32.6182 155.096 32.2982 154.376C31.9942 153.64 31.8422 152.848 31.8422 152C31.8422 151.168 31.9942 150.384 32.2982 149.648C32.6182 148.912 33.0422 148.28 33.5702 147.752C34.1142 147.208 34.7462 146.784 35.4662 146.48C36.2022 146.16 36.9942 146 37.8422 146ZM37.8422 156.8C38.4982 156.8 39.1142 156.672 39.6902 156.416C40.2822 156.16 40.7942 155.816 41.2262 155.384C41.6582 154.952 42.0022 154.448 42.2582 153.872C42.5142 153.28 42.6422 152.656 42.6422 152C42.6422 151.344 42.5142 150.728 42.2582 150.152C42.0022 149.56 41.6582 149.048 41.2262 148.616C40.7942 148.184 40.2822 147.84 39.6902 147.584C39.1142 147.328 38.4982 147.2 37.8422 147.2C37.1862 147.2 36.5622 147.328 35.9702 147.584C35.3942 147.84 34.8902 148.184 34.4582 148.616C34.0262 149.048 33.6822 149.56 33.4262 150.152C33.1702 150.728 33.0422 151.344 33.0422 152C33.0422 152.656 33.1702 153.28 33.4262 153.872C33.6822 154.448 34.0262 154.952 34.4582 155.384C34.8902 155.816 35.3942 156.16 35.9702 156.416C36.5622 156.672 37.1862 156.8 37.8422 156.8ZM51.0319 147.2C50.4239 147.2 49.9119 147.392 49.4959 147.776C49.0799 148.144 48.8719 148.632 48.8719 149.24C48.8719 149.848 49.0799 150.36 49.4959 150.776C49.9119 151.192 50.4239 151.4 51.0319 151.4H53.6719H56.4319C56.8799 151.4 57.2959 151.488 57.6799 151.664C58.0799 151.824 58.4239 152.056 58.7119 152.36C59.0159 152.648 59.2479 152.992 59.4079 153.392C59.5839 153.776 59.6719 154.192 59.6719 154.64C59.6719 155.088 59.5839 155.52 59.4079 155.936C59.2479 156.336 59.0159 156.688 58.7119 156.992C58.4239 157.296 58.0799 157.544 57.6799 157.736C57.2959 157.912 56.8799 158 56.4319 158H47.6719V156.8H56.4319C56.9759 156.8 57.4479 156.592 57.8479 156.176C58.2639 155.76 58.4719 155.248 58.4719 154.64C58.4719 154.032 58.2639 153.544 57.8479 153.176C57.4479 152.792 56.9759 152.6 56.4319 152.6H53.6719H51.0319C50.5519 152.6 50.1039 152.512 49.6879 152.336C49.2879 152.144 48.9359 151.896 48.6319 151.592C48.3279 151.288 48.0879 150.936 47.9119 150.536C47.7519 150.12 47.6719 149.688 47.6719 149.24C47.6719 148.792 47.7519 148.376 47.9119 147.992C48.0879 147.592 48.3279 147.248 48.6319 146.96C48.9359 146.656 49.2879 146.424 49.6879 146.264C50.1039 146.088 50.5519 146 51.0319 146H59.6719V147.2H51.0319ZM75.5016 152C75.5016 152.848 75.3416 153.64 75.0216 154.376C74.7016 155.096 74.2616 155.728 73.7016 156.272C73.1576 156.8 72.5256 157.224 71.8056 157.544C71.0856 157.848 70.3176 158 69.5016 158C68.4776 158 67.5576 157.784 66.7416 157.352C65.9256 156.904 65.2456 156.32 64.7016 155.6V160.16H63.5016V152C63.5016 151.168 63.6536 150.384 63.9576 149.648C64.2776 148.912 64.7016 148.28 65.2296 147.752C65.7736 147.208 66.4056 146.784 67.1256 146.48C67.8616 146.16 68.6536 146 69.5016 146C70.3176 146 71.0856 146.16 71.8056 146.48C72.5256 146.784 73.1576 147.208 73.7016 147.752C74.2616 148.28 74.7016 148.912 75.0216 149.648C75.3416 150.384 75.5016 151.168 75.5016 152ZM74.3016 152C74.3016 151.344 74.1736 150.728 73.9176 150.152C73.6616 149.56 73.3176 149.048 72.8856 148.616C72.4536 148.184 71.9416 147.84 71.3496 147.584C70.7736 147.328 70.1576 147.2 69.5016 147.2C68.8456 147.2 68.2216 147.328 67.6296 147.584C67.0536 147.84 66.5496 148.184 66.1176 148.616C65.6856 149.048 65.3416 149.56 65.0856 150.152C64.8296 150.728 64.7016 151.344 64.7016 152C64.7016 152.656 64.8296 153.28 65.0856 153.872C65.3416 154.448 65.6856 154.952 66.1176 155.384C66.5496 155.816 67.0536 156.16 67.6296 156.416C68.2216 156.672 68.8456 156.8 69.5016 156.8C70.1576 156.8 70.7736 156.672 71.3496 156.416C71.9416 156.16 72.4536 155.816 72.8856 155.384C73.3176 154.952 73.6616 154.448 73.9176 153.872C74.1736 153.28 74.3016 152.656 74.3016 152ZM85.3313 146C86.1633 146 86.9473 146.16 87.6833 146.48C88.4193 146.784 89.0513 147.208 89.5793 147.752C90.1233 148.28 90.5473 148.912 90.8513 149.648C91.1713 150.384 91.3313 151.168 91.3313 152V158H90.1313V155.6C89.5873 156.32 88.8913 156.904 88.0433 157.352C87.1953 157.784 86.2913 158 85.3313 158C84.4833 158 83.6913 157.848 82.9553 157.544C82.2353 157.224 81.6033 156.8 81.0593 156.272C80.5313 155.728 80.1073 155.096 79.7873 154.376C79.4833 153.64 79.3313 152.848 79.3313 152C79.3313 151.168 79.4833 150.384 79.7873 149.648C80.1073 148.912 80.5313 148.28 81.0593 147.752C81.6033 147.208 82.2353 146.784 82.9553 146.48C83.6913 146.16 84.4833 146 85.3313 146ZM85.3313 156.8C85.9873 156.8 86.6033 156.672 87.1793 156.416C87.7713 156.16 88.2833 155.816 88.7153 155.384C89.1473 154.952 89.4913 154.448 89.7473 153.872C90.0033 153.28 90.1313 152.656 90.1313 152C90.1313 151.344 90.0033 150.728 89.7473 150.152C89.4913 149.56 89.1473 149.048 88.7153 148.616C88.2833 148.184 87.7713 147.84 87.1793 147.584C86.6033 147.328 85.9873 147.2 85.3313 147.2C84.6753 147.2 84.0513 147.328 83.4593 147.584C82.8833 147.84 82.3793 148.184 81.9473 148.616C81.5153 149.048 81.1713 149.56 80.9153 150.152C80.6593 150.728 80.5313 151.344 80.5313 152C80.5313 152.656 80.6593 153.28 80.9153 153.872C81.1713 154.448 81.5153 154.952 81.9473 155.384C82.3793 155.816 82.8833 156.16 83.4593 156.416C84.0513 156.672 84.6753 156.8 85.3313 156.8ZM101.161 156.8C101.737 156.8 102.273 156.712 102.769 156.536C103.265 156.344 103.713 156.088 104.113 155.768C104.529 155.448 104.881 155.072 105.169 154.64C105.473 154.192 105.697 153.712 105.841 153.2H107.041C106.897 153.888 106.641 154.528 106.273 155.12C105.905 155.696 105.465 156.2 104.953 156.632C104.441 157.064 103.857 157.4 103.201 157.64C102.561 157.88 101.881 158 101.161 158C100.313 158 99.521 157.848 98.785 157.544C98.065 157.224 97.433 156.8 96.889 156.272C96.361 155.728 95.937 155.096 95.617 154.376C95.313 153.64 95.161 152.848 95.161 152C95.161 151.168 95.313 150.384 95.617 149.648C95.937 148.912 96.361 148.28 96.889 147.752C97.433 147.208 98.065 146.784 98.785 146.48C99.521 146.16 100.313 146 101.161 146C101.881 146 102.561 146.12 103.201 146.36C103.857 146.6 104.441 146.936 104.953 147.368C105.465 147.8 105.905 148.312 106.273 148.904C106.641 149.48 106.897 150.112 107.041 150.8H105.841C105.697 150.288 105.473 149.816 105.169 149.384C104.881 148.936 104.529 148.552 104.113 148.232C103.713 147.912 103.265 147.664 102.769 147.488C102.273 147.296 101.737 147.2 101.161 147.2C100.505 147.2 99.881 147.328 99.289 147.584C98.713 147.84 98.209 148.184 97.777 148.616C97.345 149.048 97.001 149.56 96.745 150.152C96.489 150.728 96.361 151.344 96.361 152C96.361 152.656 96.489 153.28 96.745 153.872C97.001 154.448 97.345 154.952 97.777 155.384C98.209 155.816 98.713 156.16 99.289 156.416C99.881 156.672 100.505 156.8 101.161 156.8ZM116.873 156.8C117.897 156.8 118.801 156.528 119.585 155.984C120.369 155.44 120.945 154.712 121.313 153.8H122.633C122.425 154.408 122.129 154.968 121.745 155.48C121.377 155.992 120.937 156.432 120.425 156.8C119.929 157.168 119.377 157.464 118.769 157.688C118.161 157.896 117.529 158 116.873 158C116.025 158 115.233 157.848 114.497 157.544C113.777 157.224 113.145 156.8 112.601 156.272C112.073 155.728 111.649 155.096 111.329 154.376C111.025 153.64 110.873 152.848 110.873 152C110.873 151.168 111.025 150.384 111.329 149.648C111.649 148.912 112.073 148.28 112.601 147.752C113.145 147.208 113.777 146.784 114.497 146.48C115.233 146.16 116.025 146 116.873 146C117.705 146 118.489 146.16 119.225 146.48C119.961 146.784 120.593 147.208 121.121 147.752C121.665 148.28 122.089 148.912 122.393 149.648C122.713 150.384 122.873 151.168 122.873 152V152.6H120.713H112.073C112.169 153.208 112.353 153.768 112.625 154.28C112.913 154.792 113.273 155.232 113.705 155.6C114.137 155.968 114.617 156.264 115.145 156.488C115.689 156.696 116.265 156.8 116.873 156.8ZM116.873 147.2C116.265 147.2 115.689 147.312 115.145 147.536C114.617 147.744 114.137 148.032 113.705 148.4C113.273 148.768 112.913 149.216 112.625 149.744C112.353 150.256 112.169 150.808 112.073 151.4H121.673C121.577 150.808 121.385 150.256 121.097 149.744C120.825 149.216 120.473 148.768 120.041 148.4C119.609 148.032 119.121 147.744 118.577 147.536C118.033 147.312 117.465 147.2 116.873 147.2Z"/>
</mask>
<path d="M6.30005 156.8C7.32405 156.8 8.22805 156.528 9.01205 155.984C9.79605 155.44 10.372 154.712 10.74 153.8H12.06C11.852 154.408 11.556 154.968 11.172 155.48C10.804 155.992 10.364 156.432 9.85205 156.8C9.35605 157.168 8.80405 157.464 8.19605 157.688C7.58805 157.896 6.95605 158 6.30005 158C5.45205 158 4.66005 157.848 3.92405 157.544C3.20405 157.224 2.57205 156.8 2.02805 156.272C1.50005 155.728 1.07605 155.096 0.756049 154.376C0.452049 153.64 0.300049 152.848 0.300049 152C0.300049 151.168 0.452049 150.384 0.756049 149.648C1.07605 148.912 1.50005 148.28 2.02805 147.752C2.57205 147.208 3.20405 146.784 3.92405 146.48C4.66005 146.16 5.45205 146 6.30005 146C7.13205 146 7.91605 146.16 8.65205 146.48C9.38805 146.784 10.02 147.208 10.548 147.752C11.092 148.28 11.516 148.912 11.82 149.648C12.14 150.384 12.3 151.168 12.3 152V152.6H10.14H1.50005C1.59605 153.208 1.78005 153.768 2.05205 154.28C2.34005 154.792 2.70005 155.232 3.13205 155.6C3.56405 155.968 4.04405 156.264 4.57205 156.488C5.11605 156.696 5.69205 156.8 6.30005 156.8ZM6.30005 147.2C5.69205 147.2 5.11605 147.312 4.57205 147.536C4.04405 147.744 3.56405 148.032 3.13205 148.4C2.70005 148.768 2.34005 149.216 2.05205 149.744C1.78005 150.256 1.59605 150.808 1.50005 151.4H11.1C11.004 150.808 10.812 150.256 10.524 149.744C10.252 149.216 9.90005 148.768 9.46805 148.4C9.03605 148.032 8.54805 147.744 8.00405 147.536C7.46005 147.312 6.89205 147.2 6.30005 147.2ZM22.1297 156.8C22.7057 156.8 23.2417 156.712 23.7377 156.536C24.2337 156.344 24.6817 156.088 25.0817 155.768C25.4977 155.448 25.8497 155.072 26.1377 154.64C26.4417 154.192 26.6657 153.712 26.8097 153.2H28.0097C27.8657 153.888 27.6097 154.528 27.2417 155.12C26.8737 155.696 26.4337 156.2 25.9217 156.632C25.4097 157.064 24.8257 157.4 24.1697 157.64C23.5297 157.88 22.8497 158 22.1297 158C21.2817 158 20.4897 157.848 19.7537 157.544C19.0337 157.224 18.4017 156.8 17.8577 156.272C17.3297 155.728 16.9057 155.096 16.5857 154.376C16.2817 153.64 16.1297 152.848 16.1297 152C16.1297 151.168 16.2817 150.384 16.5857 149.648C16.9057 148.912 17.3297 148.28 17.8577 147.752C18.4017 147.208 19.0337 146.784 19.7537 146.48C20.4897 146.16 21.2817 146 22.1297 146C22.8497 146 23.5297 146.12 24.1697 146.36C24.8257 146.6 25.4097 146.936 25.9217 147.368C26.4337 147.8 26.8737 148.312 27.2417 148.904C27.6097 149.48 27.8657 150.112 28.0097 150.8H26.8097C26.6657 150.288 26.4417 149.816 26.1377 149.384C25.8497 148.936 25.4977 148.552 25.0817 148.232C24.6817 147.912 24.2337 147.664 23.7377 147.488C23.2417 147.296 22.7057 147.2 22.1297 147.2C21.4737 147.2 20.8497 147.328 20.2577 147.584C19.6817 147.84 19.1777 148.184 18.7457 148.616C18.3137 149.048 17.9697 149.56 17.7137 150.152C17.4577 150.728 17.3297 151.344 17.3297 152C17.3297 152.656 17.4577 153.28 17.7137 153.872C17.9697 154.448 18.3137 154.952 18.7457 155.384C19.1777 155.816 19.6817 156.16 20.2577 156.416C20.8497 156.672 21.4737 156.8 22.1297 156.8ZM37.8422 146C38.6582 146 39.4262 146.16 40.1462 146.48C40.8662 146.784 41.4982 147.208 42.0422 147.752C42.6022 148.28 43.0422 148.912 43.3622 149.648C43.6822 150.384 43.8422 151.168 43.8422 152C43.8422 152.848 43.6822 153.64 43.3622 154.376C43.0422 155.096 42.6022 155.728 42.0422 156.272C41.4982 156.8 40.8662 157.224 40.1462 157.544C39.4262 157.848 38.6582 158 37.8422 158C36.9942 158 36.2022 157.848 35.4662 157.544C34.7462 157.224 34.1142 156.8 33.5702 156.272C33.0422 155.728 32.6182 155.096 32.2982 154.376C31.9942 153.64 31.8422 152.848 31.8422 152C31.8422 151.168 31.9942 150.384 32.2982 149.648C32.6182 148.912 33.0422 148.28 33.5702 147.752C34.1142 147.208 34.7462 146.784 35.4662 146.48C36.2022 146.16 36.9942 146 37.8422 146ZM37.8422 156.8C38.4982 156.8 39.1142 156.672 39.6902 156.416C40.2822 156.16 40.7942 155.816 41.2262 155.384C41.6582 154.952 42.0022 154.448 42.2582 153.872C42.5142 153.28 42.6422 152.656 42.6422 152C42.6422 151.344 42.5142 150.728 42.2582 150.152C42.0022 149.56 41.6582 149.048 41.2262 148.616C40.7942 148.184 40.2822 147.84 39.6902 147.584C39.1142 147.328 38.4982 147.2 37.8422 147.2C37.1862 147.2 36.5622 147.328 35.9702 147.584C35.3942 147.84 34.8902 148.184 34.4582 148.616C34.0262 149.048 33.6822 149.56 33.4262 150.152C33.1702 150.728 33.0422 151.344 33.0422 152C33.0422 152.656 33.1702 153.28 33.4262 153.872C33.6822 154.448 34.0262 154.952 34.4582 155.384C34.8902 155.816 35.3942 156.16 35.9702 156.416C36.5622 156.672 37.1862 156.8 37.8422 156.8ZM51.0319 147.2C50.4239 147.2 49.9119 147.392 49.4959 147.776C49.0799 148.144 48.8719 148.632 48.8719 149.24C48.8719 149.848 49.0799 150.36 49.4959 150.776C49.9119 151.192 50.4239 151.4 51.0319 151.4H53.6719H56.4319C56.8799 151.4 57.2959 151.488 57.6799 151.664C58.0799 151.824 58.4239 152.056 58.7119 152.36C59.0159 152.648 59.2479 152.992 59.4079 153.392C59.5839 153.776 59.6719 154.192 59.6719 154.64C59.6719 155.088 59.5839 155.52 59.4079 155.936C59.2479 156.336 59.0159 156.688 58.7119 156.992C58.4239 157.296 58.0799 157.544 57.6799 157.736C57.2959 157.912 56.8799 158 56.4319 158H47.6719V156.8H56.4319C56.9759 156.8 57.4479 156.592 57.8479 156.176C58.2639 155.76 58.4719 155.248 58.4719 154.64C58.4719 154.032 58.2639 153.544 57.8479 153.176C57.4479 152.792 56.9759 152.6 56.4319 152.6H53.6719H51.0319C50.5519 152.6 50.1039 152.512 49.6879 152.336C49.2879 152.144 48.9359 151.896 48.6319 151.592C48.3279 151.288 48.0879 150.936 47.9119 150.536C47.7519 150.12 47.6719 149.688 47.6719 149.24C47.6719 148.792 47.7519 148.376 47.9119 147.992C48.0879 147.592 48.3279 147.248 48.6319 146.96C48.9359 146.656 49.2879 146.424 49.6879 146.264C50.1039 146.088 50.5519 146 51.0319 146H59.6719V147.2H51.0319ZM75.5016 152C75.5016 152.848 75.3416 153.64 75.0216 154.376C74.7016 155.096 74.2616 155.728 73.7016 156.272C73.1576 156.8 72.5256 157.224 71.8056 157.544C71.0856 157.848 70.3176 158 69.5016 158C68.4776 158 67.5576 157.784 66.7416 157.352C65.9256 156.904 65.2456 156.32 64.7016 155.6V160.16H63.5016V152C63.5016 151.168 63.6536 150.384 63.9576 149.648C64.2776 148.912 64.7016 148.28 65.2296 147.752C65.7736 147.208 66.4056 146.784 67.1256 146.48C67.8616 146.16 68.6536 146 69.5016 146C70.3176 146 71.0856 146.16 71.8056 146.48C72.5256 146.784 73.1576 147.208 73.7016 147.752C74.2616 148.28 74.7016 148.912 75.0216 149.648C75.3416 150.384 75.5016 151.168 75.5016 152ZM74.3016 152C74.3016 151.344 74.1736 150.728 73.9176 150.152C73.6616 149.56 73.3176 149.048 72.8856 148.616C72.4536 148.184 71.9416 147.84 71.3496 147.584C70.7736 147.328 70.1576 147.2 69.5016 147.2C68.8456 147.2 68.2216 147.328 67.6296 147.584C67.0536 147.84 66.5496 148.184 66.1176 148.616C65.6856 149.048 65.3416 149.56 65.0856 150.152C64.8296 150.728 64.7016 151.344 64.7016 152C64.7016 152.656 64.8296 153.28 65.0856 153.872C65.3416 154.448 65.6856 154.952 66.1176 155.384C66.5496 155.816 67.0536 156.16 67.6296 156.416C68.2216 156.672 68.8456 156.8 69.5016 156.8C70.1576 156.8 70.7736 156.672 71.3496 156.416C71.9416 156.16 72.4536 155.816 72.8856 155.384C73.3176 154.952 73.6616 154.448 73.9176 153.872C74.1736 153.28 74.3016 152.656 74.3016 152ZM85.3313 146C86.1633 146 86.9473 146.16 87.6833 146.48C88.4193 146.784 89.0513 147.208 89.5793 147.752C90.1233 148.28 90.5473 148.912 90.8513 149.648C91.1713 150.384 91.3313 151.168 91.3313 152V158H90.1313V155.6C89.5873 156.32 88.8913 156.904 88.0433 157.352C87.1953 157.784 86.2913 158 85.3313 158C84.4833 158 83.6913 157.848 82.9553 157.544C82.2353 157.224 81.6033 156.8 81.0593 156.272C80.5313 155.728 80.1073 155.096 79.7873 154.376C79.4833 153.64 79.3313 152.848 79.3313 152C79.3313 151.168 79.4833 150.384 79.7873 149.648C80.1073 148.912 80.5313 148.28 81.0593 147.752C81.6033 147.208 82.2353 146.784 82.9553 146.48C83.6913 146.16 84.4833 146 85.3313 146ZM85.3313 156.8C85.9873 156.8 86.6033 156.672 87.1793 156.416C87.7713 156.16 88.2833 155.816 88.7153 155.384C89.1473 154.952 89.4913 154.448 89.7473 153.872C90.0033 153.28 90.1313 152.656 90.1313 152C90.1313 151.344 90.0033 150.728 89.7473 150.152C89.4913 149.56 89.1473 149.048 88.7153 148.616C88.2833 148.184 87.7713 147.84 87.1793 147.584C86.6033 147.328 85.9873 147.2 85.3313 147.2C84.6753 147.2 84.0513 147.328 83.4593 147.584C82.8833 147.84 82.3793 148.184 81.9473 148.616C81.5153 149.048 81.1713 149.56 80.9153 150.152C80.6593 150.728 80.5313 151.344 80.5313 152C80.5313 152.656 80.6593 153.28 80.9153 153.872C81.1713 154.448 81.5153 154.952 81.9473 155.384C82.3793 155.816 82.8833 156.16 83.4593 156.416C84.0513 156.672 84.6753 156.8 85.3313 156.8ZM101.161 156.8C101.737 156.8 102.273 156.712 102.769 156.536C103.265 156.344 103.713 156.088 104.113 155.768C104.529 155.448 104.881 155.072 105.169 154.64C105.473 154.192 105.697 153.712 105.841 153.2H107.041C106.897 153.888 106.641 154.528 106.273 155.12C105.905 155.696 105.465 156.2 104.953 156.632C104.441 157.064 103.857 157.4 103.201 157.64C102.561 157.88 101.881 158 101.161 158C100.313 158 99.521 157.848 98.785 157.544C98.065 157.224 97.433 156.8 96.889 156.272C96.361 155.728 95.937 155.096 95.617 154.376C95.313 153.64 95.161 152.848 95.161 152C95.161 151.168 95.313 150.384 95.617 149.648C95.937 148.912 96.361 148.28 96.889 147.752C97.433 147.208 98.065 146.784 98.785 146.48C99.521 146.16 100.313 146 101.161 146C101.881 146 102.561 146.12 103.201 146.36C103.857 146.6 104.441 146.936 104.953 147.368C105.465 147.8 105.905 148.312 106.273 148.904C106.641 149.48 106.897 150.112 107.041 150.8H105.841C105.697 150.288 105.473 149.816 105.169 149.384C104.881 148.936 104.529 148.552 104.113 148.232C103.713 147.912 103.265 147.664 102.769 147.488C102.273 147.296 101.737 147.2 101.161 147.2C100.505 147.2 99.881 147.328 99.289 147.584C98.713 147.84 98.209 148.184 97.777 148.616C97.345 149.048 97.001 149.56 96.745 150.152C96.489 150.728 96.361 151.344 96.361 152C96.361 152.656 96.489 153.28 96.745 153.872C97.001 154.448 97.345 154.952 97.777 155.384C98.209 155.816 98.713 156.16 99.289 156.416C99.881 156.672 100.505 156.8 101.161 156.8ZM116.873 156.8C117.897 156.8 118.801 156.528 119.585 155.984C120.369 155.44 120.945 154.712 121.313 153.8H122.633C122.425 154.408 122.129 154.968 121.745 155.48C121.377 155.992 120.937 156.432 120.425 156.8C119.929 157.168 119.377 157.464 118.769 157.688C118.161 157.896 117.529 158 116.873 158C116.025 158 115.233 157.848 114.497 157.544C113.777 157.224 113.145 156.8 112.601 156.272C112.073 155.728 111.649 155.096 111.329 154.376C111.025 153.64 110.873 152.848 110.873 152C110.873 151.168 111.025 150.384 111.329 149.648C111.649 148.912 112.073 148.28 112.601 147.752C113.145 147.208 113.777 146.784 114.497 146.48C115.233 146.16 116.025 146 116.873 146C117.705 146 118.489 146.16 119.225 146.48C119.961 146.784 120.593 147.208 121.121 147.752C121.665 148.28 122.089 148.912 122.393 149.648C122.713 150.384 122.873 151.168 122.873 152V152.6H120.713H112.073C112.169 153.208 112.353 153.768 112.625 154.28C112.913 154.792 113.273 155.232 113.705 155.6C114.137 155.968 114.617 156.264 115.145 156.488C115.689 156.696 116.265 156.8 116.873 156.8ZM116.873 147.2C116.265 147.2 115.689 147.312 115.145 147.536C114.617 147.744 114.137 148.032 113.705 148.4C113.273 148.768 112.913 149.216 112.625 149.744C112.353 150.256 112.169 150.808 112.073 151.4H121.673C121.577 150.808 121.385 150.256 121.097 149.744C120.825 149.216 120.473 148.768 120.041 148.4C119.609 148.032 119.121 147.744 118.577 147.536C118.033 147.312 117.465 147.2 116.873 147.2Z" fill="black"/>
<path d="M9.01205 155.984L8.84102 155.738V155.738L9.01205 155.984ZM10.74 153.8V153.5H10.5376L10.4618 153.688L10.74 153.8ZM12.06 153.8L12.3439 153.897L12.4798 153.5H12.06V153.8ZM11.172 155.48L10.932 155.3L10.9284 155.305L11.172 155.48ZM9.85205 156.8L9.67694 156.556L9.6733 156.559L9.85205 156.8ZM8.19605 157.688L8.29318 157.972L8.29976 157.97L8.19605 157.688ZM3.92405 157.544L3.80216 157.818L3.80952 157.821L3.92405 157.544ZM2.02805 156.272L1.81268 156.481L1.81911 156.487L2.02805 156.272ZM0.756049 154.376L0.478673 154.491L0.481905 154.498L0.756049 154.376ZM0.756049 149.648L0.480881 149.528L0.47877 149.533L0.756049 149.648ZM2.02805 147.752L2.24018 147.964V147.964L2.02805 147.752ZM3.92405 146.48L4.04075 146.756L4.04367 146.755L3.92405 146.48ZM8.65205 146.48L8.53241 146.755L8.53752 146.757L8.65205 146.48ZM10.548 147.752L10.3327 147.961L10.3391 147.967L10.548 147.752ZM11.82 149.648L11.5427 149.763L11.5449 149.768L11.82 149.648ZM12.3 152.6V152.9H12.6V152.6H12.3ZM1.50005 152.6V152.3H1.14896L1.20372 152.647L1.50005 152.6ZM2.05205 154.28L1.78704 154.421L1.79058 154.427L2.05205 154.28ZM3.13205 155.6L2.93751 155.828V155.828L3.13205 155.6ZM4.57205 156.488L4.45481 156.764L4.46491 156.768L4.57205 156.488ZM4.57205 147.536L4.68202 147.815L4.68627 147.813L4.57205 147.536ZM2.05205 149.744L1.78866 149.6L1.78711 149.603L2.05205 149.744ZM1.50005 151.4L1.20392 151.352L1.14748 151.7H1.50005V151.4ZM11.1 151.4V151.7H11.4526L11.3962 151.352L11.1 151.4ZM10.524 149.744L10.2572 149.881L10.2626 149.891L10.524 149.744ZM9.46805 148.4L9.66259 148.172H9.66259L9.46805 148.4ZM8.00405 147.536L7.88979 147.813L7.89691 147.816L8.00405 147.536ZM6.30005 157.1C7.38047 157.1 8.34512 156.812 9.18307 156.23L8.84102 155.738C8.11098 156.244 7.26763 156.5 6.30005 156.5V157.1ZM9.18307 156.23C10.0167 155.652 10.6291 154.877 11.0183 153.912L10.4618 153.688C10.115 154.547 9.57545 155.228 8.84102 155.738L9.18307 156.23ZM10.74 154.1H12.06V153.5H10.74V154.1ZM11.7762 153.703C11.5783 154.281 11.2971 154.813 10.932 155.3L11.412 155.66C11.815 155.123 12.1258 154.535 12.3439 153.897L11.7762 153.703ZM10.9284 155.305C10.5794 155.791 10.1626 156.207 9.67696 156.556L10.0271 157.044C10.5655 156.657 11.0287 156.193 11.4157 155.655L10.9284 155.305ZM9.6733 156.559C9.20135 156.909 8.67484 157.192 8.09234 157.406L8.29976 157.97C8.93326 157.736 9.51075 157.427 10.0308 157.041L9.6733 156.559ZM8.09894 157.404C7.52286 157.601 6.92371 157.7 6.30005 157.7V158.3C6.98839 158.3 7.65324 158.191 8.29316 157.972L8.09894 157.404ZM6.30005 157.7C5.48876 157.7 4.73594 157.555 4.03858 157.267L3.80952 157.821C4.58415 158.141 5.41534 158.3 6.30005 158.3V157.7ZM4.04589 157.27C3.35688 156.964 2.75466 156.559 2.23699 156.057L1.81911 156.487C2.38944 157.041 3.05122 157.484 3.80221 157.818L4.04589 157.27ZM2.24332 156.063C1.74088 155.545 1.33642 154.943 1.03019 154.254L0.481905 154.498C0.815677 155.249 1.25922 155.911 1.81277 156.481L2.24332 156.063ZM1.03333 154.261C0.745284 153.564 0.600049 152.811 0.600049 152H4.88162e-05C4.88162e-05 152.885 0.158813 153.716 0.47877 154.491L1.03333 154.261ZM0.600049 152C0.600049 151.206 0.744998 150.461 1.03333 149.763L0.47877 149.533C0.159099 150.307 4.88162e-05 151.13 4.88162e-05 152H0.600049ZM1.03117 149.768C1.33729 149.064 1.74073 148.464 2.24018 147.964L1.81592 147.54C1.25937 148.096 0.814804 148.76 0.480928 149.528L1.03117 149.768ZM2.24018 147.964C2.75637 147.448 3.35582 147.046 4.04074 146.756L3.80736 146.204C3.05228 146.522 2.38773 146.968 1.81592 147.54L2.24018 147.964ZM4.04367 146.755C4.73981 146.452 5.49083 146.3 6.30005 146.3V145.7C5.41326 145.7 4.58029 145.868 3.80443 146.205L4.04367 146.755ZM6.30005 146.3C7.09244 146.3 7.83557 146.452 8.53243 146.755L8.77167 146.205C7.99653 145.868 7.17166 145.7 6.30005 145.7V146.3ZM8.53752 146.757C9.23757 147.046 9.83477 147.448 10.3328 147.961L10.7633 147.543C10.2053 146.968 9.53853 146.522 8.76658 146.203L8.53752 146.757ZM10.3391 147.967C10.8522 148.465 11.2536 149.062 11.5428 149.763L12.0973 149.533C11.7785 148.762 11.3319 148.095 10.757 147.537L10.3391 147.967ZM11.5449 149.768C11.8479 150.464 12 151.208 12 152H12.6C12.6 151.128 12.4322 150.304 12.0952 149.528L11.5449 149.768ZM12 152V152.6H12.6V152H12ZM12.3 152.3H10.14V152.9H12.3V152.3ZM10.14 152.3H1.50005V152.9H10.14V152.3ZM1.20372 152.647C1.30458 153.286 1.49858 153.878 1.78711 154.421L2.31698 154.139C2.06152 153.658 1.88751 153.13 1.79638 152.553L1.20372 152.647ZM1.79058 154.427C2.0953 154.969 2.47764 155.437 2.93751 155.828L3.32659 155.372C2.92246 155.027 2.5848 154.615 2.31352 154.133L1.79058 154.427ZM2.93751 155.828C3.39297 156.216 3.89912 156.528 4.45488 156.764L4.68921 156.212C4.18898 156 3.73513 155.72 3.32659 155.372L2.93751 155.828ZM4.46491 156.768C5.04461 156.99 5.65706 157.1 6.30005 157.1V156.5C5.72704 156.5 5.18749 156.402 4.67919 156.208L4.46491 156.768ZM6.30005 146.9C5.6542 146.9 5.03928 147.019 4.45782 147.259L4.68627 147.813C5.19282 147.605 5.7299 147.5 6.30005 147.5V146.9ZM4.46209 147.257C3.90329 147.477 3.39471 147.782 2.93751 148.172L3.32659 148.628C3.73339 148.282 4.18481 148.011 4.68201 147.815L4.46209 147.257ZM2.93751 148.172C2.47594 148.565 2.09319 149.042 1.78868 149.6L2.31542 149.888C2.58691 149.39 2.92416 148.971 3.32659 148.628L2.93751 148.172ZM1.78711 149.603C1.49918 150.145 1.30499 150.729 1.20392 151.352L1.79618 151.448C1.88711 150.887 2.06091 150.367 2.31698 149.885L1.78711 149.603ZM1.50005 151.7H11.1V151.1H1.50005V151.7ZM11.3962 151.352C11.2947 150.726 11.0912 150.14 10.7855 149.597L10.2626 149.891C10.5329 150.372 10.7134 150.89 10.8039 151.448L11.3962 151.352ZM10.7907 149.607C10.5017 149.046 10.1257 148.566 9.66259 148.172L9.27351 148.628C9.67438 148.97 10.0024 149.386 10.2574 149.881L10.7907 149.607ZM9.66259 148.172C9.20393 147.781 8.68621 147.476 8.11119 147.256L7.89691 147.816C8.40989 148.012 8.86817 148.283 9.27351 148.628L9.66259 148.172ZM8.11827 147.259C7.53781 147.02 6.93098 146.9 6.30005 146.9V147.5C6.85312 147.5 7.38229 147.604 7.88982 147.813L8.11827 147.259ZM23.7377 156.536L23.8381 156.819L23.846 156.816L23.7377 156.536ZM25.0817 155.768L24.8988 155.53L24.8943 155.534L25.0817 155.768ZM26.1377 154.64L25.8895 154.472L25.8881 154.474L26.1377 154.64ZM26.8097 153.2V152.9H26.5825L26.5209 153.119L26.8097 153.2ZM28.0097 153.2L28.3034 153.261L28.379 152.9H28.0097V153.2ZM27.2417 155.12L27.4946 155.282L27.4965 155.278L27.2417 155.12ZM24.1697 157.64L24.0667 157.358L24.0644 157.359L24.1697 157.64ZM19.7537 157.544L19.6319 157.818L19.6392 157.821L19.7537 157.544ZM17.8577 156.272L17.6424 156.481L17.6488 156.487L17.8577 156.272ZM16.5857 154.376L16.3084 154.491L16.3116 154.498L16.5857 154.376ZM16.5857 149.648L16.3106 149.528L16.3085 149.533L16.5857 149.648ZM17.8577 147.752L18.0699 147.964V147.964L17.8577 147.752ZM19.7537 146.48L19.8704 146.756L19.8734 146.755L19.7537 146.48ZM24.1697 146.36L24.0644 146.641L24.0667 146.642L24.1697 146.36ZM27.2417 148.904L26.9869 149.062L26.9889 149.066L27.2417 148.904ZM28.0097 150.8V151.1H28.379L28.3034 150.739L28.0097 150.8ZM26.8097 150.8L26.5209 150.881L26.5825 151.1H26.8097V150.8ZM26.1377 149.384L25.8852 149.546L25.8924 149.557L26.1377 149.384ZM25.0817 148.232L24.8943 148.466L24.8988 148.47L25.0817 148.232ZM23.7377 147.488L23.6294 147.768L23.6374 147.771L23.7377 147.488ZM20.2577 147.584L20.1387 147.309L20.1359 147.31L20.2577 147.584ZM18.7457 148.616L18.5336 148.404V148.404L18.7457 148.616ZM17.7137 150.152L17.9879 150.274L17.9891 150.271L17.7137 150.152ZM17.7137 153.872L17.4384 153.991L17.4396 153.994L17.7137 153.872ZM20.2577 156.416L20.1359 156.69L20.1387 156.691L20.2577 156.416ZM22.1297 157.1C22.7367 157.1 23.3069 157.007 23.8381 156.819L23.6374 156.253C23.1765 156.417 22.6748 156.5 22.1297 156.5V157.1ZM23.846 156.816C24.3695 156.613 24.8443 156.342 25.2691 156.002L24.8943 155.534C24.5191 155.834 24.098 156.075 23.6294 156.256L23.846 156.816ZM25.2647 156.006C25.7063 155.666 26.081 155.266 26.3874 154.806L25.8881 154.474C25.6185 154.878 25.2891 155.23 24.8988 155.53L25.2647 156.006ZM26.386 154.808C26.7078 154.334 26.9456 153.825 27.0985 153.281L26.5209 153.119C26.3858 153.599 26.1757 154.05 25.8895 154.472L26.386 154.808ZM26.8097 153.5H28.0097V152.9H26.8097V153.5ZM27.7161 153.139C27.5792 153.793 27.3363 154.4 26.987 154.962L27.4965 155.278C27.8832 154.656 28.1523 153.983 28.3034 153.261L27.7161 153.139ZM26.9889 154.958C26.6369 155.51 26.2167 155.991 25.7283 156.403L26.1152 156.861C26.6507 156.409 27.1106 155.882 27.4945 155.282L26.9889 154.958ZM25.7283 156.403C25.2442 156.811 24.6911 157.13 24.0667 157.358L24.2728 157.922C24.9604 157.67 25.5752 157.317 26.1152 156.861L25.7283 156.403ZM24.0644 157.359C23.4599 157.586 22.8157 157.7 22.1297 157.7V158.3C22.8838 158.3 23.5996 158.174 24.2751 157.921L24.0644 157.359ZM22.1297 157.7C21.3184 157.7 20.5656 157.555 19.8683 157.267L19.6392 157.821C20.4138 158.141 21.245 158.3 22.1297 158.3V157.7ZM19.8756 157.27C19.1866 156.964 18.5843 156.559 18.0667 156.057L17.6488 156.487C18.2191 157.041 18.8809 157.484 19.6319 157.818L19.8756 157.27ZM18.073 156.063C17.5706 155.545 17.1661 154.943 16.8599 154.254L16.3116 154.498C16.6454 155.249 17.0889 155.911 17.6425 156.481L18.073 156.063ZM16.863 154.261C16.575 153.564 16.4297 152.811 16.4297 152H15.8297C15.8297 152.885 15.9885 153.716 16.3085 154.491L16.863 154.261ZM16.4297 152C16.4297 151.206 16.5747 150.461 16.863 149.763L16.3085 149.533C15.9888 150.307 15.8297 151.13 15.8297 152H16.4297ZM16.8609 149.768C17.167 149.064 17.5704 148.464 18.0699 147.964L17.6456 147.54C17.0891 148.096 16.6445 148.76 16.3106 149.528L16.8609 149.768ZM18.0699 147.964C18.5861 147.448 19.1855 147.046 19.8704 146.756L19.637 146.204C18.882 146.522 18.2174 146.968 17.6456 147.54L18.0699 147.964ZM19.8734 146.755C20.5695 146.452 21.3205 146.3 22.1297 146.3V145.7C21.243 145.7 20.41 145.868 19.6341 146.205L19.8734 146.755ZM22.1297 146.3C22.8157 146.3 23.4599 146.414 24.0644 146.641L24.2751 146.079C23.5996 145.826 22.8838 145.7 22.1297 145.7V146.3ZM24.0667 146.642C24.6911 146.87 25.2442 147.189 25.7283 147.597L26.1152 147.139C25.5752 146.683 24.9604 146.33 24.2728 146.078L24.0667 146.642ZM25.7283 147.597C26.2153 148.008 26.6349 148.496 26.987 149.062L27.4965 148.746C27.1126 148.128 26.6522 147.592 26.1152 147.139L25.7283 147.597ZM26.9889 149.066C27.3368 149.61 27.5793 150.208 27.7161 150.861L28.3034 150.739C28.1521 150.016 27.8827 149.35 27.4945 148.742L26.9889 149.066ZM28.0097 150.5H26.8097V151.1H28.0097V150.5ZM27.0985 150.719C26.9454 150.174 26.7068 149.671 26.3831 149.211L25.8924 149.557C26.1767 149.961 26.3861 150.402 26.5209 150.881L27.0985 150.719ZM26.3901 149.222C26.0837 148.745 25.7084 148.336 25.2647 147.994L24.8988 148.47C25.2871 148.768 25.6157 149.127 25.8854 149.546L26.3901 149.222ZM25.2691 147.998C24.8423 147.656 24.3647 147.392 23.8381 147.205L23.6374 147.771C24.1028 147.936 24.5212 148.168 24.8943 148.466L25.2691 147.998ZM23.846 147.208C23.3127 147.002 22.7397 146.9 22.1297 146.9V147.5C22.6718 147.5 23.1707 147.59 23.6294 147.768L23.846 147.208ZM22.1297 146.9C21.4335 146.9 20.7689 147.036 20.1387 147.309L20.3768 147.859C20.9306 147.62 21.514 147.5 22.1297 147.5V146.9ZM20.1359 147.31C19.5273 147.58 18.9925 147.945 18.5336 148.404L18.9579 148.828C19.363 148.423 19.8361 148.1 20.3796 147.858L20.1359 147.31ZM18.5336 148.404C18.0734 148.864 17.7085 149.408 17.4384 150.033L17.9891 150.271C18.2309 149.712 18.5541 149.232 18.9579 148.828L18.5336 148.404ZM17.4396 150.03C17.1658 150.646 17.0297 151.304 17.0297 152H17.6297C17.6297 151.384 17.7496 150.81 17.9879 150.274L17.4396 150.03ZM17.0297 152C17.0297 152.696 17.1658 153.361 17.4384 153.991L17.9891 153.753C17.7496 153.199 17.6297 152.616 17.6297 152H17.0297ZM17.4396 153.994C17.7101 154.602 18.0747 155.137 18.5336 155.596L18.9579 155.172C18.5527 154.767 18.2294 154.294 17.9879 153.75L17.4396 153.994ZM18.5336 155.596C18.9925 156.055 19.5273 156.42 20.1359 156.69L20.3796 156.142C19.8361 155.9 19.363 155.577 18.9579 155.172L18.5336 155.596ZM20.1387 156.691C20.7689 156.964 21.4335 157.1 22.1297 157.1V156.5C21.514 156.5 20.9306 156.38 20.3768 156.141L20.1387 156.691ZM40.1462 146.48L40.0244 146.754L40.0295 146.756L40.1462 146.48ZM42.0422 147.752L41.83 147.964L41.8364 147.97L42.0422 147.752ZM43.3622 149.648L43.6374 149.528V149.528L43.3622 149.648ZM43.3622 154.376L43.6364 154.498L43.6374 154.496L43.3622 154.376ZM42.0422 156.272L42.2512 156.487L42.2513 156.487L42.0422 156.272ZM40.1462 157.544L40.2629 157.82L40.2681 157.818L40.1462 157.544ZM35.4662 157.544L35.3444 157.818L35.3517 157.821L35.4662 157.544ZM33.5702 156.272L33.3549 156.481L33.3613 156.487L33.5702 156.272ZM32.2982 154.376L32.0209 154.491L32.0241 154.498L32.2982 154.376ZM32.2982 149.648L32.0231 149.528L32.021 149.533L32.2982 149.648ZM33.5702 147.752L33.7824 147.964V147.964L33.5702 147.752ZM35.4662 146.48L35.5829 146.756L35.5859 146.755L35.4662 146.48ZM39.6902 156.416L39.5712 156.141L39.5684 156.142L39.6902 156.416ZM41.2262 155.384L41.4384 155.596V155.596L41.2262 155.384ZM42.2582 153.872L42.5324 153.994L42.5336 153.991L42.2582 153.872ZM42.2582 150.152L41.9829 150.271L41.9841 150.274L42.2582 150.152ZM41.2262 148.616L41.4384 148.404V148.404L41.2262 148.616ZM39.6902 147.584L39.5684 147.858L39.5712 147.859L39.6902 147.584ZM35.9702 147.584L35.8512 147.309L35.8484 147.31L35.9702 147.584ZM34.4582 148.616L34.2461 148.404V148.404L34.4582 148.616ZM33.4262 150.152L33.7004 150.274L33.7016 150.271L33.4262 150.152ZM33.4262 153.872L33.1509 153.991L33.1521 153.994L33.4262 153.872ZM35.9702 156.416L35.8484 156.69L35.8512 156.691L35.9702 156.416ZM37.8422 146.3C38.6178 146.3 39.3441 146.452 40.0244 146.754L40.2681 146.206C39.5083 145.868 38.6987 145.7 37.8422 145.7V146.3ZM40.0295 146.756C40.7145 147.046 41.3139 147.448 41.8301 147.964L42.2544 147.54C41.6826 146.968 41.018 146.522 40.2629 146.204L40.0295 146.756ZM41.8364 147.97C42.3656 148.469 42.7826 149.067 43.0871 149.768L43.6374 149.528C43.3019 148.757 42.8388 148.091 42.248 147.534L41.8364 147.97ZM43.0871 149.768C43.3901 150.464 43.5422 151.208 43.5422 152H44.1422C44.1422 151.128 43.9744 150.304 43.6374 149.528L43.0871 149.768ZM43.5422 152C43.5422 152.809 43.3898 153.56 43.0871 154.256L43.6374 154.496C43.9747 153.72 44.1422 152.887 44.1422 152H43.5422ZM43.0881 154.254C42.7835 154.94 42.3655 155.54 41.8332 156.057L42.2513 156.487C42.839 155.916 43.301 155.252 43.6364 154.498L43.0881 154.254ZM41.8333 156.057C41.3156 156.559 40.7134 156.964 40.0244 157.27L40.2681 157.818C41.0191 157.484 41.6808 157.041 42.2512 156.487L41.8333 156.057ZM40.0295 157.268C39.3481 157.555 38.62 157.7 37.8422 157.7V158.3C38.6965 158.3 39.5044 158.141 40.2629 157.82L40.0295 157.268ZM37.8422 157.7C37.0309 157.7 36.2781 157.555 35.5808 157.267L35.3517 157.821C36.1263 158.141 36.9575 158.3 37.8422 158.3V157.7ZM35.5881 157.27C34.8991 156.964 34.2968 156.559 33.7792 156.057L33.3613 156.487C33.9316 157.041 34.5934 157.484 35.3444 157.818L35.5881 157.27ZM33.7855 156.063C33.2831 155.545 32.8786 154.943 32.5724 154.254L32.0241 154.498C32.3579 155.249 32.8014 155.911 33.355 156.481L33.7855 156.063ZM32.5755 154.261C32.2875 153.564 32.1422 152.811 32.1422 152H31.5422C31.5422 152.885 31.701 153.716 32.021 154.491L32.5755 154.261ZM32.1422 152C32.1422 151.206 32.2872 150.461 32.5755 149.763L32.021 149.533C31.7013 150.307 31.5422 151.13 31.5422 152H32.1422ZM32.5734 149.768C32.8795 149.064 33.2829 148.464 33.7824 147.964L33.3581 147.54C32.8016 148.096 32.357 148.76 32.0231 149.528L32.5734 149.768ZM33.7824 147.964C34.2986 147.448 34.898 147.046 35.5829 146.756L35.3495 146.204C34.5945 146.522 33.9299 146.968 33.3581 147.54L33.7824 147.964ZM35.5859 146.755C36.282 146.452 37.033 146.3 37.8422 146.3V145.7C36.9555 145.7 36.1225 145.868 35.3466 146.205L35.5859 146.755ZM37.8422 157.1C38.5385 157.1 39.1962 156.964 39.8121 156.69L39.5684 156.142C39.0323 156.38 38.458 156.5 37.8422 156.5V157.1ZM39.8093 156.691C40.4341 156.421 40.9781 156.056 41.4384 155.596L41.0141 155.172C40.6103 155.576 40.1304 155.899 39.5712 156.141L39.8093 156.691ZM41.4384 155.596C41.8972 155.137 42.2619 154.602 42.5324 153.994L41.9841 153.75C41.7426 154.294 41.4192 154.767 41.0141 155.172L41.4384 155.596ZM42.5336 153.991C42.8061 153.361 42.9422 152.696 42.9422 152H42.3422C42.3422 152.616 42.2223 153.199 41.9829 153.753L42.5336 153.991ZM42.9422 152C42.9422 151.304 42.8061 150.646 42.5324 150.03L41.9841 150.274C42.2223 150.81 42.3422 151.384 42.3422 152H42.9422ZM42.5336 150.033C42.2634 149.408 41.8986 148.864 41.4384 148.404L41.0141 148.828C41.4179 149.232 41.7411 149.712 41.9829 150.271L42.5336 150.033ZM41.4384 148.404C40.9781 147.944 40.4341 147.579 39.8093 147.309L39.5712 147.859C40.1304 148.101 40.6103 148.424 41.0141 148.828L41.4384 148.404ZM39.8121 147.31C39.1962 147.036 38.5385 146.9 37.8422 146.9V147.5C38.458 147.5 39.0323 147.62 39.5684 147.858L39.8121 147.31ZM37.8422 146.9C37.146 146.9 36.4814 147.036 35.8512 147.309L36.0893 147.859C36.6431 147.62 37.2265 147.5 37.8422 147.5V146.9ZM35.8484 147.31C35.2398 147.58 34.705 147.945 34.2461 148.404L34.6704 148.828C35.0755 148.423 35.5486 148.1 36.0921 147.858L35.8484 147.31ZM34.2461 148.404C33.7859 148.864 33.421 149.408 33.1509 150.033L33.7016 150.271C33.9434 149.712 34.2666 149.232 34.6704 148.828L34.2461 148.404ZM33.1521 150.03C32.8783 150.646 32.7422 151.304 32.7422 152H33.3422C33.3422 151.384 33.4621 150.81 33.7004 150.274L33.1521 150.03ZM32.7422 152C32.7422 152.696 32.8783 153.361 33.1509 153.991L33.7016 153.753C33.4621 153.199 33.3422 152.616 33.3422 152H32.7422ZM33.1521 153.994C33.4226 154.602 33.7872 155.137 34.2461 155.596L34.6704 155.172C34.2652 154.767 33.9419 154.294 33.7004 153.75L33.1521 153.994ZM34.2461 155.596C34.705 156.055 35.2398 156.42 35.8484 156.69L36.0921 156.142C35.5486 155.9 35.0755 155.577 34.6704 155.172L34.2461 155.596ZM35.8512 156.691C36.4814 156.964 37.146 157.1 37.8422 157.1V156.5C37.2265 156.5 36.6431 156.38 36.0893 156.141L35.8512 156.691ZM49.4959 147.776L49.6947 148.001L49.6994 147.996L49.4959 147.776ZM49.4959 150.776L49.7081 150.564V150.564L49.4959 150.776ZM57.6799 151.664L57.5549 151.937L57.5616 151.94L57.5685 151.943L57.6799 151.664ZM58.7119 152.36L58.4941 152.566L58.4997 152.572L58.5056 152.578L58.7119 152.36ZM59.4079 153.392L59.1294 153.503L59.1321 153.51L59.1352 153.517L59.4079 153.392ZM59.4079 155.936L59.1316 155.819L59.1294 155.825L59.4079 155.936ZM58.7119 156.992L58.4997 156.78L58.4941 156.786L58.7119 156.992ZM57.6799 157.736L57.8049 158.009L57.8097 158.006L57.6799 157.736ZM47.6719 158H47.3719V158.3H47.6719V158ZM47.6719 156.8V156.5H47.3719V156.8H47.6719ZM57.8479 156.176L57.6358 155.964L57.6317 155.968L57.8479 156.176ZM57.8479 153.176L57.64 153.393L57.6492 153.401L57.8479 153.176ZM49.6879 152.336L49.5581 152.606L49.5645 152.61L49.571 152.612L49.6879 152.336ZM48.6319 151.592L48.8441 151.38V151.38L48.6319 151.592ZM47.9119 150.536L47.6319 150.644L47.6345 150.65L47.6373 150.657L47.9119 150.536ZM47.9119 147.992L47.6373 147.871L47.635 147.877L47.9119 147.992ZM48.6319 146.96L48.8383 147.178L48.8441 147.172L48.6319 146.96ZM49.6879 146.264L49.7994 146.543L49.8048 146.54L49.6879 146.264ZM59.6719 146H59.9719V145.7H59.6719V146ZM59.6719 147.2V147.5H59.9719V147.2H59.6719ZM51.0319 146.9C50.3546 146.9 49.7682 147.116 49.2924 147.556L49.6994 147.996C50.0557 147.668 50.4932 147.5 51.0319 147.5V146.9ZM49.2972 147.551C48.8102 147.982 48.5719 148.555 48.5719 149.24H49.1719C49.1719 148.709 49.3496 148.306 49.6947 148.001L49.2972 147.551ZM48.5719 149.24C48.5719 149.925 48.8095 150.514 49.2838 150.988L49.7081 150.564C49.3504 150.206 49.1719 149.771 49.1719 149.24H48.5719ZM49.2838 150.988C49.7581 151.462 50.3473 151.7 51.0319 151.7V151.1C50.5005 151.1 50.0657 150.922 49.7081 150.564L49.2838 150.988ZM51.0319 151.7H53.6719V151.1H51.0319V151.7ZM53.6719 151.7H56.4319V151.1H53.6719V151.7ZM56.4319 151.7C56.8394 151.7 57.2125 151.78 57.5549 151.937L57.8049 151.391C57.3793 151.196 56.9204 151.1 56.4319 151.1V151.7ZM57.5685 151.943C57.9294 152.087 58.2368 152.295 58.4941 152.566L58.9297 152.154C58.611 151.817 58.2304 151.561 57.7913 151.385L57.5685 151.943ZM58.5056 152.578C58.7772 152.835 58.985 153.142 59.1294 153.503L59.6865 153.281C59.5108 152.842 59.2546 152.461 58.9182 152.142L58.5056 152.578ZM59.1352 153.517C59.2922 153.859 59.3719 154.232 59.3719 154.64H59.9719C59.9719 154.152 59.8757 153.693 59.6806 153.267L59.1352 153.517ZM59.3719 154.64C59.3719 155.048 59.2921 155.44 59.1316 155.819L59.6842 156.053C59.8757 155.6 59.9719 155.128 59.9719 154.64H59.3719ZM59.1294 155.825C58.9844 156.187 58.775 156.505 58.4998 156.78L58.9241 157.204C59.2568 156.871 59.5114 156.485 59.6865 156.047L59.1294 155.825ZM58.4941 156.786C58.2328 157.062 57.9191 157.288 57.5501 157.466L57.8097 158.006C58.2407 157.8 58.6151 157.53 58.9297 157.198L58.4941 156.786ZM57.5549 157.463C57.2125 157.62 56.8394 157.7 56.4319 157.7V158.3C56.9204 158.3 57.3793 158.204 57.8049 158.009L57.5549 157.463ZM56.4319 157.7H47.6719V158.3H56.4319V157.7ZM47.9719 158V156.8H47.3719V158H47.9719ZM47.6719 157.1H56.4319V156.5H47.6719V157.1ZM56.4319 157.1C57.0629 157.1 57.6115 156.855 58.0642 156.384L57.6317 155.968C57.2844 156.329 56.8889 156.5 56.4319 156.5V157.1ZM58.0601 156.388C58.5344 155.914 58.7719 155.325 58.7719 154.64H58.1719C58.1719 155.171 57.9935 155.606 57.6358 155.964L58.0601 156.388ZM58.7719 154.64C58.7719 153.955 58.5336 153.382 58.0467 152.951L57.6492 153.401C57.9942 153.706 58.1719 154.109 58.1719 154.64H58.7719ZM58.0557 152.96C57.601 152.523 57.055 152.3 56.4319 152.3V152.9C56.8968 152.9 57.2948 153.061 57.6402 153.392L58.0557 152.96ZM56.4319 152.3H53.6719V152.9H56.4319V152.3ZM53.6719 152.3H51.0319V152.9H53.6719V152.3ZM51.0319 152.3C50.5895 152.3 50.1816 152.219 49.8048 152.06L49.571 152.612C50.0263 152.805 50.5143 152.9 51.0319 152.9V152.3ZM49.8177 152.066C49.4473 151.888 49.1233 151.659 48.8441 151.38L48.4198 151.804C48.7485 152.133 49.1286 152.4 49.5581 152.606L49.8177 152.066ZM48.8441 151.38C48.5668 151.103 48.3478 150.782 48.1865 150.415L47.6373 150.657C47.8281 151.09 48.0891 151.473 48.4198 151.804L48.8441 151.38ZM48.1919 150.428C48.0452 150.047 47.9719 149.651 47.9719 149.24H47.3719C47.3719 149.725 47.4586 150.193 47.6319 150.644L48.1919 150.428ZM47.9719 149.24C47.9719 148.829 48.0452 148.452 48.1888 148.107L47.635 147.877C47.4586 148.3 47.3719 148.755 47.3719 149.24H47.9719ZM48.1865 148.113C48.3472 147.748 48.5645 147.437 48.8382 147.178L48.4256 146.742C48.0914 147.059 47.8287 147.436 47.6373 147.871L48.1865 148.113ZM48.8441 147.172C49.1193 146.897 49.437 146.687 49.7993 146.543L49.5765 145.985C49.1389 146.161 48.7526 146.415 48.4198 146.748L48.8441 147.172ZM49.8048 146.54C50.1816 146.381 50.5895 146.3 51.0319 146.3V145.7C50.5143 145.7 50.0263 145.795 49.571 145.988L49.8048 146.54ZM51.0319 146.3H59.6719V145.7H51.0319V146.3ZM59.3719 146V147.2H59.9719V146H59.3719ZM59.6719 146.9H51.0319V147.5H59.6719V146.9ZM75.0216 154.376L75.2958 154.498L75.2967 154.496L75.0216 154.376ZM73.7016 156.272L73.9106 156.487L73.9106 156.487L73.7016 156.272ZM71.8056 157.544L71.9223 157.82L71.9275 157.818L71.8056 157.544ZM66.7416 157.352L66.5972 157.615L66.6012 157.617L66.7416 157.352ZM64.7016 155.6L64.941 155.419L64.4016 154.705V155.6H64.7016ZM64.7016 160.16V160.46H65.0016V160.16H64.7016ZM63.5016 160.16H63.2016V160.46H63.5016V160.16ZM63.9576 149.648L63.6824 149.528L63.6803 149.533L63.9576 149.648ZM65.2296 147.752L65.4417 147.964V147.964L65.2296 147.752ZM67.1256 146.48L67.2423 146.756L67.2452 146.755L67.1256 146.48ZM71.8056 146.48L71.6837 146.754L71.6889 146.756L71.8056 146.48ZM73.7016 147.752L73.4894 147.964L73.4958 147.97L73.7016 147.752ZM75.0216 149.648L75.2967 149.528V149.528L75.0216 149.648ZM73.9176 150.152L73.6422 150.271L73.6435 150.274L73.9176 150.152ZM72.8856 148.616L73.0977 148.404V148.404L72.8856 148.616ZM71.3496 147.584L71.2278 147.858L71.2305 147.859L71.3496 147.584ZM67.6296 147.584L67.5105 147.309L67.5078 147.31L67.6296 147.584ZM66.1176 148.616L65.9055 148.404V148.404L66.1176 148.616ZM65.0856 150.152L65.3598 150.274L65.361 150.271L65.0856 150.152ZM65.0856 153.872L64.8102 153.991L64.8115 153.994L65.0856 153.872ZM67.6296 156.416L67.5078 156.69L67.5105 156.691L67.6296 156.416ZM71.3496 156.416L71.2305 156.141L71.2278 156.142L71.3496 156.416ZM72.8856 155.384L73.0977 155.596V155.596L72.8856 155.384ZM73.9176 153.872L74.1918 153.994L74.193 153.991L73.9176 153.872ZM75.2016 152C75.2016 152.809 75.0492 153.56 74.7465 154.256L75.2967 154.496C75.6341 153.72 75.8016 152.887 75.8016 152H75.2016ZM74.7475 154.254C74.4429 154.94 74.0249 155.54 73.4926 156.057L73.9106 156.487C74.4984 155.916 74.9604 155.252 75.2958 154.498L74.7475 154.254ZM73.4927 156.057C72.975 156.559 72.3728 156.964 71.6838 157.27L71.9275 157.818C72.6784 157.484 73.3402 157.041 73.9106 156.487L73.4927 156.057ZM71.6889 157.268C71.0075 157.555 70.2793 157.7 69.5016 157.7V158.3C70.3559 158.3 71.1637 158.141 71.9223 157.82L71.6889 157.268ZM69.5016 157.7C68.5211 157.7 67.6502 157.494 66.882 157.087L66.6012 157.617C67.465 158.074 68.4341 158.3 69.5016 158.3V157.7ZM66.886 157.089C66.1059 156.661 65.4586 156.104 64.941 155.419L64.4622 155.781C65.0326 156.536 65.7453 157.147 66.5972 157.615L66.886 157.089ZM64.4016 155.6V160.16H65.0016V155.6H64.4016ZM64.7016 159.86H63.5016V160.46H64.7016V159.86ZM63.8016 160.16V152H63.2016V160.16H63.8016ZM63.8016 152C63.8016 151.206 63.9466 150.461 64.2349 149.763L63.6803 149.533C63.3607 150.307 63.2016 151.13 63.2016 152H63.8016ZM64.2327 149.768C64.5389 149.064 64.9423 148.464 65.4417 147.964L65.0175 147.54C64.4609 148.096 64.0164 148.76 63.6825 149.528L64.2327 149.768ZM65.4417 147.964C65.9579 147.448 66.5574 147.046 67.2423 146.756L67.0089 146.204C66.2538 146.522 65.5893 146.968 65.0175 147.54L65.4417 147.964ZM67.2452 146.755C67.9414 146.452 68.6924 146.3 69.5016 146.3V145.7C68.6148 145.7 67.7819 145.868 67.006 146.205L67.2452 146.755ZM69.5016 146.3C70.2772 146.3 71.0035 146.452 71.6838 146.754L71.9275 146.206C71.1677 145.868 70.3581 145.7 69.5016 145.7V146.3ZM71.6889 146.756C72.3738 147.046 72.9733 147.448 73.4895 147.964L73.9137 147.54C73.3419 146.968 72.6774 146.522 71.9223 146.204L71.6889 146.756ZM73.4958 147.97C74.025 148.469 74.442 149.067 74.7465 149.768L75.2967 149.528C74.9612 148.757 74.4982 148.091 73.9074 147.534L73.4958 147.97ZM74.7465 149.768C75.0495 150.464 75.2016 151.208 75.2016 152H75.8016C75.8016 151.128 75.6337 150.304 75.2967 149.528L74.7465 149.768ZM74.6016 152C74.6016 151.304 74.4655 150.646 74.1918 150.03L73.6435 150.274C73.8817 150.81 74.0016 151.384 74.0016 152H74.6016ZM74.193 150.033C73.9228 149.408 73.558 148.864 73.0977 148.404L72.6735 148.828C73.0773 149.232 73.4004 149.712 73.6423 150.271L74.193 150.033ZM73.0977 148.404C72.6375 147.944 72.0935 147.579 71.4687 147.309L71.2305 147.859C71.7898 148.101 72.2697 148.424 72.6735 148.828L73.0977 148.404ZM71.4715 147.31C70.8555 147.036 70.1978 146.9 69.5016 146.9V147.5C70.1174 147.5 70.6917 147.62 71.2278 147.858L71.4715 147.31ZM69.5016 146.9C68.8054 146.9 68.1408 147.036 67.5105 147.309L67.7487 147.859C68.3024 147.62 68.8858 147.5 69.5016 147.5V146.9ZM67.5078 147.31C66.8992 147.58 66.3643 147.945 65.9055 148.404L66.3297 148.828C66.7349 148.423 67.208 148.1 67.7514 147.858L67.5078 147.31ZM65.9055 148.404C65.4453 148.864 65.0804 149.408 64.8102 150.033L65.361 150.271C65.6028 149.712 65.926 149.232 66.3297 148.828L65.9055 148.404ZM64.8115 150.03C64.5377 150.646 64.4016 151.304 64.4016 152H65.0016C65.0016 151.384 65.1215 150.81 65.3598 150.274L64.8115 150.03ZM64.4016 152C64.4016 152.696 64.5377 153.361 64.8102 153.991L65.361 153.753C65.1215 153.199 65.0016 152.616 65.0016 152H64.4016ZM64.8115 153.994C65.0819 154.602 65.4466 155.137 65.9055 155.596L66.3297 155.172C65.9246 154.767 65.6013 154.294 65.3598 153.75L64.8115 153.994ZM65.9055 155.596C66.3643 156.055 66.8992 156.42 67.5078 156.69L67.7514 156.142C67.208 155.9 66.7349 155.577 66.3297 155.172L65.9055 155.596ZM67.5105 156.691C68.1408 156.964 68.8054 157.1 69.5016 157.1V156.5C68.8858 156.5 68.3024 156.38 67.7487 156.141L67.5105 156.691ZM69.5016 157.1C70.1978 157.1 70.8555 156.964 71.4715 156.69L71.2278 156.142C70.6917 156.38 70.1174 156.5 69.5016 156.5V157.1ZM71.4687 156.691C72.0935 156.421 72.6375 156.056 73.0977 155.596L72.6735 155.172C72.2697 155.576 71.7898 155.899 71.2305 156.141L71.4687 156.691ZM73.0977 155.596C73.5566 155.137 73.9213 154.602 74.1918 153.994L73.6435 153.75C73.4019 154.294 73.0786 154.767 72.6735 155.172L73.0977 155.596ZM74.193 153.991C74.4655 153.361 74.6016 152.696 74.6016 152H74.0016C74.0016 152.616 73.8817 153.199 73.6423 153.753L74.193 153.991ZM87.6833 146.48L87.5637 146.755L87.5688 146.757L87.6833 146.48ZM89.5793 147.752L89.3639 147.961L89.3704 147.967L89.5793 147.752ZM90.8513 149.648L90.574 149.763L90.5762 149.768L90.8513 149.648ZM91.3313 158V158.3H91.6313V158H91.3313ZM90.1313 158H89.8313V158.3H90.1313V158ZM90.1313 155.6H90.4313V154.705L89.8919 155.419L90.1313 155.6ZM88.0433 157.352L88.1795 157.619L88.1834 157.617L88.0433 157.352ZM82.9553 157.544L82.8334 157.818L82.8408 157.821L82.9553 157.544ZM81.0593 156.272L80.8439 156.481L80.8504 156.487L81.0593 156.272ZM79.7873 154.376L79.5099 154.491L79.5132 154.498L79.7873 154.376ZM79.7873 149.648L79.5121 149.528L79.51 149.533L79.7873 149.648ZM81.0593 147.752L81.2714 147.964V147.964L81.0593 147.752ZM82.9553 146.48L83.072 146.756L83.0749 146.755L82.9553 146.48ZM87.1793 156.416L87.0602 156.141L87.0575 156.142L87.1793 156.416ZM88.7153 155.384L88.9274 155.596V155.596L88.7153 155.384ZM89.7473 153.872L90.0215 153.994L90.0227 153.991L89.7473 153.872ZM89.7473 150.152L89.4719 150.271L89.4732 150.274L89.7473 150.152ZM88.7153 148.616L88.9274 148.404V148.404L88.7153 148.616ZM87.1793 147.584L87.0574 147.858L87.0602 147.859L87.1793 147.584ZM83.4593 147.584L83.3402 147.309L83.3375 147.31L83.4593 147.584ZM81.9473 148.616L81.7352 148.404V148.404L81.9473 148.616ZM80.9153 150.152L81.1895 150.274L81.1907 150.271L80.9153 150.152ZM80.9153 153.872L80.6399 153.991L80.6412 153.994L80.9153 153.872ZM83.4593 156.416L83.3374 156.69L83.3402 156.691L83.4593 156.416ZM85.3313 146.3C86.1237 146.3 86.8668 146.452 87.5637 146.755L87.8029 146.205C87.0278 145.868 86.2029 145.7 85.3313 145.7V146.3ZM87.5688 146.757C88.2688 147.046 88.866 147.448 89.364 147.961L89.7946 147.543C89.2366 146.968 88.5698 146.522 87.7978 146.203L87.5688 146.757ZM89.3704 147.967C89.8835 148.465 90.2849 149.062 90.574 149.763L91.1286 149.533C90.8097 148.762 90.3631 148.095 89.7882 147.537L89.3704 147.967ZM90.5762 149.768C90.8792 150.464 91.0313 151.208 91.0313 152H91.6313C91.6313 151.128 91.4634 150.304 91.1264 149.528L90.5762 149.768ZM91.0313 152V158H91.6313V152H91.0313ZM91.3313 157.7H90.1313V158.3H91.3313V157.7ZM90.4313 158V155.6H89.8313V158H90.4313ZM89.8919 155.419C89.3761 156.102 88.7148 156.658 87.9032 157.087L88.1834 157.617C89.0678 157.15 89.7985 156.538 90.3707 155.781L89.8919 155.419ZM87.9071 157.085C87.1017 157.495 86.2444 157.7 85.3313 157.7V158.3C86.3382 158.3 87.2889 158.073 88.1795 157.619L87.9071 157.085ZM85.3313 157.7C84.52 157.7 83.7672 157.555 83.0698 157.267L82.8408 157.821C83.6154 158.141 84.4466 158.3 85.3313 158.3V157.7ZM83.0771 157.27C82.3881 156.964 81.7859 156.559 81.2682 156.057L80.8504 156.487C81.4207 157.041 82.0825 157.484 82.8335 157.818L83.0771 157.27ZM81.2746 156.063C80.7721 155.545 80.3677 154.943 80.0614 154.254L79.5132 154.498C79.8469 155.249 80.2905 155.911 80.844 156.481L81.2746 156.063ZM80.0646 154.261C79.7765 153.564 79.6313 152.811 79.6313 152H79.0313C79.0313 152.885 79.1901 153.716 79.51 154.491L80.0646 154.261ZM79.6313 152C79.6313 151.206 79.7762 150.461 80.0646 149.763L79.51 149.533C79.1903 150.307 79.0313 151.13 79.0313 152H79.6313ZM80.0624 149.768C80.3685 149.064 80.772 148.464 81.2714 147.964L80.8472 147.54C80.2906 148.096 79.8461 148.76 79.5122 149.528L80.0624 149.768ZM81.2714 147.964C81.7876 147.448 82.3871 147.046 83.072 146.756L82.8386 146.204C82.0835 146.522 81.419 146.968 80.8472 147.54L81.2714 147.964ZM83.0749 146.755C83.7711 146.452 84.5221 146.3 85.3313 146.3V145.7C84.4445 145.7 83.6115 145.868 82.8357 146.205L83.0749 146.755ZM85.3313 157.1C86.0275 157.1 86.6852 156.964 87.3011 156.69L87.0575 156.142C86.5214 156.38 85.9471 156.5 85.3313 156.5V157.1ZM87.2984 156.691C87.9231 156.421 88.4672 156.056 88.9274 155.596L88.5032 155.172C88.0994 155.576 87.6195 155.899 87.0602 156.141L87.2984 156.691ZM88.9274 155.596C89.3863 155.137 89.751 154.602 90.0214 153.994L89.4732 153.75C89.2316 154.294 88.9083 154.767 88.5032 155.172L88.9274 155.596ZM90.0227 153.991C90.2952 153.361 90.4313 152.696 90.4313 152H89.8313C89.8313 152.616 89.7114 153.199 89.4719 153.753L90.0227 153.991ZM90.4313 152C90.4313 151.304 90.2952 150.646 90.0214 150.03L89.4732 150.274C89.7114 150.81 89.8313 151.384 89.8313 152H90.4313ZM90.0227 150.033C89.7525 149.408 89.3877 148.864 88.9274 148.404L88.5032 148.828C88.9069 149.232 89.2301 149.712 89.4719 150.271L90.0227 150.033ZM88.9274 148.404C88.4672 147.944 87.9231 147.579 87.2984 147.309L87.0602 147.859C87.6195 148.101 88.0994 148.424 88.5032 148.828L88.9274 148.404ZM87.3011 147.31C86.6852 147.036 86.0275 146.9 85.3313 146.9V147.5C85.9471 147.5 86.5214 147.62 87.0575 147.858L87.3011 147.31ZM85.3313 146.9C84.6351 146.9 83.9705 147.036 83.3402 147.309L83.5784 147.859C84.1321 147.62 84.7155 147.5 85.3313 147.5V146.9ZM83.3375 147.31C82.7289 147.58 82.194 147.945 81.7352 148.404L82.1594 148.828C82.5646 148.423 83.0377 148.1 83.5811 147.858L83.3375 147.31ZM81.7352 148.404C81.2749 148.864 80.9101 149.408 80.6399 150.033L81.1907 150.271C81.4325 149.712 81.7557 149.232 82.1594 148.828L81.7352 148.404ZM80.6412 150.03C80.3674 150.646 80.2313 151.304 80.2313 152H80.8313C80.8313 151.384 80.9512 150.81 81.1894 150.274L80.6412 150.03ZM80.2313 152C80.2313 152.696 80.3674 153.361 80.6399 153.991L81.1907 153.753C80.9512 153.199 80.8313 152.616 80.8313 152H80.2313ZM80.6412 153.994C80.9116 154.602 81.2763 155.137 81.7352 155.596L82.1594 155.172C81.7543 154.767 81.431 154.294 81.1894 153.75L80.6412 153.994ZM81.7352 155.596C82.194 156.055 82.7289 156.42 83.3375 156.69L83.5811 156.142C83.0377 155.9 82.5646 155.577 82.1594 155.172L81.7352 155.596ZM83.3402 156.691C83.9705 156.964 84.6351 157.1 85.3313 157.1V156.5C84.7155 156.5 84.1321 156.38 83.5784 156.141L83.3402 156.691ZM102.769 156.536L102.869 156.819L102.877 156.816L102.769 156.536ZM104.113 155.768L103.93 155.53L103.926 155.534L104.113 155.768ZM105.169 154.64L104.921 154.472L104.919 154.474L105.169 154.64ZM105.841 153.2V152.9H105.614L105.552 153.119L105.841 153.2ZM107.041 153.2L107.335 153.261L107.41 152.9H107.041V153.2ZM106.273 155.12L106.526 155.282L106.528 155.278L106.273 155.12ZM103.201 157.64L103.098 157.358L103.096 157.359L103.201 157.64ZM98.785 157.544L98.6631 157.818L98.6705 157.821L98.785 157.544ZM96.889 156.272L96.6736 156.481L96.68 156.487L96.889 156.272ZM95.617 154.376L95.3396 154.491L95.3428 154.498L95.617 154.376ZM95.617 149.648L95.3418 149.528L95.3397 149.533L95.617 149.648ZM96.889 147.752L97.1011 147.964V147.964L96.889 147.752ZM98.785 146.48L98.9017 146.756L98.9046 146.755L98.785 146.48ZM103.201 146.36L103.096 146.641L103.098 146.642L103.201 146.36ZM106.273 148.904L106.018 149.062L106.02 149.066L106.273 148.904ZM107.041 150.8V151.1H107.41L107.335 150.739L107.041 150.8ZM105.841 150.8L105.552 150.881L105.614 151.1H105.841V150.8ZM105.169 149.384L104.916 149.546L104.924 149.557L105.169 149.384ZM104.113 148.232L103.926 148.466L103.93 148.47L104.113 148.232ZM102.769 147.488L102.661 147.768L102.669 147.771L102.769 147.488ZM99.289 147.584L99.1699 147.309L99.1671 147.31L99.289 147.584ZM97.777 148.616L97.5649 148.404V148.404L97.777 148.616ZM96.745 150.152L97.0191 150.274L97.0203 150.271L96.745 150.152ZM96.745 153.872L96.4696 153.991L96.4708 153.994L96.745 153.872ZM99.289 156.416L99.1671 156.69L99.1699 156.691L99.289 156.416ZM101.161 157.1C101.768 157.1 102.338 157.007 102.869 156.819L102.669 156.253C102.208 156.417 101.706 156.5 101.161 156.5V157.1ZM102.877 156.816C103.401 156.613 103.876 156.342 104.3 156.002L103.926 155.534C103.55 155.834 103.129 156.075 102.661 156.256L102.877 156.816ZM104.296 156.006C104.738 155.666 105.112 155.266 105.419 154.806L104.919 154.474C104.65 154.878 104.32 155.23 103.93 155.53L104.296 156.006ZM105.417 154.808C105.739 154.334 105.977 153.825 106.13 153.281L105.552 153.119C105.417 153.599 105.207 154.05 104.921 154.472L105.417 154.808ZM105.841 153.5H107.041V152.9H105.841V153.5ZM106.747 153.139C106.61 153.793 106.368 154.4 106.018 154.962L106.528 155.278C106.914 154.656 107.184 153.983 107.335 153.261L106.747 153.139ZM106.02 154.958C105.668 155.51 105.248 155.991 104.76 156.403L105.146 156.861C105.682 156.409 106.142 155.882 106.526 155.282L106.02 154.958ZM104.76 156.403C104.275 156.811 103.722 157.13 103.098 157.358L103.304 157.922C103.992 157.67 104.606 157.317 105.146 156.861L104.76 156.403ZM103.096 157.359C102.491 157.586 101.847 157.7 101.161 157.7V158.3C101.915 158.3 102.631 158.174 103.306 157.921L103.096 157.359ZM101.161 157.7C100.35 157.7 99.5969 157.555 98.8995 157.267L98.6705 157.821C99.4451 158.141 100.276 158.3 101.161 158.3V157.7ZM98.9068 157.27C98.2178 156.964 97.6156 156.559 97.0979 156.057L96.68 156.487C97.2504 157.041 97.9122 157.484 98.6631 157.818L98.9068 157.27ZM97.1043 156.063C96.6018 155.545 96.1974 154.943 95.8911 154.254L95.3428 154.498C95.6766 155.249 96.1202 155.911 96.6737 156.481L97.1043 156.063ZM95.8943 154.261C95.6062 153.564 95.461 152.811 95.461 152H94.861C94.861 152.885 95.0198 153.716 95.3397 154.491L95.8943 154.261ZM95.461 152C95.461 151.206 95.6059 150.461 95.8943 149.763L95.3397 149.533C95.02 150.307 94.861 151.13 94.861 152H95.461ZM95.8921 149.768C96.1982 149.064 96.6017 148.464 97.1011 147.964L96.6769 147.54C96.1203 148.096 95.6757 148.76 95.3419 149.528L95.8921 149.768ZM97.1011 147.964C97.6173 147.448 98.2168 147.046 98.9017 146.756L98.6683 146.204C97.9132 146.522 97.2487 146.968 96.6769 147.54L97.1011 147.964ZM98.9046 146.755C99.6007 146.452 100.352 146.3 101.161 146.3V145.7C100.274 145.7 99.4412 145.868 98.6654 146.205L98.9046 146.755ZM101.161 146.3C101.847 146.3 102.491 146.414 103.096 146.641L103.306 146.079C102.631 145.826 101.915 145.7 101.161 145.7V146.3ZM103.098 146.642C103.722 146.87 104.275 147.189 104.76 147.597L105.146 147.139C104.606 146.683 103.992 146.33 103.304 146.078L103.098 146.642ZM104.76 147.597C105.247 148.008 105.666 148.496 106.018 149.062L106.528 148.746C106.144 148.128 105.683 147.592 105.146 147.139L104.76 147.597ZM106.02 149.066C106.368 149.61 106.611 150.208 106.747 150.861L107.335 150.739C107.183 150.016 106.914 149.35 106.526 148.742L106.02 149.066ZM107.041 150.5H105.841V151.1H107.041V150.5ZM106.13 150.719C105.977 150.174 105.738 149.671 105.414 149.211L104.924 149.557C105.208 149.961 105.417 150.402 105.552 150.881L106.13 150.719ZM105.421 149.222C105.115 148.745 104.74 148.336 104.296 147.994L103.93 148.47C104.318 148.768 104.647 149.127 104.917 149.546L105.421 149.222ZM104.3 147.998C103.874 147.656 103.396 147.392 102.869 147.205L102.669 147.771C103.134 147.936 103.552 148.168 103.926 148.466L104.3 147.998ZM102.877 147.208C102.344 147.002 101.771 146.9 101.161 146.9V147.5C101.703 147.5 102.202 147.59 102.661 147.768L102.877 147.208ZM101.161 146.9C100.465 146.9 99.8002 147.036 99.1699 147.309L99.4081 147.859C99.9618 147.62 100.545 147.5 101.161 147.5V146.9ZM99.1671 147.31C98.5586 147.58 98.0237 147.945 97.5649 148.404L97.9891 148.828C98.3943 148.423 98.8674 148.1 99.4108 147.858L99.1671 147.31ZM97.5649 148.404C97.1046 148.864 96.7398 149.408 96.4696 150.033L97.0203 150.271C97.2622 149.712 97.5853 149.232 97.9891 148.828L97.5649 148.404ZM96.4708 150.03C96.1971 150.646 96.061 151.304 96.061 152H96.661C96.661 151.384 96.7809 150.81 97.0191 150.274L96.4708 150.03ZM96.061 152C96.061 152.696 96.1971 153.361 96.4696 153.991L97.0203 153.753C96.7809 153.199 96.661 152.616 96.661 152H96.061ZM96.4708 153.994C96.7413 154.602 97.106 155.137 97.5649 155.596L97.9891 155.172C97.584 154.767 97.2607 154.294 97.0191 153.75L96.4708 153.994ZM97.5649 155.596C98.0237 156.055 98.5586 156.42 99.1671 156.69L99.4108 156.142C98.8674 155.9 98.3943 155.577 97.9891 155.172L97.5649 155.596ZM99.1699 156.691C99.8002 156.964 100.465 157.1 101.161 157.1V156.5C100.545 156.5 99.9618 156.38 99.4081 156.141L99.1699 156.691ZM119.585 155.984L119.414 155.738V155.738L119.585 155.984ZM121.313 153.8V153.5H121.111L121.035 153.688L121.313 153.8ZM122.633 153.8L122.917 153.897L123.053 153.5H122.633V153.8ZM121.745 155.48L121.505 155.3L121.502 155.305L121.745 155.48ZM120.425 156.8L120.25 156.556L120.247 156.559L120.425 156.8ZM118.769 157.688L118.867 157.972L118.873 157.97L118.769 157.688ZM114.497 157.544L114.376 157.818L114.383 157.821L114.497 157.544ZM112.601 156.272L112.386 156.481L112.393 156.487L112.601 156.272ZM111.329 154.376L111.052 154.491L111.055 154.498L111.329 154.376ZM111.329 149.648L111.054 149.528L111.052 149.533L111.329 149.648ZM112.601 147.752L112.814 147.964V147.964L112.601 147.752ZM114.497 146.48L114.614 146.756L114.617 146.755L114.497 146.48ZM119.225 146.48L119.106 146.755L119.111 146.757L119.225 146.48ZM121.121 147.752L120.906 147.961L120.913 147.967L121.121 147.752ZM122.393 149.648L122.116 149.763L122.118 149.768L122.393 149.648ZM122.873 152.6V152.9H123.173V152.6H122.873ZM112.073 152.6V152.3H111.722L111.777 152.647L112.073 152.6ZM112.625 154.28L112.36 154.421L112.364 154.427L112.625 154.28ZM113.705 155.6L113.511 155.828V155.828L113.705 155.6ZM115.145 156.488L115.028 156.764L115.038 156.768L115.145 156.488ZM115.145 147.536L115.255 147.815L115.26 147.813L115.145 147.536ZM112.625 149.744L112.362 149.6L112.361 149.603L112.625 149.744ZM112.073 151.4L111.777 151.352L111.721 151.7H112.073V151.4ZM121.673 151.4V151.7H122.026L121.97 151.352L121.673 151.4ZM121.097 149.744L120.831 149.881L120.836 149.891L121.097 149.744ZM120.041 148.4L120.236 148.172V148.172L120.041 148.4ZM118.577 147.536L118.463 147.813L118.47 147.816L118.577 147.536ZM116.873 157.1C117.954 157.1 118.919 156.812 119.757 156.23L119.414 155.738C118.684 156.244 117.841 156.5 116.873 156.5V157.1ZM119.757 156.23C120.59 155.652 121.203 154.877 121.592 153.912L121.035 153.688C120.688 154.547 120.149 155.228 119.414 155.738L119.757 156.23ZM121.313 154.1H122.633V153.5H121.313V154.1ZM122.35 153.703C122.152 154.281 121.871 154.813 121.505 155.3L121.985 155.66C122.388 155.123 122.699 154.535 122.917 153.897L122.35 153.703ZM121.502 155.305C121.153 155.791 120.736 156.207 120.25 156.556L120.601 157.044C121.139 156.657 121.602 156.193 121.989 155.655L121.502 155.305ZM120.247 156.559C119.775 156.909 119.248 157.192 118.666 157.406L118.873 157.97C119.507 157.736 120.084 157.427 120.604 157.041L120.247 156.559ZM118.672 157.404C118.096 157.601 117.497 157.7 116.873 157.7V158.3C117.562 158.3 118.227 158.191 118.867 157.972L118.672 157.404ZM116.873 157.7C116.062 157.7 115.309 157.555 114.612 157.267L114.383 157.821C115.158 158.141 115.989 158.3 116.873 158.3V157.7ZM114.619 157.27C113.93 156.964 113.328 156.559 112.81 156.057L112.393 156.487C112.963 157.041 113.625 157.484 114.376 157.818L114.619 157.27ZM112.817 156.063C112.314 155.545 111.91 154.943 111.604 154.254L111.055 154.498C111.389 155.249 111.833 155.911 112.386 156.481L112.817 156.063ZM111.607 154.261C111.319 153.564 111.173 152.811 111.173 152H110.573C110.573 152.885 110.732 153.716 111.052 154.491L111.607 154.261ZM111.173 152C111.173 151.206 111.318 150.461 111.607 149.763L111.052 149.533C110.733 150.307 110.573 151.13 110.573 152H111.173ZM111.605 149.768C111.911 149.064 112.314 148.464 112.814 147.964L112.389 147.54C111.833 148.096 111.388 148.76 111.054 149.528L111.605 149.768ZM112.814 147.964C113.33 147.448 113.929 147.046 114.614 146.756L114.381 146.204C113.626 146.522 112.961 146.968 112.389 147.54L112.814 147.964ZM114.617 146.755C115.313 146.452 116.064 146.3 116.873 146.3V145.7C115.987 145.7 115.154 145.868 114.378 146.205L114.617 146.755ZM116.873 146.3C117.666 146.3 118.409 146.452 119.106 146.755L119.345 146.205C118.57 145.868 117.745 145.7 116.873 145.7V146.3ZM119.111 146.757C119.811 147.046 120.408 147.448 120.906 147.961L121.337 147.543C120.779 146.968 120.112 146.522 119.34 146.203L119.111 146.757ZM120.913 147.967C121.426 148.465 121.827 149.062 122.116 149.763L122.671 149.533C122.352 148.762 121.905 148.095 121.33 147.537L120.913 147.967ZM122.118 149.768C122.421 150.464 122.573 151.208 122.573 152H123.173C123.173 151.128 123.006 150.304 122.669 149.528L122.118 149.768ZM122.573 152V152.6H123.173V152H122.573ZM122.873 152.3H120.713V152.9H122.873V152.3ZM120.713 152.3H112.073V152.9H120.713V152.3ZM111.777 152.647C111.878 153.286 112.072 153.878 112.361 154.421L112.89 154.139C112.635 153.658 112.461 153.13 112.37 152.553L111.777 152.647ZM112.364 154.427C112.669 154.969 113.051 155.437 113.511 155.828L113.9 155.372C113.496 155.027 113.158 154.615 112.887 154.133L112.364 154.427ZM113.511 155.828C113.966 156.216 114.473 156.528 115.028 156.764L115.263 156.212C114.762 156 114.309 155.72 113.9 155.372L113.511 155.828ZM115.038 156.768C115.618 156.99 116.23 157.1 116.873 157.1V156.5C116.3 156.5 115.761 156.402 115.253 156.208L115.038 156.768ZM116.873 146.9C116.228 146.9 115.613 147.019 115.031 147.259L115.26 147.813C115.766 147.605 116.303 147.5 116.873 147.5V146.9ZM115.036 147.257C114.477 147.477 113.968 147.782 113.511 148.172L113.9 148.628C114.307 148.282 114.758 148.011 115.255 147.815L115.036 147.257ZM113.511 148.172C113.049 148.565 112.667 149.042 112.362 149.6L112.889 149.888C113.16 149.39 113.498 148.971 113.9 148.628L113.511 148.172ZM112.361 149.603C112.073 150.145 111.878 150.729 111.777 151.352L112.37 151.448C112.461 150.887 112.634 150.367 112.89 149.885L112.361 149.603ZM112.073 151.7H121.673V151.1H112.073V151.7ZM121.97 151.352C121.868 150.726 121.665 150.14 121.359 149.597L120.836 149.891C121.106 150.372 121.287 150.89 121.377 151.448L121.97 151.352ZM121.364 149.607C121.075 149.046 120.699 148.566 120.236 148.172L119.847 148.628C120.248 148.97 120.576 149.386 120.831 149.881L121.364 149.607ZM120.236 148.172C119.777 147.781 119.26 147.476 118.685 147.256L118.47 147.816C118.983 148.012 119.442 148.283 119.847 148.628L120.236 148.172ZM118.692 147.259C118.111 147.02 117.504 146.9 116.873 146.9V147.5C117.427 147.5 117.956 147.604 118.463 147.813L118.692 147.259Z" fill="black" mask="url(#path-3-outside-1_1523_3770)"/>
<defs>
<clipPath id="clip0_1523_3770">
<rect width="125" height="124" fill="white" transform="translate(0.300049)"/>
</clipPath>
</defs>
</svg>
