<svg width="360" height="360" viewBox="0 0 360 360" fill="none" xmlns="http://www.w3.org/2000/svg">
<path d="M360 275.328H0V275.508H360V275.328Z" fill="#EBEBEB"/>
<path d="M323.928 286.913H300.082V287.093H323.928V286.913Z" fill="#EBEBEB"/>
<path d="M238.478 288.871H232.222V289.051H238.478V288.871Z" fill="#EBEBEB"/>
<path d="M299.362 280.231H285.545V280.411H299.362V280.231Z" fill="#EBEBEB"/>
<path d="M68.868 281.441H37.7712V281.621H68.868V281.441Z" fill="#EBEBEB"/>
<path d="M79.8408 281.441H75.2832V281.621H79.8408V281.441Z" fill="#EBEBEB"/>
<path d="M162.108 284.479H94.6584V284.659H162.108V284.479Z" fill="#EBEBEB"/>
<path d="M170.64 243.216H31.6152C30.5261 243.214 29.4823 242.78 28.7128 242.009C27.9434 241.239 27.5112 240.194 27.5112 239.105V43.6753C27.5207 42.5924 27.957 41.557 28.7255 40.794C29.4939 40.031 30.5323 39.602 31.6152 39.6001H170.64C171.73 39.6001 172.776 40.0332 173.547 40.8042C174.318 41.5752 174.751 42.6209 174.751 43.7113V239.105C174.751 240.195 174.318 241.241 173.547 242.012C172.776 242.783 171.73 243.216 170.64 243.216ZM31.6152 39.7441C30.5739 39.746 29.5758 40.161 28.8401 40.8981C28.1044 41.6351 27.6912 42.6339 27.6912 43.6753V239.105C27.6912 240.146 28.1044 241.145 28.8401 241.882C29.5758 242.619 30.5739 243.034 31.6152 243.036H170.64C171.682 243.034 172.681 242.619 173.418 241.883C174.155 241.146 174.569 240.147 174.571 239.105V43.6753C174.569 42.6333 174.155 41.6345 173.418 40.8976C172.681 40.1608 171.682 39.746 170.64 39.7441H31.6152Z" fill="#EBEBEB"/>
<path d="M326.383 243.216H187.351C186.261 243.214 185.217 242.78 184.446 242.01C183.676 241.239 183.242 240.195 183.24 239.105V43.6753C183.251 42.5918 183.689 41.5564 184.459 40.7936C185.228 40.0307 186.268 39.6019 187.351 39.6001H326.383C327.465 39.6038 328.501 40.0337 329.268 40.7965C330.035 41.5594 330.471 42.5937 330.48 43.6753V239.105C330.48 240.193 330.049 241.236 329.281 242.007C328.513 242.777 327.471 243.212 326.383 243.216ZM187.351 39.7441C186.309 39.746 185.31 40.1608 184.574 40.8976C183.837 41.6345 183.422 42.6333 183.42 43.6753V239.105C183.422 240.147 183.837 241.146 184.574 241.883C185.31 242.619 186.309 243.034 187.351 243.036H326.383C327.425 243.034 328.424 242.619 329.161 241.883C329.898 241.146 330.312 240.147 330.314 239.105V43.6753C330.312 42.6333 329.898 41.6345 329.161 40.8976C328.424 40.1608 327.425 39.746 326.383 39.7441H187.351Z" fill="#EBEBEB"/>
<path d="M85.2192 97.3655C96.2698 97.3655 105.228 88.4073 105.228 77.3567C105.228 66.3061 96.2698 57.3479 85.2192 57.3479C74.1687 57.3479 65.2104 66.3061 65.2104 77.3567C65.2104 88.4073 74.1687 97.3655 85.2192 97.3655Z" fill="#FAFAFA"/>
<path d="M74.8368 77.1263C74.8368 76.204 74.4704 75.3195 73.8182 74.6673C73.166 74.0151 72.2815 73.6487 71.3592 73.6487C71.0222 73.6474 70.687 73.6984 70.3656 73.7999C70.4176 73.4447 70.444 73.0862 70.4448 72.7271C70.4448 70.7737 69.6688 68.9002 68.2875 67.5189C66.9061 66.1376 65.0327 65.3615 63.0792 65.3615C62.6226 65.364 62.1672 65.4074 61.7184 65.4911C60.9949 64.2952 59.9013 63.3676 58.6033 62.8488C57.3053 62.3301 55.8736 62.2484 54.5251 62.6163C53.1766 62.9841 51.9847 63.7814 51.1299 64.8874C50.2751 65.9934 49.804 67.3478 49.788 68.7455H49.68C48.1027 68.7455 46.59 69.3721 45.4747 70.4874C44.3594 71.6028 43.7328 73.1154 43.7328 74.6927C43.7328 76.27 44.3594 77.7827 45.4747 78.898C46.59 80.0134 48.1027 80.6399 49.68 80.6399H71.46C72.3704 80.6117 73.2335 80.2282 73.8647 79.5715C74.4958 78.9148 74.8448 78.0371 74.8368 77.1263Z" fill="#F5F5F5"/>
<path d="M253.332 93.24C253.331 92.698 253.204 92.1637 252.96 91.6796C252.716 91.1955 252.363 90.7749 251.928 90.4512C251.493 90.1276 250.989 89.9098 250.455 89.8152C249.922 89.7207 249.373 89.7519 248.854 89.9064C249.009 88.86 248.937 87.7923 248.642 86.7764C248.347 85.7604 247.836 84.8201 247.144 84.0197C246.452 83.2193 245.596 82.5776 244.634 82.1384C243.671 81.6993 242.625 81.4731 241.567 81.4753C241.113 81.4745 240.66 81.5179 240.214 81.6048C239.488 80.4107 238.394 79.485 237.096 78.9675C235.798 78.45 234.367 78.3689 233.019 78.7364C231.671 79.1039 230.479 79.9 229.624 81.0046C228.768 82.1092 228.295 83.4622 228.276 84.8592H228.168C227.389 84.8592 226.617 85.0127 225.898 85.3109C225.178 85.609 224.524 86.046 223.973 86.5969C223.422 87.1478 222.985 87.8019 222.687 88.5217C222.389 89.2415 222.235 90.0129 222.235 90.792C222.235 91.5712 222.389 92.3426 222.687 93.0624C222.985 93.7822 223.422 94.4363 223.973 94.9872C224.524 95.5381 225.178 95.9751 225.898 96.2732C226.617 96.5714 227.389 96.7248 228.168 96.7248H249.948C250.856 96.7022 251.719 96.3247 252.351 95.6732C252.984 95.0217 253.336 94.1482 253.332 93.24Z" fill="#F5F5F5"/>
<path d="M155.246 70.74C155.246 69.8177 155.613 68.9332 156.265 68.281C156.917 67.6288 157.802 67.2624 158.724 67.2624C159.061 67.2611 159.396 67.3121 159.718 67.4136C159.666 67.0584 159.639 66.6999 159.638 66.3408C159.638 65.3705 159.83 64.4098 160.202 63.5138C160.575 62.6178 161.121 61.8042 161.808 61.1198C162.496 60.4354 163.312 59.8936 164.21 59.5256C165.108 59.1575 166.07 58.9705 167.04 58.9753C167.497 58.9777 167.952 59.0211 168.401 59.1048C169.126 57.9107 170.22 56.985 171.518 56.4675C172.816 55.95 174.247 55.8689 175.595 56.2364C176.943 56.6039 178.135 57.4 178.991 58.5046C179.846 59.6092 180.319 60.9622 180.338 62.3592H180.439C182.013 62.3592 183.522 62.9843 184.634 64.0969C185.747 65.2095 186.372 66.7186 186.372 68.292C186.372 69.8655 185.747 71.3746 184.634 72.4872C183.522 73.5998 182.013 74.2248 180.439 74.2248H158.623C157.717 74.2004 156.856 73.822 156.224 73.1707C155.593 72.5194 155.242 71.647 155.246 70.74Z" fill="#F5F5F5"/>
<path d="M118.476 87.5449C118.476 87.2085 118.397 86.8769 118.245 86.5765C118.094 86.2761 117.875 86.0151 117.605 85.8144C117.335 85.6138 117.022 85.4789 116.691 85.4205C116.359 85.3622 116.019 85.3821 115.697 85.4785C115.728 85.259 115.745 85.0377 115.747 84.8161C115.747 84.2147 115.629 83.6193 115.399 83.0637C115.169 82.5081 114.831 82.0033 114.406 81.5781C113.981 81.1529 113.476 80.8156 112.92 80.5854C112.365 80.3553 111.769 80.2369 111.168 80.2369C110.883 80.2376 110.599 80.2641 110.318 80.3161C109.869 79.5721 109.189 78.995 108.382 78.6723C107.575 78.3495 106.685 78.2986 105.846 78.5274C105.008 78.7561 104.267 79.252 103.736 79.9399C103.204 80.6278 102.912 81.4702 102.902 82.3393H102.838C102.339 82.3173 101.842 82.3964 101.375 82.5719C100.908 82.7474 100.481 83.0157 100.121 83.3605C99.7607 83.7053 99.4739 84.1195 99.2779 84.5782C99.082 85.0369 98.981 85.5305 98.981 86.0293C98.981 86.5281 99.082 87.0217 99.2779 87.4803C99.4739 87.939 99.7607 88.3532 100.121 88.6981C100.481 89.0429 100.908 89.3111 101.375 89.4866C101.842 89.6622 102.339 89.7413 102.838 89.7193H116.381C116.945 89.7024 117.48 89.4654 117.871 89.059C118.263 88.6526 118.48 88.1092 118.476 87.5449Z" fill="#F5F5F5"/>
<path d="M127.274 125.345C127.274 124.772 127.502 124.223 127.907 123.817C128.312 123.412 128.862 123.185 129.434 123.185C129.644 123.183 129.852 123.213 130.054 123.271C130.025 123.052 130.01 122.83 130.01 122.609C130.01 122.007 130.129 121.412 130.359 120.856C130.589 120.301 130.926 119.796 131.352 119.371C131.777 118.946 132.282 118.608 132.837 118.378C133.393 118.148 133.988 118.03 134.59 118.03C134.872 118.03 135.154 118.057 135.432 118.109C135.881 117.365 136.561 116.788 137.368 116.465C138.175 116.142 139.065 116.091 139.904 116.32C140.742 116.549 141.484 117.045 142.015 117.733C142.546 118.421 142.839 119.263 142.848 120.132H142.92C143.898 120.132 144.835 120.52 145.527 121.212C146.218 121.903 146.606 122.841 146.606 123.818C146.606 124.796 146.218 125.734 145.527 126.425C144.835 127.116 143.898 127.505 142.92 127.505H129.377C128.814 127.49 128.279 127.256 127.887 126.852C127.494 126.449 127.274 125.908 127.274 125.345Z" fill="#F5F5F5"/>
<path d="M279.727 123.876C279.727 123.303 279.955 122.754 280.36 122.349C280.765 121.943 281.314 121.716 281.887 121.716C282.099 121.718 282.31 121.749 282.514 121.809C282.479 121.59 282.462 121.369 282.463 121.147C282.463 119.933 282.946 118.768 283.804 117.909C284.663 117.05 285.828 116.568 287.042 116.568C287.325 116.565 287.608 116.592 287.885 116.647C288.336 115.905 289.017 115.33 289.823 115.008C290.63 114.687 291.52 114.636 292.358 114.865C293.196 115.093 293.937 115.588 294.469 116.274C295.001 116.961 295.296 117.802 295.308 118.67H295.373C296.323 118.712 297.221 119.119 297.879 119.807C298.536 120.494 298.903 121.409 298.903 122.36C298.903 123.312 298.536 124.226 297.879 124.914C297.221 125.601 296.323 126.008 295.373 126.05H281.83C281.264 126.035 280.727 125.799 280.334 125.392C279.941 124.986 279.723 124.441 279.727 123.876Z" fill="#F5F5F5"/>
<path d="M116.518 144.029H110.606V274.306H116.518V144.029Z" fill="#F5F5F5"/>
<path d="M66.1176 144.029H60.2064V274.306H66.1176V144.029Z" fill="#F5F5F5"/>
<path d="M152.518 177.336H146.606V274.306H152.518V177.336Z" fill="#E6E6E6"/>
<path d="M102.118 177.336H96.2064V274.306H102.118V177.336Z" fill="#E6E6E6"/>
<path d="M88.9776 161.806H43.5168L26.0784 124.092H71.5392L88.9776 161.806Z" fill="#F5F5F5"/>
<path d="M80.4671 143.395H35.0063L34.5887 142.502H80.0495L80.4671 143.395Z" fill="#FAFAFA"/>
<path d="M51.6168 161.806H50.5368L33.0984 124.092H34.1784L51.6168 161.806Z" fill="#FAFAFA"/>
<path d="M59.1985 161.806H58.1185L40.6873 124.092H41.7673L59.1985 161.806Z" fill="#FAFAFA"/>
<path d="M66.7872 161.806H65.7072L48.2688 124.092H49.3488L66.7872 161.806Z" fill="#FAFAFA"/>
<path d="M74.3687 161.806H73.2887L55.8503 124.092H56.9303L74.3687 161.806Z" fill="#FAFAFA"/>
<path d="M81.9504 161.806H80.8704L63.4392 124.092H64.5192L81.9504 161.806Z" fill="#FAFAFA"/>
<path d="M136.937 161.806H101.405L87.7751 132.329H123.314L136.937 161.806Z" fill="#F5F5F5"/>
<path d="M130.291 147.42H94.752L94.428 146.714H129.967L130.291 147.42Z" fill="#FAFAFA"/>
<path d="M107.741 161.806H106.898L93.2688 132.329H94.1112L107.741 161.806Z" fill="#FAFAFA"/>
<path d="M113.666 161.806H112.824L99.1945 132.329H100.037L113.666 161.806Z" fill="#FAFAFA"/>
<path d="M119.592 161.806H118.75L105.12 132.329H105.97L119.592 161.806Z" fill="#FAFAFA"/>
<path d="M125.525 161.806H124.675L111.053 132.329H111.895L125.525 161.806Z" fill="#FAFAFA"/>
<path d="M131.45 161.806H130.608L116.978 132.329H117.821L131.45 161.806Z" fill="#FAFAFA"/>
<path d="M127.656 189.151H82.1952L64.764 151.445H110.225L127.656 189.151Z" fill="#EBEBEB"/>
<path d="M119.146 170.748H73.6848L73.2744 169.848H118.735L119.146 170.748Z" fill="#F5F5F5"/>
<path d="M90.3023 189.151H89.2223L71.7839 151.445H72.8639L90.3023 189.151Z" fill="#F5F5F5"/>
<path d="M97.884 189.151H96.804L79.3656 151.445H80.4456L97.884 189.151Z" fill="#F5F5F5"/>
<path d="M105.466 189.151H104.386L86.9543 151.445H88.0343L105.466 189.151Z" fill="#F5F5F5"/>
<path d="M113.054 189.151H111.974L94.536 151.445H95.616L113.054 189.151Z" fill="#F5F5F5"/>
<path d="M120.636 189.151H119.556L102.118 151.445H103.198L120.636 189.151Z" fill="#F5F5F5"/>
<path d="M173.894 189.151H138.362L124.733 159.674H160.265L173.894 189.151Z" fill="#EBEBEB"/>
<path d="M167.242 174.766H131.71L131.386 174.067H166.918L167.242 174.766Z" fill="#F5F5F5"/>
<path d="M144.698 189.151H143.849L130.226 159.682H131.069L144.698 189.151Z" fill="#F5F5F5"/>
<path d="M150.624 189.151H149.782L136.152 159.682H136.994L150.624 189.151Z" fill="#F5F5F5"/>
<path d="M156.55 189.151H155.707L142.078 159.682H142.92L156.55 189.151Z" fill="#F5F5F5"/>
<path d="M162.482 189.151H161.633L148.003 159.682H148.853L162.482 189.151Z" fill="#F5F5F5"/>
<path d="M168.408 189.151H167.566L153.936 159.682H154.778L168.408 189.151Z" fill="#F5F5F5"/>
<path d="M215.748 274.32L214.596 103.277C214.592 102.75 214.38 102.247 214.007 101.876C213.633 101.505 213.128 101.297 212.602 101.297C212.075 101.297 211.57 101.505 211.196 101.876C210.823 102.247 210.611 102.75 210.607 103.277L209.448 274.32H215.748Z" fill="#F5F5F5"/>
<path d="M210.859 110.448L192.312 134.525C192.249 134.605 192.203 134.697 192.175 134.795C192.148 134.893 192.141 134.996 192.153 135.097C192.166 135.198 192.199 135.296 192.249 135.384C192.3 135.472 192.368 135.55 192.449 135.612C192.601 135.729 192.791 135.786 192.982 135.771C193.174 135.757 193.353 135.672 193.486 135.533L212.206 115.934L211.212 113.616L212.652 111.794L210.859 110.448Z" fill="#F0F0F0"/>
<path d="M212.602 111.794L200.894 83.7143C200.815 83.5245 200.663 83.374 200.473 83.2958C200.283 83.2175 200.069 83.2178 199.879 83.2967C199.703 83.3732 199.562 83.5113 199.481 83.6851C199.4 83.8588 199.385 84.0562 199.44 84.2399L207.187 110.16L209.693 110.455L210.578 112.579L212.602 111.794Z" fill="#F0F0F0"/>
<path d="M210.629 112.637L240.869 115.819C240.973 115.83 241.078 115.82 241.178 115.789C241.277 115.759 241.37 115.708 241.45 115.641C241.53 115.574 241.596 115.491 241.643 115.398C241.69 115.305 241.718 115.203 241.726 115.099C241.746 114.908 241.694 114.716 241.581 114.56C241.468 114.405 241.302 114.297 241.114 114.257L214.632 108.605L213.192 110.664L210.895 110.419L210.629 112.637Z" fill="#F0F0F0"/>
<path d="M258.818 274.32L257.537 84.2401C257.533 83.6544 257.298 83.0941 256.882 82.6813C256.467 82.2685 255.905 82.0369 255.319 82.0369C254.733 82.0369 254.172 82.2685 253.756 82.6813C253.341 83.0941 253.105 83.6544 253.102 84.2401L251.82 274.32H258.818Z" fill="#F5F5F5"/>
<path d="M253.382 92.2463L232.776 118.994C232.706 119.084 232.655 119.186 232.625 119.296C232.595 119.405 232.587 119.52 232.602 119.632C232.617 119.745 232.654 119.853 232.711 119.951C232.768 120.05 232.844 120.135 232.934 120.204C233.103 120.333 233.313 120.395 233.525 120.377C233.736 120.36 233.934 120.265 234.079 120.11L254.88 98.3375L253.757 95.7599L255.319 93.7295L253.382 92.2463Z" fill="#EBEBEB"/>
<path d="M255.319 93.7369L242.316 62.5753C242.227 62.3644 242.058 62.1971 241.847 62.1095C241.635 62.0219 241.398 62.0211 241.186 62.1073C240.989 62.1892 240.829 62.3412 240.737 62.5339C240.645 62.7267 240.628 62.9466 240.689 63.1513L249.293 91.9873L252.079 92.3113L253.066 94.6729L255.319 93.7369Z" fill="#EBEBEB"/>
<path d="M253.13 94.6727L286.711 98.2079C286.823 98.2199 286.937 98.2097 287.045 98.1778C287.153 98.1459 287.254 98.0929 287.341 98.0221C287.429 97.9512 287.502 97.8637 287.555 97.7646C287.609 97.6655 287.643 97.5568 287.654 97.4447C287.677 97.2327 287.62 97.0198 287.495 96.847C287.37 96.6742 287.186 96.5537 286.978 96.5087L257.551 90.2231L255.931 92.5128L253.382 92.2463L253.13 94.6727Z" fill="#EBEBEB"/>
<path d="M301.874 274.32L300.434 63.1585C300.431 62.5079 300.169 61.8853 299.708 61.4266C299.247 60.9679 298.623 60.7104 297.972 60.7104C297.321 60.7104 296.697 60.9679 296.236 61.4266C295.775 61.8853 295.513 62.5079 295.51 63.1585L294.07 274.32H301.874Z" fill="#F0F0F0"/>
<path d="M295.834 72L272.938 101.722C272.783 101.924 272.715 102.178 272.747 102.43C272.78 102.682 272.91 102.912 273.11 103.068C273.298 103.211 273.532 103.28 273.767 103.261C274.002 103.243 274.222 103.138 274.385 102.967L297.468 78.7752L296.244 75.8952L297.986 73.6344L295.834 72Z" fill="#E6E6E6"/>
<path d="M297.986 73.6704L283.536 39.0456C283.487 38.929 283.416 38.8231 283.326 38.7342C283.236 38.6453 283.13 38.575 283.012 38.5275C282.895 38.48 282.77 38.4561 282.644 38.4573C282.517 38.4585 282.392 38.4847 282.276 38.5344C282.059 38.6271 281.883 38.7963 281.782 39.01C281.681 39.2236 281.662 39.4669 281.729 39.6936L291.29 71.7336L294.379 72.0864L295.481 74.7144L297.986 73.6704Z" fill="#E6E6E6"/>
<path d="M295.553 74.7143L332.863 78.6455C332.989 78.6595 333.116 78.6483 333.237 78.6126C333.358 78.5769 333.471 78.5174 333.568 78.4376C333.666 78.3579 333.747 78.2594 333.807 78.148C333.866 78.0366 333.903 77.9145 333.914 77.7887C333.939 77.5583 333.88 77.3266 333.747 77.1363C333.615 76.9459 333.419 76.8095 333.194 76.7519L300.492 69.7751L298.699 72.3095L295.862 72.0143L295.553 74.7143Z" fill="#E6E6E6"/>
<path d="M180 307.843C257.099 307.843 319.601 304.194 319.601 299.693C319.601 295.192 257.099 291.542 180 291.542C102.901 291.542 40.3992 295.192 40.3992 299.693C40.3992 304.194 102.901 307.843 180 307.843Z" fill="#F5F5F5"/>
<path d="M297.411 286.805C297.632 260.9 296.152 235.008 292.983 209.297C289.757 184.162 292.853 172.433 292.853 172.433L294.588 172.764C294.588 172.764 291.773 182.189 297.411 220.918C300.416 242.48 302.128 264.203 302.537 285.97L297.411 286.805Z" fill="#A0EB93"/>
<path d="M294.66 217.678C299.372 213.171 302.663 207.385 304.128 201.031H305.28C305.28 201.031 302.731 213.494 295.726 219.83L294.66 217.678Z" fill="#A0EB93"/>
<path d="M283.234 215.669C283.234 215.669 291.83 233.575 298.404 236.39V239.083C298.404 239.083 288.288 231.163 282.73 216.201L283.234 215.669Z" fill="#A0EB93"/>
<path d="M293.27 199.505C293.27 199.505 289.318 190.75 278.453 185.494L277.87 186.545C277.87 186.545 286.157 189.274 293.342 205.078L293.27 199.505Z" fill="#A0EB93"/>
<path d="M293.256 189.245C293.256 189.245 296.331 182.981 306.627 176.89L307.138 177.386C307.138 177.386 295.683 185.868 293.335 194.616L293.256 189.245Z" fill="#A0EB93"/>
<g opacity="0.4">
<path d="M297.41 286.805C297.632 260.9 296.152 235.008 292.982 209.297C289.757 184.162 292.853 172.433 292.853 172.433L294.588 172.764C294.588 172.764 291.773 182.189 297.41 220.918C300.416 242.48 302.128 264.203 302.537 285.97L297.41 286.805Z" fill="white"/>
<path d="M294.66 217.678C299.372 213.171 302.663 207.385 304.128 201.031H305.28C305.28 201.031 302.731 213.494 295.726 219.83L294.66 217.678Z" fill="white"/>
<path d="M283.234 215.669C283.234 215.669 291.83 233.575 298.404 236.391V239.083C298.404 239.083 288.288 231.163 282.73 216.202L283.234 215.669Z" fill="white"/>
<path d="M293.27 199.505C293.27 199.505 289.318 190.75 278.453 185.494L277.87 186.545C277.87 186.545 286.157 189.274 293.342 205.078L293.27 199.505Z" fill="white"/>
<path d="M293.256 189.245C293.256 189.245 296.33 182.981 306.626 176.89L307.138 177.386C307.138 177.386 295.682 185.868 293.335 194.616L293.256 189.245Z" fill="white"/>
</g>
<path d="M296.366 164.304C296.366 164.304 299.966 172.714 293.422 175.32C293.422 175.32 288.389 169.718 296.366 164.304Z" fill="#A0EB93"/>
<path opacity="0.1" d="M296.366 164.304C296.366 164.304 299.966 172.714 293.422 175.32C293.422 175.32 288.389 169.718 296.366 164.304Z" fill="white"/>
<path d="M312.977 174.19C312.977 174.19 310.003 181.8 304.207 179.345C304.207 179.345 304.517 172.627 312.977 174.19Z" fill="#A0EB93"/>
<path opacity="0.1" d="M312.977 174.19C312.977 174.19 310.003 181.8 304.207 179.345C304.207 179.345 304.517 172.627 312.977 174.19Z" fill="white"/>
<path d="M273.017 180.446C273.017 180.446 280.469 181.332 279.641 187.049C279.641 187.049 273.6 188.33 273.017 180.446Z" fill="#A0EB93"/>
<path opacity="0.1" d="M273.017 180.446C273.017 180.446 280.469 181.332 279.641 187.049C279.641 187.049 273.6 188.33 273.017 180.446Z" fill="white"/>
<path d="M283.68 211.759C283.68 211.759 288.663 215.928 285.351 219.679C285.336 219.679 280.347 217.742 283.68 211.759Z" fill="#A0EB93"/>
<path opacity="0.1" d="M283.68 211.759C283.68 211.759 288.663 215.928 285.351 219.679C285.336 219.679 280.347 217.742 283.68 211.759Z" fill="white"/>
<path d="M312.005 197.662C312.005 197.662 309.211 204.811 303.761 202.507C303.761 202.507 304.056 196.2 312.005 197.662Z" fill="#A0EB93"/>
<path opacity="0.1" d="M312.005 197.662C312.005 197.662 309.211 204.811 303.761 202.507C303.761 202.507 304.056 196.2 312.005 197.662Z" fill="white"/>
<path d="M303.466 172.015C303.466 172.015 299.679 180.345 293.343 177.257C293.343 177.257 294.099 169.761 303.466 172.015Z" fill="#A0EB93"/>
<path opacity="0.2" d="M303.466 172.015C303.466 172.015 299.679 180.345 293.343 177.257C293.343 177.257 294.099 169.761 303.466 172.015Z" fill="white"/>
<path d="M284.846 169.812C284.846 169.812 293.969 170.532 293.213 177.552C293.213 177.552 285.912 179.395 284.846 169.812Z" fill="#A0EB93"/>
<path opacity="0.2" d="M284.846 169.812C284.846 169.812 293.969 170.532 293.213 177.552C293.213 177.552 285.912 179.395 284.846 169.812Z" fill="white"/>
<path d="M277.682 179.179C277.682 179.179 284.09 183.082 280.958 187.942C280.958 187.92 274.932 186.595 277.682 179.179Z" fill="#A0EB93"/>
<path opacity="0.2" d="M277.682 179.179C277.682 179.179 284.09 183.082 280.958 187.942C280.958 187.92 274.932 186.595 277.682 179.179Z" fill="white"/>
<path d="M290.52 166.889C290.52 166.889 297.684 172.577 293.155 177.984C293.155 177.984 286.071 175.442 290.52 166.889Z" fill="#A0EB93"/>
<path opacity="0.3" d="M290.52 166.889C290.52 166.889 297.684 172.577 293.155 177.984C293.155 177.984 286.071 175.442 290.52 166.889Z" fill="white"/>
<path d="M289.526 213.163C289.526 213.163 289.75 219.643 284.746 219.693C284.746 219.693 282.859 214.689 289.526 213.163Z" fill="#A0EB93"/>
<path opacity="0.2" d="M289.526 213.163C289.526 213.163 289.75 219.643 284.746 219.693C284.746 219.693 282.859 214.689 289.526 213.163Z" fill="white"/>
<path d="M276.991 217.649C276.991 217.649 283.018 215.23 284.76 219.931C284.76 219.931 280.692 223.409 276.991 217.649Z" fill="#A0EB93"/>
<path opacity="0.2" d="M276.991 217.649C276.991 217.649 283.018 215.23 284.76 219.931C284.76 219.931 280.692 223.409 276.991 217.649Z" fill="white"/>
<path d="M279.67 213.998C279.67 213.998 286.027 215.352 284.854 220.219C284.854 220.219 279.547 220.845 279.67 213.998Z" fill="#A0EB93"/>
<path opacity="0.3" d="M279.67 213.998C279.67 213.998 286.027 215.352 284.854 220.219C284.854 220.219 279.547 220.845 279.67 213.998Z" fill="white"/>
<path d="M272.297 187.474C272.297 187.474 278.489 183.24 281.657 188.093C281.628 188.093 277.92 193.032 272.297 187.474Z" fill="#A0EB93"/>
<path opacity="0.3" d="M272.297 187.474C272.297 187.474 278.489 183.24 281.657 188.093C281.628 188.093 277.92 193.032 272.297 187.474Z" fill="white"/>
<path d="M306.641 193.853C306.641 193.853 309.78 200.858 304.315 203.126C304.315 203.126 300.024 198.497 306.641 193.853Z" fill="#A0EB93"/>
<path opacity="0.2" d="M306.641 193.853C306.641 193.853 309.78 200.858 304.315 203.126C304.315 203.126 300.024 198.497 306.641 193.853Z" fill="white"/>
<path d="M299.873 194.904C299.873 194.904 307.023 197.69 304.726 203.141C304.726 203.141 298.419 202.853 299.873 194.904Z" fill="#A0EB93"/>
<path opacity="0.3" d="M299.873 194.904C299.873 194.904 307.023 197.69 304.726 203.141C304.726 203.141 298.419 202.853 299.873 194.904Z" fill="white"/>
<path d="M312.977 180.763C312.977 180.763 306.742 186.048 302.803 181.138C302.803 181.138 306.274 175.37 312.977 180.763Z" fill="#A0EB93"/>
<path opacity="0.2" d="M312.977 180.763C312.977 180.763 306.742 186.048 302.803 181.138C302.803 181.138 306.274 175.37 312.977 180.763Z" fill="white"/>
<path d="M305.734 172.037C305.734 172.037 308.614 179.669 302.702 181.75C302.702 181.75 298.418 176.573 305.734 172.037Z" fill="#A0EB93"/>
<path opacity="0.3" d="M305.734 172.037C305.734 172.037 308.614 179.669 302.702 181.75C302.702 181.75 298.418 176.573 305.734 172.037Z" fill="white"/>
<path d="M275.22 289.354C275.22 289.354 286.164 287.863 292.45 285.286C298.735 282.708 312.026 285.638 316.21 286.985C319.577 287.978 323.001 288.769 326.463 289.354H275.22Z" fill="#A0EB93"/>
<path opacity="0.3" d="M275.22 289.354C275.22 289.354 286.164 287.863 292.45 285.286C298.735 282.708 312.026 285.638 316.21 286.985C319.577 287.978 323.001 288.769 326.463 289.354H275.22Z" fill="white"/>
<path d="M60.0984 286.884C63.8365 261.258 65.8881 235.414 66.24 209.52C66.4488 184.183 71.1 172.987 71.1 172.987L72.7848 173.549C72.7848 173.549 68.7168 182.505 69.048 221.63C69.106 243.403 67.8581 265.16 65.3112 286.783L60.0984 286.884Z" fill="#A0EB93"/>
<path d="M68.0976 189.929C74.3388 188.041 79.8904 184.366 84.0672 179.359L85.0608 179.863C85.0608 179.863 77.1408 189.828 68.0472 192.319L68.0976 189.929Z" fill="#A0EB93"/>
<path d="M51.2064 201.823C51.2064 201.823 65.6064 215.503 66.2472 222.646L68.8032 223.474C68.8032 223.474 64.3896 211.414 51.876 201.514L51.2064 201.823Z" fill="#A0EB93"/>
<path d="M67.8384 199.836C67.8384 199.836 65.1096 190.62 55.0584 183.938L54.3384 184.903C54.3384 184.903 62.172 188.734 67.1544 205.366L67.8384 199.836Z" fill="#A0EB93"/>
<path d="M68.1984 209.059C68.1984 209.059 72.0936 203.299 83.124 198.641L83.556 199.195C83.556 199.195 71.0568 206.042 67.5504 214.394L68.1984 209.059Z" fill="#A0EB93"/>
<path d="M68.4 188.993C68.4 188.993 60.9192 178.639 59.5728 168.113L60.1488 167.875C60.1488 167.875 63.0288 180.202 69.3576 185.198L68.4 188.993Z" fill="#A0EB93"/>
<g opacity="0.4">
<path d="M60.0984 286.884C63.8365 261.258 65.8881 235.415 66.24 209.52C66.4488 184.183 71.1 172.987 71.1 172.987L72.7848 173.549C72.7848 173.549 68.7168 182.506 69.048 221.631C69.106 243.403 67.8581 265.16 65.3112 286.783L60.0984 286.884Z" fill="white"/>
<path d="M68.0976 189.929C74.3388 188.041 79.8904 184.366 84.0672 179.359L85.0608 179.863C85.0608 179.863 77.1408 189.828 68.0472 192.319L68.0976 189.929Z" fill="white"/>
<path d="M51.2064 201.823C51.2064 201.823 65.6064 215.503 66.2472 222.646L68.8032 223.474C68.8032 223.474 64.3896 211.414 51.876 201.514L51.2064 201.823Z" fill="white"/>
<path d="M67.8384 199.836C67.8384 199.836 65.1096 190.62 55.0584 183.938L54.3384 184.903C54.3384 184.903 62.172 188.734 67.1544 205.366L67.8384 199.836Z" fill="white"/>
<path d="M68.1984 209.059C68.1984 209.059 72.0936 203.299 83.124 198.641L83.556 199.195C83.556 199.195 71.0568 206.042 67.5504 214.394L68.1984 209.059Z" fill="white"/>
<path d="M68.4001 188.993C68.4001 188.993 60.9193 178.639 59.5729 168.113L60.1489 167.875C60.1489 167.875 63.0289 180.202 69.3577 185.198L68.4001 188.993Z" fill="white"/>
</g>
<path d="M79.2576 162.648C79.2576 162.648 80.7552 171.677 73.7784 172.642C73.7784 172.642 70.2216 166.003 79.2576 162.648Z" fill="#A0EB93"/>
<path opacity="0.1" d="M79.2576 162.648C79.2576 162.648 80.7552 171.677 73.7784 172.642C73.7784 172.642 70.2216 166.003 79.2576 162.648Z" fill="white"/>
<path d="M89.784 196.819C89.784 196.819 85.8024 203.954 80.424 200.743C80.388 200.743 81.6048 194.126 89.784 196.819Z" fill="#A0EB93"/>
<path opacity="0.1" d="M89.784 196.819C89.784 196.819 85.8024 203.954 80.424 200.743C80.388 200.743 81.6048 194.126 89.784 196.819Z" fill="white"/>
<path d="M50.3496 178.207C50.3496 178.207 57.6216 180.086 56.016 185.645C56.016 185.645 49.86 186.098 50.3496 178.207Z" fill="#A0EB93"/>
<path opacity="0.1" d="M50.3496 178.207C50.3496 178.207 57.6216 180.086 56.016 185.645C56.016 185.645 49.86 186.098 50.3496 178.207Z" fill="white"/>
<path d="M47.3544 201.031C47.3544 201.031 49.7808 207.058 54.3744 205.063C54.3744 205.063 54.072 199.721 47.3544 201.031Z" fill="#A0EB93"/>
<path opacity="0.1" d="M47.3544 201.031C47.3544 201.031 49.7808 207.058 54.3744 205.063C54.3744 205.063 54.072 199.721 47.3544 201.031Z" fill="white"/>
<path d="M92.6136 179.914C92.6136 179.914 86.8968 185.026 83.0736 180.511C83.0736 180.511 86.184 175.018 92.6136 179.914Z" fill="#A0EB93"/>
<path opacity="0.1" d="M92.6136 179.914C92.6136 179.914 86.8968 185.026 83.0736 180.511C83.0736 180.511 86.184 175.018 92.6136 179.914Z" fill="white"/>
<path d="M80.8848 171.425C80.8848 171.425 77.2848 179.82 70.8552 176.846C70.8552 176.846 71.4744 169.344 80.8848 171.425Z" fill="#A0EB93"/>
<path opacity="0.2" d="M80.8848 171.425C80.8848 171.425 77.2848 179.82 70.8552 176.846C70.8552 176.846 71.4744 169.344 80.8848 171.425Z" fill="white"/>
<path d="M67.4785 165.766C67.4785 165.766 74.9881 171 70.8049 176.666C70.8049 176.666 63.5689 174.571 67.4785 165.766Z" fill="#A0EB93"/>
<path opacity="0.2" d="M67.4785 165.766C67.4785 165.766 74.9881 171 70.8049 176.666C70.8049 176.666 63.5689 174.571 67.4785 165.766Z" fill="white"/>
<path d="M55.1448 177.581C55.1448 177.581 60.9696 182.318 57.204 186.703C57.204 186.703 51.4152 184.55 55.1448 177.581Z" fill="#A0EB93"/>
<path opacity="0.2" d="M55.1448 177.581C55.1448 177.581 60.9696 182.318 57.204 186.703C57.204 186.703 51.4152 184.55 55.1448 177.581Z" fill="white"/>
<path d="M72.216 163.361C72.216 163.361 77.3208 170.957 71.3664 174.73C71.3664 174.73 65.3832 170.15 72.216 163.361Z" fill="#A0EB93"/>
<path opacity="0.3" d="M72.216 163.361C72.216 163.361 77.3208 170.957 71.3664 174.73C71.3664 174.73 65.3832 170.15 72.216 163.361Z" fill="white"/>
<path d="M46.8864 207.043C46.8864 207.043 52.992 209.254 54.5688 204.509C54.5688 204.48 50.4 201.168 46.8864 207.043Z" fill="#A0EB93"/>
<path opacity="0.2" d="M46.8864 207.043C46.8864 207.043 52.992 209.254 54.5688 204.509C54.5688 204.48 50.4 201.168 46.8864 207.043Z" fill="white"/>
<path d="M55.0152 196.495C55.0152 196.495 50.8608 201.492 54.792 204.588C54.792 204.588 59.3496 201.794 55.0152 196.495Z" fill="#A0EB93"/>
<path opacity="0.2" d="M55.0152 196.495C55.0152 196.495 50.8608 201.492 54.792 204.588C54.792 204.588 59.3496 201.794 55.0152 196.495Z" fill="white"/>
<path d="M50.7168 197.921C50.7168 197.921 50.04 204.401 55.0368 204.775C55.0296 204.775 57.2616 199.915 50.7168 197.921Z" fill="#A0EB93"/>
<path opacity="0.3" d="M50.7168 197.921C50.7168 197.921 50.04 204.401 55.0368 204.775C55.0296 204.775 57.2616 199.915 50.7168 197.921Z" fill="white"/>
<path d="M48.6864 185.04C48.6864 185.04 55.3968 181.678 57.8448 186.919C57.8448 186.948 53.5032 191.34 48.6864 185.04Z" fill="#A0EB93"/>
<path opacity="0.3" d="M48.6864 185.04C48.6864 185.04 55.3968 181.678 57.8448 186.919C57.8448 186.948 53.5032 191.34 48.6864 185.04Z" fill="white"/>
<path d="M89.5536 174.096C89.5536 174.096 89.1864 181.757 83.2896 181.296C83.2896 181.318 81.5544 175.241 89.5536 174.096Z" fill="#A0EB93"/>
<path opacity="0.2" d="M89.5536 174.096C89.5536 174.096 89.1864 181.757 83.2896 181.296C83.2896 181.318 81.5544 175.241 89.5536 174.096Z" fill="white"/>
<path d="M83.0448 171.972C83.0448 171.972 88.164 177.689 83.6496 181.512C83.6496 181.512 78.156 178.402 83.0448 171.972Z" fill="#A0EB93"/>
<path opacity="0.3" d="M83.0448 171.972C83.0448 171.972 88.164 177.689 83.6496 181.512C83.6496 181.512 78.156 178.402 83.0448 171.972Z" fill="white"/>
<path d="M88.8911 203.335C88.8911 203.335 81.9935 207.72 78.7607 202.32C78.7607 202.32 82.9727 197.086 88.8911 203.335Z" fill="#A0EB93"/>
<path opacity="0.2" d="M88.8911 203.335C88.8911 203.335 81.9935 207.72 78.7607 202.32C78.7607 202.32 82.9727 197.086 88.8911 203.335Z" fill="white"/>
<path d="M82.8936 193.68C82.8936 193.68 84.744 201.643 78.5736 202.896C78.5736 202.918 75.0312 197.208 82.8936 193.68Z" fill="#A0EB93"/>
<path opacity="0.3" d="M82.8936 193.68C82.8936 193.68 84.744 201.643 78.5736 202.896C78.5736 202.918 75.0312 197.208 82.8936 193.68Z" fill="white"/>
<path d="M59.616 161.957C59.616 161.957 64.8 167.04 60.7392 170.935C60.7392 170.935 55.368 168.322 59.616 161.957Z" fill="#A0EB93"/>
<path opacity="0.1" d="M59.616 161.957C59.616 161.957 64.8 167.04 60.7392 170.935C60.7392 170.935 55.368 168.322 59.616 161.957Z" fill="white"/>
<path d="M64.9873 164.275C64.9873 164.275 67.1041 171.223 61.7113 172.706C61.7113 172.706 58.2265 167.846 64.9873 164.275Z" fill="#A0EB93"/>
<path opacity="0.2" d="M64.9873 164.275C64.9873 164.275 67.1041 171.223 61.7113 172.706C61.7113 172.706 58.2265 167.846 64.9873 164.275Z" fill="white"/>
<path d="M55.3104 167.112C55.3104 167.112 62.568 167.422 62.1792 173.002C62.1792 173.002 56.4408 174.679 55.3104 167.112Z" fill="#A0EB93"/>
<path opacity="0.3" d="M55.3104 167.112C55.3104 167.112 62.568 167.422 62.1792 173.002C62.1792 173.002 56.4408 174.679 55.3104 167.112Z" fill="white"/>
<path d="M37.62 289.354C37.62 289.354 48.564 287.863 54.8496 285.286C61.1352 282.708 74.4264 285.638 78.6096 286.985C81.9769 287.978 85.4006 288.769 88.8624 289.354H37.62Z" fill="#A0EB93"/>
<path opacity="0.3" d="M37.62 289.354C37.62 289.354 48.564 287.863 54.8496 285.286C61.1352 282.708 74.4264 285.638 78.6096 286.985C81.9769 287.978 85.4006 288.769 88.8624 289.354H37.62Z" fill="white"/>
<path d="M199.217 223.416C199.217 223.416 196.891 236.189 195.876 240.818C194.861 245.448 175.493 272.88 175.493 272.88C175.493 272.88 171.122 280.022 171.122 282.305C171.122 284.587 178.531 289.397 179.474 288.893C180.418 288.389 182.513 277.56 182.513 277.56L181.57 274.73C181.57 274.73 201.334 249.077 202.939 245.282C204.545 241.488 208.21 225.878 208.21 225.878L199.217 223.416Z" fill="#E4897B"/>
<path d="M196.56 232.697C196.56 232.697 198.72 209.304 200.693 205.121C202.666 200.938 210.233 207.151 211.493 215.201C212.753 223.25 206.935 237.938 206.935 237.938L196.56 232.697Z" fill="#A0EB93"/>
<path opacity="0.4" d="M211.234 223.063C210.514 227.022 209.489 230.92 208.166 234.72C207.49 236.707 206.986 237.967 206.986 237.967L196.56 232.697C196.56 232.697 198.72 209.304 200.693 205.121C202.666 200.938 210.233 207.151 211.493 215.201C211.812 217.819 211.725 220.471 211.234 223.063Z" fill="white"/>
<path d="M195.876 230.767V234L207.41 239.803L209.117 236.217L195.876 230.767Z" fill="#A0EB93"/>
<path opacity="0.6" d="M195.876 230.767V234L207.41 239.803L209.117 236.217L195.876 230.767Z" fill="white"/>
<path opacity="0.2" d="M211.234 223.063C210.514 227.022 209.489 230.92 208.166 234.72C205.38 227.52 206.064 212.206 206.064 212.206L211.234 223.063Z" fill="black"/>
<path d="M255.636 291.276L246.341 292.313L237.766 293.263L238.63 286.013V285.991H238.637L239.256 285.984L245.981 285.919L252.878 285.854L255.636 291.276Z" fill="#E4897B"/>
<path opacity="0.2" d="M246.341 292.313L237.766 293.263L238.63 286.013L238.637 285.991L239.256 285.984L245.988 285.912L245.981 285.919L246.341 292.313Z" fill="black"/>
<path d="M242.46 283.198L241.805 295.495L244.958 295.092L245.03 282.845L242.46 283.198Z" fill="#A0EB93"/>
<path d="M254.707 291.478L250.034 285.646C249.959 285.55 249.918 285.432 249.918 285.311C249.918 285.189 249.959 285.071 250.034 284.976L253.548 280.606C253.7 280.42 253.92 280.302 254.158 280.277C254.397 280.253 254.636 280.324 254.822 280.476C254.873 280.518 254.919 280.567 254.959 280.62C256.442 282.528 257.429 283.997 259.33 286.38C260.496 287.82 264.175 292.14 265.81 294.127C267.444 296.114 265.644 298.001 264.802 297.324C261.036 294.271 257.688 292.385 255.672 292.054C255.289 291.99 254.944 291.785 254.707 291.478Z" fill="#263238"/>
<path opacity="0.2" d="M254.707 291.478L250.034 285.646C249.959 285.55 249.918 285.432 249.918 285.311C249.918 285.189 249.959 285.071 250.034 284.976L253.548 280.606C253.7 280.42 253.92 280.302 254.158 280.277C254.397 280.253 254.636 280.324 254.822 280.476C254.873 280.518 254.919 280.567 254.959 280.62C256.442 282.528 257.429 283.997 259.33 286.38C260.496 287.82 264.175 292.14 265.81 294.127C267.444 296.114 265.644 298.001 264.802 297.324C261.036 294.271 257.688 292.385 255.672 292.054C255.289 291.99 254.944 291.785 254.707 291.478Z" fill="black"/>
<path d="M208.577 194.4C210.982 190.332 216.432 186.962 220.457 187.452C224.482 187.942 244.174 215.669 244.174 215.669L256.81 241.92L214.798 256.018C214.798 256.018 215.59 232.718 209.282 214.106C209.282 214.114 205.337 199.894 208.577 194.4Z" fill="#A0EB93"/>
<path opacity="0.2" d="M208.577 194.4C210.982 190.332 216.432 186.962 220.457 187.452C224.482 187.942 244.174 215.669 244.174 215.669L256.81 241.92L214.798 256.018C214.798 256.018 215.59 232.718 209.282 214.106C209.282 214.114 205.337 199.894 208.577 194.4Z" fill="white"/>
<path d="M244.843 238.032L243.187 260.446C243.187 260.446 241.517 262.066 239.184 264.47C233.179 270.626 222.782 281.945 224.748 284.479C227.484 288.007 236.606 287.165 236.606 287.165L239.724 296.525L240.444 298.642L239.76 298.8C234.924 299.974 229.99 300.697 225.021 300.96C216.086 301.356 206.222 299.765 204.314 291.29C200.671 275.148 217.505 256.27 223.754 248.09C225.295 246.074 224.798 238.01 224.798 238.01L244.843 238.032Z" fill="#263238"/>
<path opacity="0.2" d="M239.76 298.8C234.924 299.974 229.991 300.697 225.022 300.96C220.75 299.012 217.145 295.853 214.654 291.874C207.108 279.338 230.177 256.111 230.177 256.111V250.675L239.04 256.154L239.184 264.47C233.179 270.626 222.782 281.945 224.748 284.479C227.484 288.007 236.606 287.165 236.606 287.165L239.724 296.525L239.76 298.8Z" fill="black"/>
<path d="M256.824 292.385C257.11 292.69 257.285 293.083 257.321 293.501C257.317 293.647 257.277 293.79 257.202 293.916C257.128 294.042 257.022 294.147 256.896 294.221C256.833 294.276 256.755 294.311 256.672 294.323C256.589 294.334 256.504 294.321 256.428 294.286C255.708 293.969 255.434 291.658 255.406 291.406C255.401 291.378 255.405 291.349 255.416 291.324C255.428 291.298 255.447 291.277 255.47 291.261C255.495 291.245 255.524 291.237 255.553 291.237C255.583 291.237 255.611 291.245 255.636 291.261C256.071 291.592 256.47 291.969 256.824 292.385ZM256.399 293.897C256.433 293.954 256.487 293.998 256.55 294.019C256.55 294.019 256.644 294.055 256.745 293.983C256.827 293.933 256.896 293.864 256.945 293.781C256.994 293.698 257.022 293.604 257.026 293.508C256.842 292.773 256.383 292.136 255.744 291.729C255.824 292.487 256.046 293.222 256.399 293.897Z" fill="#A0EB93"/>
<path d="M255.672 291.298L255.715 291.355C255.838 292.075 255.55 293.868 254.995 294.178C254.897 294.228 254.784 294.242 254.677 294.219C254.569 294.195 254.473 294.135 254.405 294.048C254.324 293.972 254.26 293.879 254.219 293.776C254.178 293.672 254.16 293.561 254.167 293.45C254.167 292.529 255.456 291.29 255.521 291.247C255.543 291.237 255.568 291.231 255.593 291.231C255.618 291.231 255.642 291.237 255.665 291.247C255.67 291.263 255.672 291.28 255.672 291.298ZM254.498 293.825L254.542 293.875C254.657 294.026 254.75 293.969 254.786 293.947C255.146 293.76 255.456 292.507 255.434 291.715C254.914 292.185 254.549 292.803 254.39 293.486C254.383 293.609 254.421 293.729 254.498 293.825Z" fill="#A0EB93"/>
<path d="M284.515 295.589L275.22 296.626L266.638 297.576L267.502 290.326L267.509 290.304H267.516H268.128L274.86 290.232L281.758 290.167L284.515 295.589Z" fill="#E4897B"/>
<path d="M283.586 295.79L278.914 289.966C278.836 289.87 278.794 289.75 278.794 289.627C278.794 289.504 278.836 289.385 278.914 289.289L282.427 284.918C282.503 284.826 282.597 284.749 282.702 284.693C282.808 284.637 282.923 284.602 283.043 284.591C283.162 284.579 283.282 284.591 283.396 284.627C283.511 284.662 283.617 284.72 283.709 284.796C283.76 284.836 283.806 284.882 283.846 284.933C285.329 286.848 286.315 288.31 288.209 290.693C289.382 292.133 293.062 296.453 294.689 298.447C296.316 300.442 294.523 302.314 293.681 301.637C289.908 298.584 286.56 296.698 284.551 296.366C284.167 296.308 283.82 296.102 283.586 295.79Z" fill="#263238"/>
<path d="M285.703 296.705C285.989 297.01 286.161 297.404 286.193 297.821C286.191 297.966 286.151 298.109 286.078 298.235C286.005 298.361 285.901 298.467 285.775 298.541C285.71 298.595 285.63 298.63 285.546 298.64C285.462 298.65 285.376 298.636 285.3 298.598C284.58 298.289 284.314 295.977 284.285 295.718C284.278 295.69 284.281 295.661 284.293 295.635C284.304 295.609 284.324 295.588 284.35 295.574C284.374 295.557 284.403 295.548 284.432 295.548C284.462 295.548 284.491 295.557 284.515 295.574C284.953 295.905 285.351 296.284 285.703 296.705ZM285.278 298.217C285.316 298.268 285.365 298.31 285.422 298.339C285.422 298.339 285.523 298.339 285.617 298.303C285.701 298.253 285.772 298.183 285.822 298.098C285.872 298.014 285.901 297.919 285.905 297.821C285.716 297.088 285.259 296.453 284.623 296.042C284.695 296.803 284.918 297.543 285.278 298.217Z" fill="#A0EB93"/>
<path d="M284.544 295.61L284.587 295.668C284.717 296.388 284.429 298.181 283.867 298.49C283.769 298.542 283.656 298.557 283.548 298.534C283.44 298.51 283.344 298.449 283.277 298.361C283.196 298.284 283.132 298.192 283.089 298.089C283.047 297.985 283.028 297.874 283.032 297.763C283.032 296.849 284.328 295.603 284.386 295.567C284.409 295.555 284.435 295.549 284.461 295.549C284.487 295.549 284.513 295.555 284.537 295.567C284.541 295.581 284.544 295.596 284.544 295.61ZM283.37 298.137L283.414 298.195C283.536 298.339 283.63 298.282 283.666 298.267C284.026 298.073 284.335 296.827 284.314 296.035C283.791 296.505 283.424 297.123 283.262 297.806C283.258 297.926 283.297 298.043 283.37 298.137Z" fill="#A0EB93"/>
<path opacity="0.2" d="M275.22 296.626L266.638 297.576L267.502 290.326L267.516 290.304H268.128L274.86 290.225V290.232L275.22 296.626Z" fill="black"/>
<path d="M238.536 236.398C236.606 245.254 217.166 287.064 229.45 298.181C238.464 306.353 272.11 298.649 272.11 298.649L272.635 288.454C272.635 288.454 246.154 289.325 243.374 286.25C240.595 283.176 256.932 260.057 259.214 253.75C263.239 242.554 258.876 235.944 258.876 235.944L238.536 236.398Z" fill="#263238"/>
<path d="M271.332 287.51L270.684 299.808L273.838 299.405L273.91 287.165L271.332 287.51Z" fill="#A0EB93"/>
<path d="M263.218 242.554L224.388 243.31C224.388 243.31 214.884 213.005 201.125 204.466C202.54 202.197 204.26 200.132 206.237 198.331C210.502 194.306 215.658 191.346 221.285 189.691C225.565 188.452 230.014 187.891 234.468 188.028C234.468 188.028 254.592 199.022 263.218 242.554Z" fill="#A0EB93"/>
<path d="M220.457 190.217C216.54 204.53 209.282 196.567 209.282 196.567C209.528 196.113 209.643 195.599 209.614 195.084C209.566 194.52 209.394 193.974 209.109 193.486C208.823 192.998 208.433 192.579 207.965 192.261C207.508 191.909 207.027 191.589 206.525 191.304L207.403 180.05C208.727 182.075 210.197 184 211.802 185.81C214.373 188.64 217.483 190.958 220.457 190.217Z" fill="#E4897B"/>
<path opacity="0.2" d="M209.614 195.12C209.566 194.556 209.394 194.011 209.109 193.522C208.823 193.034 208.433 192.615 207.965 192.298C207.508 191.945 207.027 191.625 206.525 191.34L207.403 180.086C208.727 182.111 210.197 184.037 211.802 185.846C212.026 189.641 211.622 193.406 209.614 195.12Z" fill="black"/>
<path d="M189.209 179.438C189.209 179.438 191.081 186.235 196.51 187.358C201.938 188.482 195.552 174.096 195.552 174.096L189.209 179.438Z" fill="#263238"/>
<path d="M211.32 187.286C211.289 187.615 211.24 187.942 211.176 188.266C210.88 189.922 210.049 191.436 208.809 192.574C207.569 193.712 205.99 194.412 204.314 194.566C202.149 194.805 199.973 194.21 198.23 192.902C197.979 192.725 197.738 192.533 197.51 192.326C197.038 191.884 196.589 191.417 196.164 190.93C192.564 186.775 189.475 179.906 192.708 175.169C193.506 173.991 194.591 173.036 195.861 172.396C197.132 171.755 198.545 171.449 199.966 171.508C201.387 171.566 202.77 171.987 203.984 172.729C205.197 173.472 206.201 174.513 206.899 175.752C209.743 180.605 211.68 183.492 211.32 187.286Z" fill="#E4897B"/>
<path d="M200.16 182.29C200.234 182.357 200.294 182.439 200.334 182.531C200.375 182.623 200.396 182.722 200.396 182.822C200.396 182.923 200.375 183.022 200.334 183.114C200.294 183.206 200.234 183.288 200.16 183.355C199.886 183.542 199.44 183.355 199.174 182.938C198.907 182.52 198.893 182.038 199.174 181.865C199.454 181.692 199.872 181.872 200.16 182.29Z" fill="#263238"/>
<path d="M195.48 185.386C195.619 185.529 195.697 185.722 195.697 185.922C195.697 186.122 195.619 186.315 195.48 186.458C195.214 186.638 194.76 186.458 194.494 186.034C194.227 185.609 194.22 185.141 194.494 184.961C194.767 184.781 195.221 184.997 195.48 185.386Z" fill="#263238"/>
<path d="M197.1 184.608C197.447 186.198 197.573 187.829 197.474 189.454C197.893 189.467 198.31 189.389 198.695 189.225C199.081 189.061 199.426 188.814 199.706 188.503L197.1 184.608Z" fill="#DE5753"/>
<path d="M200.599 179.813C200.558 179.847 200.509 179.871 200.456 179.883C200.403 179.894 200.349 179.892 200.297 179.878C199.956 179.748 199.59 179.7 199.227 179.737C198.865 179.775 198.516 179.897 198.209 180.094C198.147 180.139 198.07 180.159 197.994 180.149C197.917 180.14 197.848 180.102 197.798 180.043C197.752 179.981 197.732 179.903 197.743 179.826C197.754 179.749 197.794 179.68 197.856 179.633C198.237 179.375 198.675 179.212 199.132 179.158C199.59 179.104 200.053 179.161 200.484 179.323C200.558 179.346 200.62 179.398 200.657 179.467C200.693 179.535 200.701 179.616 200.678 179.69C200.66 179.736 200.633 179.777 200.599 179.813Z" fill="#263238"/>
<path d="M192.406 185.112C192.374 185.161 192.325 185.197 192.269 185.213C192.231 185.219 192.193 185.218 192.156 185.209C192.12 185.2 192.085 185.185 192.054 185.163C192.023 185.141 191.997 185.113 191.977 185.08C191.957 185.048 191.944 185.012 191.938 184.975C191.864 184.517 191.902 184.048 192.049 183.608C192.196 183.168 192.446 182.77 192.78 182.448C192.84 182.399 192.916 182.376 192.993 182.382C193.069 182.389 193.14 182.426 193.19 182.484C193.242 182.539 193.27 182.611 193.27 182.686C193.27 182.76 193.242 182.832 193.19 182.887C192.935 183.149 192.745 183.467 192.633 183.816C192.522 184.165 192.493 184.534 192.55 184.896C192.545 184.941 192.53 184.984 192.505 185.022C192.48 185.06 192.446 185.091 192.406 185.112Z" fill="#263238"/>
<path d="M208.123 180C208.685 179.849 211.075 184.061 211.075 184.061C211.075 184.061 212.429 181.786 211.37 177.725C209.282 169.718 207.252 168.876 204.89 168.876C200.57 168.876 198.562 175.025 198.562 175.025C199.822 173.88 201.924 174.305 202.219 176.047C202.637 178.43 205.531 180.778 207.734 181.087C207.749 181.058 207.295 180.194 208.123 180Z" fill="#263238"/>
<path d="M211.889 178.445C211.989 179.198 211.94 179.964 211.744 180.698C211.547 181.432 211.207 182.119 210.744 182.722C209.498 184.327 207.669 183.499 207 181.692C206.424 180.079 206.33 177.264 208.087 176.321C209.844 175.378 211.622 176.58 211.889 178.445Z" fill="#E4897B"/>
<path d="M200.693 173.664C200.693 173.664 198.533 177.458 197.741 177.84C196.949 178.222 197.1 176.443 197.1 176.443C197.1 176.443 194.306 179.928 193.255 179.784C192.204 179.64 192.578 177.552 192.578 177.552C192.578 177.552 189.648 182.542 188.503 182.592C187.358 182.642 187.063 178.675 189.223 175.349C189.223 175.349 187.783 178.006 186.811 177.437C185.839 176.868 188.121 171.36 192.571 169.56C192.571 169.56 191.973 169.56 191.894 168.422C191.815 167.285 197.244 164.909 201.557 166.522C201.557 166.522 200.081 165.002 202.169 164.621C204.257 164.239 206.057 167.184 206.057 167.184C206.057 167.184 205.963 165.744 207.295 166.046C208.627 166.349 211.615 170.366 210.643 175.183L200.693 173.664Z" fill="#263238"/>
<path opacity="0.3" d="M211.32 187.286C211.289 187.615 211.24 187.942 211.176 188.266C210.88 189.922 210.049 191.436 208.809 192.574C207.569 193.712 205.99 194.412 204.314 194.566C202.149 194.805 199.973 194.21 198.23 192.903C197.979 192.726 197.738 192.533 197.51 192.326C197.038 191.884 196.589 191.418 196.164 190.93C198.398 190.63 200.489 189.661 202.162 188.151C204.156 186.408 207.144 183.053 205.164 179.784C204.12 178.071 206.741 180.792 206.741 180.792C206.741 180.792 209.945 183.96 211.32 187.286Z" fill="black"/>
<path d="M201.794 190.195C202.446 189.893 203.015 189.438 203.452 188.869C203.89 188.3 204.183 187.633 204.307 186.926C204.31 186.906 204.309 186.886 204.304 186.867C204.299 186.847 204.29 186.829 204.278 186.813C204.266 186.797 204.251 186.783 204.234 186.773C204.217 186.763 204.197 186.756 204.178 186.753C204.158 186.751 204.137 186.752 204.118 186.757C204.099 186.762 204.08 186.77 204.064 186.782C204.048 186.795 204.035 186.81 204.025 186.827C204.014 186.844 204.008 186.863 204.005 186.883C203.876 187.535 203.597 188.148 203.19 188.673C202.782 189.198 202.257 189.621 201.658 189.907C201.621 189.924 201.593 189.955 201.578 189.992C201.563 190.03 201.563 190.071 201.578 190.109C201.586 190.126 201.597 190.142 201.611 190.156C201.626 190.169 201.642 190.179 201.66 190.186C201.678 190.193 201.698 190.196 201.717 190.195C201.736 190.194 201.755 190.189 201.773 190.181L201.794 190.195Z" fill="#263238"/>
<path d="M223.754 197.424C223.754 197.424 248.954 226.03 252.554 247.219L265.925 244.08C265.925 244.08 253.858 196.992 234.468 188.064H223.754V197.424Z" fill="#A0EB93"/>
<path opacity="0.6" d="M265.925 244.08L252.54 247.234C251.654 241.956 249.43 236.225 246.578 230.594C244.313 226.158 241.796 221.855 239.04 217.706C234.376 210.629 229.268 203.855 223.747 197.424V188.064H234.461C253.858 196.978 265.925 244.08 265.925 244.08Z" fill="white"/>
<path d="M220.457 187.459C220.457 187.459 223.337 190.217 223.754 197.424H229.039C229.039 197.424 228.276 189.41 225.482 187.567C224.431 186.876 220.457 187.459 220.457 187.459Z" fill="#A0EB93"/>
<path opacity="0.4" d="M220.457 187.459C220.457 187.459 223.337 190.217 223.754 197.424H229.039C229.039 197.424 228.276 189.41 225.482 187.567C224.431 186.876 220.457 187.459 220.457 187.459Z" fill="white"/>
<path d="M209.189 204.854C209.189 204.854 217.361 237.658 214.798 256.025C214.798 256.025 212.882 231.674 209.282 222.847C209.282 222.847 202.255 213.005 201.125 204.466L206.64 196.97C206.64 196.97 207.274 201.816 209.189 204.854Z" fill="#A0EB93"/>
<path opacity="0.6" d="M209.189 204.854C209.189 204.854 217.361 237.658 214.798 256.025C214.798 256.025 212.882 231.674 209.282 222.847C209.282 222.847 202.255 213.005 201.125 204.466L206.64 196.97C206.64 196.97 207.274 201.816 209.189 204.854Z" fill="white"/>
<path d="M208.577 194.4C208.577 194.4 206.914 200.002 209.189 204.847L207.439 206.935C206.468 204.822 205.997 202.513 206.064 200.189C206.064 195.84 208.577 194.4 208.577 194.4Z" fill="#A0EB93"/>
<path opacity="0.4" d="M208.577 194.4C208.577 194.4 206.914 200.002 209.189 204.847L207.439 206.935C206.468 204.822 205.997 202.513 206.064 200.189C206.064 195.84 208.577 194.4 208.577 194.4Z" fill="white"/>
<path d="M201.017 269.82C200.61 270.407 200.265 271.034 199.987 271.692L202.5 274.702C197.35 278.242 191.562 280.751 185.458 282.089C186.458 276.25 195.876 267.689 195.876 267.689L197.705 269.575C197.705 269.575 198.05 268.978 198.684 267.998C200.773 264.796 203.186 261.816 205.884 259.106C206.054 258.939 206.26 258.811 206.485 258.732C206.711 258.652 206.951 258.624 207.189 258.648C207.427 258.672 207.656 258.748 207.861 258.871C208.066 258.994 208.242 259.16 208.375 259.358C208.584 259.672 208.678 260.048 208.643 260.423C208.608 260.797 208.444 261.149 208.181 261.418C205.519 263.973 203.119 266.788 201.017 269.82Z" fill="#263238"/>
<path opacity="0.4" d="M202.5 274.702C197.35 278.242 191.562 280.751 185.458 282.089C186.458 276.25 195.876 267.689 195.876 267.689L197.705 269.575C197.705 269.575 198.05 268.978 198.684 267.998C198.88 268.482 199.198 268.906 199.607 269.231C200.016 269.555 200.501 269.768 201.017 269.849C200.61 270.436 200.265 271.063 199.987 271.721L202.5 274.702Z" fill="white"/>
<path opacity="0.2" d="M202.5 274.702C197.35 278.242 191.562 280.751 185.458 282.089C186.458 276.25 195.876 267.689 195.876 267.689L197.705 269.575C197.705 269.575 195.905 271.735 195.545 273.571C197.175 273.377 198.72 272.737 200.009 271.721L202.5 274.702Z" fill="white"/>
<path d="M151.862 299.693H196.56C196.56 299.693 190.994 298.066 189.634 296.489C188.273 294.912 183.434 295.51 182.016 295.495C180.598 295.481 177.739 296.899 176.033 296.042C174.326 295.186 168.48 288.893 164.664 286.913C160.848 284.933 158.825 291.571 156.83 292.882C154.836 294.192 151.862 299.693 151.862 299.693Z" fill="#A0EB93"/>
<path d="M141.775 301.86C141.775 301.86 152.827 296.186 156.175 296.042C159.523 295.898 164.095 298.404 165.226 298.649C166.356 298.893 174.629 298.116 176.335 297.576C178.042 297.036 183.737 298.541 185.45 298.296C187.164 298.051 192.24 294.602 193.968 294.048C195.696 293.493 208.951 300.665 210.528 301.068C212.105 301.471 215.935 301.946 215.935 301.946C215.935 301.946 202.975 302.745 201.125 302.745C199.274 302.745 197.15 304.74 189.662 304.315C182.174 303.89 178.906 304.718 175.349 304.373C171.792 304.027 170.935 303.033 166.946 303.033C162.958 303.033 157.687 304.315 154.98 303.177C152.273 302.04 141.775 301.86 141.775 301.86Z" fill="#A0EB93"/>
<path opacity="0.2" d="M141.775 301.86C141.775 301.86 152.827 296.186 156.175 296.042C159.523 295.898 164.095 298.404 165.226 298.649C166.356 298.893 174.629 298.116 176.335 297.576C178.042 297.036 183.737 298.541 185.45 298.296C187.164 298.051 192.24 294.602 193.968 294.048C195.696 293.493 208.951 300.665 210.528 301.068C212.105 301.471 215.935 301.946 215.935 301.946C215.935 301.946 202.975 302.745 201.125 302.745C199.274 302.745 197.15 304.74 189.662 304.315C182.174 303.89 178.906 304.718 175.349 304.373C171.792 304.027 170.935 303.033 166.946 303.033C162.958 303.033 157.687 304.315 154.98 303.177C152.273 302.04 141.775 301.86 141.775 301.86Z" fill="white"/>
<path d="M174.24 280.181C174.449 280.267 174.6 280.505 174.83 280.548C174.917 280.548 175.017 280.548 175.111 280.548C175.191 280.568 175.266 280.607 175.327 280.662C175.389 280.718 175.436 280.787 175.464 280.865C175.507 281.028 175.507 281.199 175.464 281.362C175.752 281.297 175.975 281.362 176.133 281.11C176.292 280.858 176.321 280.642 176.645 280.598C176.752 280.584 176.861 280.584 176.969 280.598C177.316 280.618 177.643 280.77 177.883 281.023C177.961 281.174 178.056 281.317 178.164 281.448C178.423 281.664 178.819 281.498 179.157 281.542C179.307 281.572 179.449 281.634 179.573 281.723C179.697 281.813 179.801 281.928 179.877 282.06C180.036 282.294 180.144 282.559 180.194 282.838V283.435C180.209 283.68 180.175 283.924 180.093 284.155C180.007 284.357 179.87 284.782 180.237 284.818C180.36 284.818 180.497 284.782 180.576 284.868C180.655 284.954 180.619 285.019 180.648 285.091C180.677 285.163 180.799 285.25 180.871 285.329C180.934 285.393 180.983 285.469 181.015 285.552C181.222 286.078 181.248 286.659 181.087 287.201C180.941 287.549 180.83 287.911 180.756 288.281V289.886C180.702 290.685 180.702 291.486 180.756 292.284C180.792 292.472 180.792 292.665 180.756 292.853C180.739 292.918 180.71 292.979 180.669 293.032C180.628 293.085 180.577 293.13 180.518 293.162C180.425 293.227 180.295 293.162 180.281 293.35C180.281 293.454 180.296 293.558 180.324 293.659C180.36 293.882 180.266 294.214 180.093 293.918C180.036 293.732 180.016 293.536 180.036 293.342C180.036 292.925 180.036 292.507 180.036 292.09C180.036 291.672 179.957 291.319 179.906 290.945C179.898 290.817 179.853 290.694 179.777 290.592C179.453 290.254 179.013 291.017 179.021 291.312C179.049 291.609 179.049 291.908 179.021 292.205C178.799 293.307 178.767 294.44 178.927 295.553C178.927 295.704 178.977 295.884 178.855 295.978C178.794 296.013 178.724 296.031 178.653 296.028C178.588 296.045 178.52 296.046 178.454 296.032C178.387 296.019 178.325 295.99 178.272 295.949C178.21 295.863 178.18 295.759 178.185 295.654C178.23 295.175 178.23 294.693 178.185 294.214C178.177 294.153 178.158 294.094 178.128 294.041C178.092 293.998 178.034 293.969 177.991 293.926C177.937 293.852 177.899 293.768 177.88 293.678C177.862 293.589 177.863 293.496 177.883 293.407C177.898 292.711 177.854 292.015 177.753 291.326C177.748 291.172 177.711 291.02 177.645 290.88C177.615 290.81 177.567 290.749 177.504 290.705C177.442 290.66 177.369 290.634 177.293 290.628C176.94 290.628 177.033 291.024 177.048 291.24C177.066 291.357 177.066 291.476 177.048 291.593C177.033 291.649 177.003 291.7 176.961 291.741C176.919 291.781 176.867 291.81 176.81 291.823C176.773 291.837 176.732 291.837 176.695 291.823C176.667 291.795 176.646 291.761 176.633 291.724C176.621 291.686 176.617 291.646 176.623 291.607V291.348C176.631 291.315 176.631 291.28 176.623 291.247C176.565 291.146 176.407 291.182 176.299 291.139C176.191 291.096 176.097 290.477 176.054 290.304C175.968 289.958 175.91 289.584 175.853 289.253C175.801 288.644 175.682 288.043 175.5 287.46C175.32 287.028 175.226 286.567 175.01 286.157C174.949 286.053 174.901 285.941 174.866 285.826C174.874 285.682 174.874 285.538 174.866 285.394C174.823 285.228 174.701 285.098 174.679 284.94C174.688 284.74 174.755 284.547 174.873 284.386C174.974 284.163 175.006 283.916 174.963 283.676C174.921 283.435 174.807 283.213 174.636 283.039C174.47 282.874 174.254 282.816 174.089 282.65C173.934 282.447 173.755 282.264 173.556 282.103C173.268 281.909 172.836 281.909 172.685 281.585C172.742 281.686 172.886 281.585 172.915 281.47C172.944 281.354 172.987 281.218 173.095 281.225L173.189 281.261C173.323 281.326 173.477 281.339 173.621 281.297C173.555 281.234 173.506 281.155 173.479 281.068C173.453 280.981 173.45 280.889 173.469 280.8C173.51 280.621 173.603 280.458 173.736 280.332C173.793 280.262 173.866 280.206 173.948 280.169C174.031 280.131 174.121 280.113 174.211 280.116L174.24 280.181Z" fill="#A0EB93"/>
<path opacity="0.2" d="M174.24 280.181C174.449 280.267 174.6 280.505 174.83 280.548C174.917 280.548 175.017 280.548 175.111 280.548C175.191 280.568 175.266 280.607 175.327 280.662C175.389 280.718 175.436 280.787 175.464 280.865C175.507 281.028 175.507 281.199 175.464 281.362C175.752 281.297 175.975 281.362 176.133 281.11C176.292 280.858 176.321 280.642 176.645 280.598C176.752 280.584 176.861 280.584 176.969 280.598C177.316 280.618 177.643 280.77 177.883 281.023C177.961 281.174 178.056 281.317 178.164 281.448C178.423 281.664 178.819 281.498 179.157 281.542C179.307 281.572 179.449 281.634 179.573 281.723C179.697 281.813 179.801 281.928 179.877 282.06C180.036 282.294 180.144 282.559 180.194 282.838V283.435C180.209 283.68 180.175 283.924 180.093 284.155C180.007 284.357 179.87 284.782 180.237 284.818C180.36 284.818 180.497 284.782 180.576 284.868C180.655 284.954 180.619 285.019 180.648 285.091C180.677 285.163 180.799 285.25 180.871 285.329C180.934 285.393 180.983 285.469 181.015 285.552C181.222 286.078 181.248 286.659 181.087 287.201C180.941 287.549 180.83 287.911 180.756 288.281V289.886C180.702 290.685 180.702 291.486 180.756 292.284C180.792 292.472 180.792 292.665 180.756 292.853C180.739 292.918 180.71 292.979 180.669 293.032C180.628 293.085 180.577 293.13 180.518 293.162C180.425 293.227 180.295 293.162 180.281 293.35C180.281 293.454 180.296 293.558 180.324 293.659C180.36 293.882 180.266 294.214 180.093 293.918C180.036 293.732 180.016 293.536 180.036 293.342C180.036 292.925 180.036 292.507 180.036 292.09C180.036 291.672 179.957 291.319 179.906 290.945C179.898 290.817 179.853 290.694 179.777 290.592C179.453 290.254 179.013 291.017 179.021 291.312C179.049 291.609 179.049 291.908 179.021 292.205C178.799 293.307 178.767 294.44 178.927 295.553C178.927 295.704 178.977 295.884 178.855 295.978C178.794 296.013 178.724 296.031 178.653 296.028C178.588 296.045 178.52 296.046 178.454 296.032C178.387 296.019 178.325 295.99 178.272 295.949C178.21 295.863 178.18 295.759 178.185 295.654C178.23 295.175 178.23 294.693 178.185 294.214C178.177 294.153 178.158 294.094 178.128 294.041C178.092 293.998 178.034 293.969 177.991 293.926C177.937 293.852 177.899 293.768 177.88 293.678C177.862 293.589 177.863 293.496 177.883 293.407C177.898 292.711 177.854 292.015 177.753 291.326C177.748 291.172 177.711 291.02 177.645 290.88C177.615 290.81 177.567 290.749 177.504 290.705C177.442 290.66 177.369 290.634 177.293 290.628C176.94 290.628 177.033 291.024 177.048 291.24C177.066 291.357 177.066 291.476 177.048 291.593C177.033 291.649 177.003 291.7 176.961 291.741C176.919 291.781 176.867 291.81 176.81 291.823C176.773 291.837 176.732 291.837 176.695 291.823C176.667 291.795 176.646 291.761 176.633 291.724C176.621 291.686 176.617 291.646 176.623 291.607V291.348C176.631 291.315 176.631 291.28 176.623 291.247C176.565 291.146 176.407 291.182 176.299 291.139C176.191 291.096 176.097 290.477 176.054 290.304C175.968 289.958 175.91 289.584 175.853 289.253C175.801 288.644 175.682 288.043 175.5 287.46C175.32 287.028 175.226 286.567 175.01 286.157C174.949 286.053 174.901 285.941 174.866 285.826C174.874 285.682 174.874 285.538 174.866 285.394C174.823 285.228 174.701 285.098 174.679 284.94C174.688 284.74 174.755 284.547 174.873 284.386C174.974 284.163 175.006 283.916 174.963 283.676C174.921 283.435 174.807 283.213 174.636 283.039C174.47 282.874 174.254 282.816 174.089 282.65C173.934 282.447 173.755 282.264 173.556 282.103C173.268 281.909 172.836 281.909 172.685 281.585C172.742 281.686 172.886 281.585 172.915 281.47C172.944 281.354 172.987 281.218 173.095 281.225L173.189 281.261C173.323 281.326 173.477 281.339 173.621 281.297C173.555 281.234 173.506 281.155 173.479 281.068C173.453 280.981 173.45 280.889 173.469 280.8C173.51 280.621 173.603 280.458 173.736 280.332C173.793 280.262 173.866 280.206 173.948 280.169C174.031 280.131 174.121 280.113 174.211 280.116L174.24 280.181Z" fill="white"/>
<path opacity="0.2" d="M246.578 230.58C244.312 226.149 241.795 221.851 239.04 217.706L244.836 202.622C244.836 202.622 248.256 216.958 246.578 230.58Z" fill="black"/>
<path d="M243.418 214.618C243.418 214.618 243.756 229.874 241.805 233.957C239.854 238.039 213.487 259.726 213.487 259.726C213.487 259.726 212.818 264.6 211.723 265.414C210.629 266.227 204.17 267.66 203.501 267.66C202.831 267.66 202.32 258.545 202.939 257.76C203.558 256.975 209.29 255.103 210.24 255.103C210.24 255.103 233.784 231.466 233.784 229.522C233.784 227.578 234.353 212.177 234.353 212.177L243.418 214.618Z" fill="#E4897B"/>
<path d="M233.078 217.728C233.078 217.728 231.293 194.314 232.567 189.85C233.842 185.386 242.316 190.267 244.915 198.014C247.514 205.762 244.195 221.198 244.195 221.198L233.078 217.728Z" fill="#A0EB93"/>
<path opacity="0.4" d="M233.078 217.728C233.078 217.728 231.293 194.314 232.567 189.85C233.842 185.386 242.316 190.267 244.915 198.014C247.514 205.762 244.195 221.198 244.195 221.198L233.078 217.728Z" fill="white"/>
<path d="M232.056 215.949L232.596 219.139L244.937 222.941L246.024 219.117L232.056 215.949Z" fill="#A0EB93"/>
<path opacity="0.6" d="M232.056 215.949L232.596 219.139L244.937 222.941L246.024 219.117L232.056 215.949Z" fill="white"/>
<path d="M152.215 261.101C150.509 261.245 147.535 259.61 146.974 259.222C146.412 258.833 145.692 256.284 145.692 256.284C145.692 256.284 130.572 245.484 128.412 242.352L128.16 241.978C125.114 237.204 121.68 224.388 121.01 221.818C120.938 221.53 120.895 221.371 120.895 221.371C120.895 221.371 121.147 212.335 125.129 212.609C128.902 212.868 130.738 232.301 134.647 238.255C135.9 240.163 149.58 253.613 150.401 254.506C151.222 255.398 157.039 256.111 157.601 256.961C158.162 257.81 153.914 260.964 152.215 261.101Z" fill="#B97964"/>
<path opacity="0.2" d="M128.16 241.978C125.114 237.204 121.68 224.388 121.01 221.818L125.734 213.689C125.734 213.689 130.01 230.717 128.16 241.978Z" fill="black"/>
<path d="M99.36 208.08C98.7696 208.08 98.2008 208.008 97.6248 207.936C91.692 207.18 98.2368 194.515 111.902 185.501C123.35 177.955 133.596 177.135 137.642 180.735C138.424 181.412 138.989 182.303 139.27 183.298C140.969 189.36 117.922 209.067 99.36 208.08Z" fill="#A0EB93"/>
<path opacity="0.2" d="M113.962 190.426C117.598 187.834 123.631 183.449 130.73 184.327C137.83 185.206 127.85 195.804 117.338 201.168C106.826 206.532 103.882 205.92 103.385 204.408C102.55 201.831 108.72 194.191 113.962 190.426Z" fill="black"/>
<path d="M107.856 198C107.856 198 106.294 200.966 107.856 205.438C107.856 205.438 102.47 206.647 101.549 211.918C100.627 217.188 108.634 217.022 111.463 216.101C114.293 215.179 110.743 206.107 110.743 206.107C110.743 206.107 115.596 202.99 116.554 200.088C117.511 197.186 107.856 198 107.856 198Z" fill="#263238"/>
<path d="M117.209 260.107C113.803 267.264 88.1496 269.136 86.1696 264.053C84.1896 258.97 97.7904 240.689 98.3592 232.33C98.928 223.971 122.501 217.735 122.501 217.735C122.501 217.735 126.72 240.127 117.209 260.107Z" fill="#A0EB93"/>
<path opacity="0.4" d="M117.209 260.107C113.803 267.264 88.1496 269.136 86.1696 264.053C84.1896 258.97 97.7904 240.689 98.3592 232.33C98.928 223.971 122.501 217.735 122.501 217.735C122.501 217.735 126.72 240.127 117.209 260.107Z" fill="white"/>
<path d="M88.3224 289.483L99.576 289.346L99.036 295.416L84.8376 293.422L88.3224 289.483Z" fill="#B97964"/>
<path opacity="0.2" d="M88.3224 289.483L99.576 289.346L99.036 295.416L84.8376 293.422L88.3224 289.483Z" fill="black"/>
<path d="M91.08 289.066C91.4616 289.418 86.94 293.983 86.94 293.983C86.94 293.983 81.324 294.322 78.1272 296.618C74.9304 298.915 74.5992 295.79 77.4072 292.558L84.3696 284.573C86.4 282.276 87.12 285.415 91.08 289.066Z" fill="#263238"/>
<path opacity="0.2" d="M91.08 289.066C91.4616 289.418 86.94 293.983 86.94 293.983C86.94 293.983 81.324 294.322 78.1272 296.618C74.9304 298.915 74.5992 295.79 77.4072 292.558L84.3696 284.573C86.4 282.276 87.12 285.415 91.08 289.066Z" fill="black"/>
<path d="M110.693 250.682L111.701 257.162C111.701 257.162 139.781 278.986 141.581 291.175C143.381 303.365 132.091 303.12 96.0912 300.24L94.9536 288.619L108.461 286.754C108.461 286.754 86.1408 277.963 89.4312 262.67C92.4624 248.573 110.693 250.682 110.693 250.682Z" fill="#A0EB93"/>
<path opacity="0.2" d="M110.693 250.682L111.701 257.162C111.701 257.162 139.781 278.986 141.581 291.175C143.381 303.365 132.091 303.12 96.0912 300.24L94.9536 288.619L108.461 286.754C108.461 286.754 86.1408 277.963 89.4312 262.67C92.4624 248.573 110.693 250.682 110.693 250.682Z" fill="black"/>
<path d="M78.9841 293.587L90.2377 293.45L89.6977 299.52L75.4993 297.533L78.9841 293.587Z" fill="#B97964"/>
<path d="M81.7416 293.177C82.1232 293.53 77.6016 298.095 77.6016 298.095C77.6016 298.095 71.9856 298.433 68.7888 300.73C65.592 303.027 65.2608 299.902 68.0688 296.669L75.0384 288.72C77.04 286.387 77.76 289.527 81.7416 293.177Z" fill="#263238"/>
<path d="M110.693 250.683L88.776 247.083C89.4456 247.191 93.708 237.759 94.6728 234.403C96.0192 229.767 97.0632 220.896 96.1128 215.158V215.115C96.0217 214.536 96.051 213.944 96.1988 213.377C96.3467 212.81 96.6099 212.279 96.9721 211.818C97.3343 211.357 97.7877 210.976 98.3038 210.698C98.82 210.421 99.3879 210.252 99.972 210.204C101.722 210.067 103.471 210.003 105.235 209.995C108.716 209.954 112.195 210.159 115.646 210.607C120.082 211.327 125.1 212.652 125.1 212.652C125.1 212.652 125.82 212.947 125.474 217.692C125.186 222.192 123.502 236.808 110.693 250.683Z" fill="#263238"/>
<path d="M118.894 206.186C118.894 206.186 116.071 208.008 115.589 209.218C115.558 209.292 115.534 209.369 115.517 209.448C115.377 210.135 115.281 210.83 115.229 211.529C116.05 213.941 112.961 215.323 112.961 215.323C107.46 213.674 106.171 211.003 106.171 211.003C110.7 209.232 111.564 200.549 111.564 200.549L113.76 202.241L118.894 206.186Z" fill="#B97964"/>
<path opacity="0.2" d="M118.894 206.187C118.894 206.187 116.071 208.008 115.589 209.218C115.558 209.292 115.534 209.37 115.517 209.448C114.322 208.535 113.369 207.342 112.742 205.975C112.114 204.609 111.831 203.109 111.917 201.607L113.753 202.227L118.894 206.187Z" fill="black"/>
<path d="M122.033 185.832C122.033 185.832 127.735 184.234 130.5 188.842C133.265 193.45 131.054 196.942 129.139 198.605" stroke="#263238" stroke-width="0.488465" stroke-linecap="round" stroke-linejoin="round"/>
<path d="M124.308 185.58C124.308 185.58 128.959 185.724 130.241 189.655C131.522 193.587 130.572 198 123.667 202.752C120.29 205.078 111.902 200.535 111.902 200.535L111.233 202.565C110.112 201.753 109.094 200.808 108.202 199.75C105.487 196.567 106.186 186.027 113.717 183.96C121.586 181.807 124.308 185.58 124.308 185.58Z" fill="#263238"/>
<path d="M119.866 186.898C125.784 187.704 127.253 191.124 126.857 197.28C126.36 204.963 123.934 210.147 116.777 207.511C107.028 203.933 110.052 185.559 119.866 186.898Z" fill="#B97964"/>
<path d="M123.077 196.423C123.431 197.371 123.898 198.272 124.466 199.109C124.261 199.331 123.998 199.491 123.707 199.572C123.416 199.654 123.108 199.653 122.818 199.57L123.077 196.423Z" fill="#A24E3F"/>
<path d="M119.52 195.451C119.462 195.934 119.153 196.301 118.8 196.265C118.447 196.229 118.26 195.804 118.31 195.315C118.361 194.825 118.678 194.465 119.03 194.501C119.383 194.537 119.578 194.962 119.52 195.451Z" fill="#263238"/>
<path d="M118.901 194.508L120.002 194.213C120.002 194.213 119.376 195.048 118.901 194.508Z" fill="#263238"/>
<path d="M125.597 196.027C125.539 196.517 125.23 196.884 124.877 196.848C124.524 196.812 124.337 196.387 124.387 195.898C124.438 195.408 124.754 195.041 125.107 195.084C125.46 195.127 125.647 195.545 125.597 196.027Z" fill="#263238"/>
<path d="M124.97 195.12L126.072 194.825C126.072 194.825 125.446 195.624 124.97 195.12Z" fill="#263238"/>
<path d="M120.024 191.362C119.565 191.24 119.084 191.225 118.618 191.319C118.153 191.412 117.715 191.612 117.338 191.902" stroke="#263238" stroke-width="0.707962" stroke-linecap="round" stroke-linejoin="round"/>
<path d="M124.351 191.693C124.769 191.645 125.192 191.693 125.589 191.833C125.985 191.973 126.345 192.2 126.641 192.499" stroke="#263238" stroke-width="0.707962" stroke-linecap="round" stroke-linejoin="round"/>
<path d="M112.046 195.977C112.046 195.977 115.474 191.498 115.567 187.69C115.567 187.69 127.937 184.5 126.893 196.474C126.893 196.474 129.478 186.07 119.347 184.45C109.217 182.83 106.877 196.783 111.528 201.931C111.528 201.931 109.922 198.785 112.046 195.977Z" fill="#263238"/>
<path d="M112.846 197.359C112.881 196.668 112.641 195.99 112.178 195.475C111.716 194.959 111.068 194.648 110.376 194.609C108.518 194.559 107.129 198.209 111.564 199.728C112.205 199.944 112.658 199.354 112.846 197.359Z" fill="#B97964"/>
<path d="M122.501 201.334C122.248 202.038 122.048 202.76 121.903 203.494H121.507C119.722 203.407 118.922 202.774 118.577 202.111C118.415 201.78 118.334 201.415 118.339 201.046C118.338 200.837 118.364 200.628 118.418 200.427C119.499 200.965 120.682 201.266 121.889 201.312C122.263 201.334 122.501 201.334 122.501 201.334Z" fill="#263238"/>
<path d="M121.889 201.298L121.694 201.931C120.017 201.845 118.814 201.564 118.339 201.031C118.338 200.822 118.364 200.614 118.418 200.412C119.499 200.95 120.682 201.252 121.889 201.298Z" fill="white"/>
<path d="M121.507 203.479C119.722 203.393 118.922 202.759 118.577 202.097C119.255 202.14 119.921 202.304 120.542 202.579C120.952 202.768 121.29 203.084 121.507 203.479Z" fill="#DE5753"/>
<path d="M88.776 247.068C78.696 261.382 80.784 276.271 108.295 288.396L86.5944 291.917L87.1632 299.787C87.1632 299.787 108.612 301.947 126.043 301.947C133.618 301.947 137.326 289.037 127.39 277.906C117.454 266.775 104.81 259.2 104.81 259.2C108.331 256.687 110.693 250.661 110.693 250.661L88.776 247.068Z" fill="#A0EB93"/>
<path d="M105.264 209.599C106.889 221.321 105.785 233.259 102.038 244.483C95.8032 262.563 81.7632 279.907 81.7632 279.907C81.7632 279.907 77.6664 259.747 88.1496 246.687C88.1496 246.687 95.7888 232.373 95.2416 216.216C94.9536 207.857 105.264 209.599 105.264 209.599Z" fill="#A0EB93"/>
<path opacity="0.6" d="M102.046 244.483C95.8032 262.562 81.7632 279.914 81.7632 279.914C81.7632 279.914 77.6592 259.754 88.1496 246.686C91.3899 240.128 93.5906 233.106 94.6728 225.871C95.1464 222.676 95.3368 219.445 95.2416 216.216C95.2013 215.373 95.2986 214.529 95.5296 213.718C97.1928 208.231 105.264 209.599 105.264 209.599C106.89 221.32 105.788 233.258 102.046 244.483Z" fill="white"/>
<path d="M117.77 210.831C117.77 210.831 122.688 220.846 121.507 236.866C120.326 252.886 117.187 260.107 117.187 260.107C117.187 260.107 130.226 242.539 125.561 212.767L117.77 210.831Z" fill="#A0EB93"/>
<path opacity="0.6" d="M117.77 210.831C117.77 210.831 122.688 220.846 121.507 236.866C120.326 252.886 117.187 260.107 117.187 260.107C117.187 260.107 130.226 242.539 125.561 212.767L117.77 210.831Z" fill="white"/>
<path d="M120.895 183.298C120.895 183.298 112.579 178.618 108.612 179.374C104.645 180.13 106.171 182.772 106.171 182.772C105.872 182.754 105.572 182.798 105.291 182.902C105.01 183.006 104.753 183.168 104.538 183.377C104.323 183.585 104.153 183.836 104.04 184.114C103.927 184.392 103.873 184.69 103.882 184.99C103.788 187.308 105.991 193.392 105.991 193.392L120.895 183.298Z" fill="#A0EB93"/>
<path opacity="0.2" d="M120.895 183.298C120.895 183.298 112.579 178.618 108.612 179.374C104.645 180.13 106.171 182.772 106.171 182.772C105.872 182.754 105.572 182.798 105.291 182.902C105.01 183.006 104.753 183.168 104.538 183.377C104.323 183.585 104.153 183.836 104.04 184.114C103.927 184.392 103.873 184.69 103.882 184.99C103.788 187.308 105.991 193.392 105.991 193.392L120.895 183.298Z" fill="white"/>
<path d="M137.642 180.72L136.39 183.283C136.39 183.283 125.237 182.664 115.315 189.447C109.319 193.581 104.396 199.088 100.958 205.51L99.36 208.08C98.7696 208.08 98.2008 208.008 97.6248 207.936C91.692 207.18 98.2368 194.515 111.902 185.501C123.35 177.955 133.596 177.12 137.642 180.72Z" fill="#A0EB93"/>
<path d="M144.9 232.611C145.116 232.072 145.191 231.488 145.119 230.912C145.047 230.337 144.831 229.789 144.49 229.32C143.323 227.513 140.17 226.764 140.17 226.764C140.17 226.764 139.882 230.803 141.12 232.294C142.358 233.784 144.9 232.611 144.9 232.611Z" fill="#A0EB93"/>
<path d="M150.307 233.215C150.307 233.215 149.659 229.212 156.182 229.457C156.182 229.457 155.282 234.886 150.307 233.215Z" fill="#A0EB93"/>
<path opacity="0.1" d="M144.9 232.611C145.116 232.072 145.191 231.488 145.119 230.912C145.047 230.337 144.831 229.789 144.49 229.32C143.323 227.513 140.17 226.764 140.17 226.764C140.17 226.764 139.882 230.803 141.12 232.294C142.358 233.784 144.9 232.611 144.9 232.611Z" fill="white"/>
<path opacity="0.1" d="M150.307 233.215C150.307 233.215 149.659 229.212 156.182 229.457C156.182 229.457 155.282 234.886 150.307 233.215Z" fill="white"/>
<path d="M151.783 231.84C151.723 231.767 151.636 231.721 151.542 231.711C151.447 231.702 151.353 231.73 151.279 231.79C150.75 232.217 150.267 232.7 149.839 233.23C149.397 233.746 149.015 234.311 148.702 234.914C148.404 235.49 148.163 236.093 147.982 236.714C147.794 236.297 147.593 235.886 147.377 235.483C146.534 233.833 145.374 232.365 143.964 231.163C143.892 231.108 143.803 231.081 143.712 231.087C143.622 231.094 143.537 231.134 143.474 231.199C143.44 231.232 143.413 231.271 143.394 231.314C143.375 231.357 143.365 231.404 143.365 231.451C143.365 231.498 143.375 231.545 143.394 231.589C143.413 231.632 143.44 231.671 143.474 231.703C144.721 232.905 145.721 234.338 146.419 235.922C147.147 237.491 147.653 239.154 147.924 240.862C148.185 242.557 148.202 244.281 147.974 245.981C147.856 246.819 147.676 247.647 147.434 248.458C147.212 249.24 146.911 249.997 146.534 250.718V250.776C146.531 250.793 146.531 250.81 146.534 250.826C146.421 251.067 146.407 251.343 146.497 251.593C146.587 251.844 146.773 252.048 147.013 252.162C147.254 252.276 147.53 252.289 147.78 252.199C148.031 252.109 148.235 251.924 148.349 251.683C148.756 250.802 149.067 249.88 149.278 248.933C149.49 248.019 149.632 247.09 149.702 246.154C149.841 244.299 149.71 242.434 149.314 240.617C149.166 239.947 148.981 239.286 148.759 238.637C148.776 238.101 148.846 237.568 148.968 237.046C149.105 236.443 149.306 235.857 149.566 235.296C149.82 234.731 150.139 234.197 150.516 233.705C150.891 233.209 151.315 232.753 151.783 232.344C151.849 232.277 151.886 232.186 151.886 232.092C151.886 231.998 151.849 231.907 151.783 231.84Z" fill="#A0EB93"/>
<path opacity="0.3" d="M151.783 231.84C151.723 231.767 151.636 231.721 151.542 231.711C151.447 231.702 151.353 231.73 151.279 231.79C150.75 232.217 150.267 232.7 149.839 233.23C149.397 233.746 149.015 234.311 148.702 234.914C148.404 235.49 148.163 236.093 147.982 236.714C147.794 236.297 147.593 235.886 147.377 235.483C146.534 233.833 145.374 232.365 143.964 231.163C143.892 231.108 143.803 231.081 143.712 231.087C143.622 231.094 143.537 231.134 143.474 231.199C143.44 231.232 143.413 231.271 143.394 231.314C143.375 231.357 143.365 231.404 143.365 231.451C143.365 231.498 143.375 231.545 143.394 231.589C143.413 231.632 143.44 231.671 143.474 231.703C144.721 232.905 145.721 234.338 146.419 235.922C147.147 237.491 147.653 239.154 147.924 240.862C148.185 242.557 148.202 244.281 147.974 245.981C147.856 246.819 147.676 247.647 147.434 248.458C147.212 249.24 146.911 249.997 146.534 250.718V250.776C146.531 250.793 146.531 250.81 146.534 250.826C146.421 251.067 146.407 251.343 146.497 251.593C146.587 251.844 146.773 252.048 147.013 252.162C147.254 252.276 147.53 252.289 147.78 252.199C148.031 252.109 148.235 251.924 148.349 251.683C148.756 250.802 149.067 249.88 149.278 248.933C149.49 248.019 149.632 247.09 149.702 246.154C149.841 244.299 149.71 242.434 149.314 240.617C149.166 239.947 148.981 239.286 148.759 238.637C148.776 238.101 148.846 237.568 148.968 237.046C149.105 236.443 149.306 235.857 149.566 235.296C149.82 234.731 150.139 234.197 150.516 233.705C150.891 233.209 151.315 232.753 151.783 232.344C151.849 232.277 151.886 232.186 151.886 232.092C151.886 231.998 151.849 231.907 151.783 231.84Z" fill="white"/>
<path d="M137.239 257.04C137.726 256.285 138.262 255.563 138.845 254.88C139.966 253.562 141.296 252.438 142.783 251.554L144.086 250.747L144.54 250.466C145.23 250.07 145.884 249.612 146.491 249.098C147.067 248.594 147.65 247.954 148.414 247.954C149.738 247.954 150.372 249.012 151.164 249.934C151.894 250.919 152.773 251.784 153.77 252.497C155.21 253.325 157.666 256.399 157.601 256.961C157.536 257.522 151.2 262.08 145.93 261.108C142.731 260.522 139.738 259.121 137.239 257.04Z" fill="#A0EB93"/>
<path opacity="0.2" d="M100.8 228.24C98.563 228.157 96.4174 227.331 94.7017 225.893C95.1753 222.697 95.3656 219.467 95.2705 216.238C95.2301 215.395 95.3274 214.551 95.5585 213.739C98.1289 217.274 105.84 228.384 100.8 228.24Z" fill="black"/>
<path d="M98.6977 210.838C102.406 210.514 109.958 234.648 112.795 237.291C115.632 239.933 139.63 256.011 139.63 256.011C140.76 255.908 141.898 255.908 143.028 256.011C144.353 256.205 150.401 257.911 150.401 257.911C150.401 257.911 148.133 261.922 145.865 262.75C143.597 263.578 137.52 261.101 136.8 259.02C136.8 259.02 112.99 246.96 107.791 243.54C102.593 240.12 97.0633 223.884 95.6737 219.154C94.2841 214.423 96.4801 211.025 98.6977 210.838Z" fill="#B97964"/>
</svg>
