<svg version="1.1" id="Layer_1" xmlns="http://www.w3.org/2000/svg" xmlns:xlink="http://www.w3.org/1999/xlink" x="0px" y="0px"
	 width="100%" viewBox="0 0 362 245" enable-background="new 0 0 362 245" xml:space="preserve">
<path fill="#FFFFFF" opacity="1.000000" stroke="none" 
	d="
M200.000000,246.000000 
	C133.360580,246.000000 67.221161,246.000000 1.040872,246.000000 
	C1.040872,164.394226 1.040872,82.788437 1.040872,1.091319 
	C121.556030,1.091319 242.112152,1.091319 362.834137,1.091319 
	C362.834137,82.666405 362.834137,164.333160 362.834137,246.000000 
	C308.788544,246.000000 254.644272,246.000000 200.000000,246.000000 
M274.000427,127.399376 
	C273.330505,119.875473 273.510315,112.153214 271.810211,104.869781 
	C268.476044,90.585930 264.836029,75.964218 250.446335,68.153633 
	C245.858612,65.663467 240.469528,63.272232 235.423416,63.222126 
	C195.285980,62.823593 155.140121,63.269939 115.002724,62.868618 
	C98.693283,62.705540 87.672882,70.083847 81.091408,84.162033 
	C73.622528,100.138412 70.551529,116.972641 72.842316,134.793625 
	C74.231583,145.601273 76.040726,156.205338 81.436150,165.684799 
	C86.268799,174.175461 91.824226,182.539825 102.018051,185.390396 
	C107.312057,186.870789 112.915283,187.640488 118.417198,187.892090 
	C127.226555,188.294968 136.072250,187.850586 144.892303,188.111588 
	C146.938583,188.172119 149.338867,189.177322 150.896027,190.530579 
	C156.388992,195.304337 161.659775,200.343338 166.859390,205.440323 
	C168.902878,207.443481 170.336426,207.286835 172.239243,205.316559 
	C176.981934,200.405670 181.710892,195.457031 186.791916,190.910889 
	C188.536942,189.349579 191.294250,188.174637 193.615997,188.126678 
	C206.435791,187.861908 219.265244,187.895172 232.088440,188.057449 
	C236.514359,188.113449 240.731491,187.929108 244.410324,185.161255 
	C249.553986,181.291336 255.728622,178.230865 259.608368,173.350388 
	C269.944122,160.348724 272.823395,144.527298 274.000427,127.399376 
z"/>
<path fill="#FFC90E" opacity="1.000000" stroke="none" 
	d="
M274.000427,127.879883 
	C272.823395,144.527298 269.944122,160.348724 259.608368,173.350388 
	C255.728622,178.230865 249.553986,181.291336 244.410324,185.161255 
	C240.731491,187.929108 236.514359,188.113449 232.088440,188.057449 
	C219.265244,187.895172 206.435791,187.861908 193.615997,188.126678 
	C191.294250,188.174637 188.536942,189.349579 186.791916,190.910889 
	C181.710892,195.457031 176.981934,200.405670 172.239243,205.316559 
	C170.336426,207.286835 168.902878,207.443481 166.859390,205.440323 
	C161.659775,200.343338 156.388992,195.304337 150.896027,190.530579 
	C149.338867,189.177322 146.938583,188.172119 144.892303,188.111588 
	C136.072250,187.850586 127.226555,188.294968 118.417198,187.892090 
	C112.915283,187.640488 107.312057,186.870789 102.018051,185.390396 
	C91.824226,182.539825 86.268799,174.175461 81.436150,165.684799 
	C76.040726,156.205338 74.231583,145.601273 72.842316,134.793625 
	C70.551529,116.972641 73.622528,100.138412 81.091408,84.162033 
	C87.672882,70.083847 98.693283,62.705540 115.002724,62.868618 
	C155.140121,63.269939 195.285980,62.823593 235.423416,63.222126 
	C240.469528,63.272232 245.858612,65.663467 250.446335,68.153633 
	C264.836029,75.964218 268.476044,90.585930 271.810211,104.869781 
	C273.510315,112.153214 273.330505,119.875473 274.000427,127.879883 
z"/>
</svg>