<svg width="30" height="30" viewBox="0 0 30 30" fill="none" xmlns="http://www.w3.org/2000/svg">
<rect width="30" height="29.9887" rx="14.9943" fill="#F2F2F2"/>
<path d="M22 21.4054C22 21.7274 21.7387 21.9887 21.4167 21.9887H9.75C8.78517 21.9887 8 21.2035 8 20.2387V8.57203C8.0035 7.80903 9.16317 7.80961 9.16667 8.57203V20.2387C9.16667 20.5601 9.42858 20.822 9.75 20.822H21.4167C21.7387 20.822 22 21.0834 22 21.4054ZM20.25 10.9054H17.9167C17.1537 10.9089 17.1542 12.0685 17.9167 12.072H19.9951L17.1618 14.8178C16.9419 15.0383 16.5575 15.0383 16.3376 14.8178C16.3137 14.7944 15.6148 14.2969 15.6148 14.2969C14.951 13.6709 13.8199 13.6943 13.187 14.3266L10.5118 16.9014C10.2797 17.1249 10.2727 17.4941 10.4961 17.7263C10.7201 17.9584 11.0887 17.9654 11.3209 17.742L14.0043 15.159C14.2242 14.9385 14.6086 14.9385 14.8285 15.159C14.8524 15.1824 15.5512 15.6799 15.5512 15.6799C16.2157 16.3064 17.3456 16.2843 17.9802 15.6484L20.8328 12.8834V14.9875C20.8363 15.7505 21.9959 15.7499 21.9994 14.9875V12.6542C21.9994 11.6894 21.2142 10.9042 20.2494 10.9042L20.25 10.9054Z" fill="#7E6200"/>
</svg>
