<svg width="36" height="36" viewBox="0 0 36 36" fill="none" xmlns="http://www.w3.org/2000/svg">
<rect width="36" height="36" rx="18" fill="white"/>
<g clip-path="url(#clip0_1144_2907)">
<path d="M18 6C11.383 6 6 11.383 6 18C6 24.617 11.383 30 18 30C24.617 30 30 24.617 30 18C30 11.383 24.617 6 18 6ZM18 28C12.486 28 8 23.514 8 18C8 12.486 12.486 8 18 8C23.514 8 28 12.486 28 18C28 23.514 23.514 28 18 28ZM19.379 12.379L12 19.758V24H16.242L23.621 16.621C24.791 15.451 24.791 13.549 23.621 12.379C22.451 11.209 20.549 11.209 19.379 12.379ZM15.414 22H14V20.586L18.336 16.25L19.75 17.664L15.414 22ZM22.207 15.207L21.164 16.25L19.75 14.836L20.793 13.793C21.184 13.402 21.816 13.402 22.207 13.793C22.598 14.184 22.597 14.817 22.207 15.207Z" fill="#FF5050"/>
</g>
<defs>
<clipPath id="clip0_1144_2907">
<rect width="24" height="24" fill="white" transform="translate(6 6)"/>
</clipPath>
</defs>
</svg>
