<svg width="11" height="16" viewBox="0 0 11 16" fill="none" xmlns="http://www.w3.org/2000/svg">
<path d="M10.25 9.31212C10.25 8.51716 9.82375 7.82031 9.1875 7.4372C9.81812 7.05722 10.2425 6.36787 10.2487 5.57978V5.56228C10.2494 5.55415 10.2487 5.54603 10.2487 5.53853C10.2356 4.65294 9.69937 3.8711 8.875 3.54111L7.125 2.84114V0.874974H7.4375C7.61 0.874974 7.75 0.73498 7.75 0.562487C7.75 0.389994 7.61 0.25 7.4375 0.25H3.0625C2.89 0.25 2.75 0.389994 2.75 0.562487C2.75 0.73498 2.89 0.874974 3.0625 0.874974H3.375V2.84114L1.625 3.54111C0.80125 3.8711 0.265 4.65169 0.25125 5.5379C0.250625 5.54603 0.25 5.55415 0.25 5.5629V5.57353C0.25 5.58165 0.25 5.58978 0.25125 5.5979C0.263125 6.37787 0.68625 7.06034 1.3125 7.43783C0.676875 7.82093 0.25 8.51778 0.25 9.31275C0.25 10.1077 0.67625 10.8046 1.31187 11.1877C0.67625 11.5708 0.25 12.2676 0.25 13.0626C0.25 14.2688 1.23125 15.25 2.4375 15.25H8.0625C9.26875 15.25 10.25 14.2688 10.25 13.0626C10.25 12.2676 9.82375 11.5708 9.18813 11.1877C9.82375 10.8046 10.25 10.1077 10.25 9.31275V9.31212ZM0.875625 5.56728C0.8775 4.92731 1.2625 4.3592 1.85688 4.12171L3.80313 3.343C3.92188 3.2955 3.99937 3.1805 3.99937 3.05301V0.874974H6.49937V3.05238C6.49937 3.1805 6.57687 3.29487 6.69562 3.34237L8.64188 4.12109C9.23625 4.3592 9.62125 4.92668 9.62313 5.56603C9.62187 6.42537 8.92125 7.12471 8.06125 7.12471H2.4375C1.5775 7.12471 0.876875 6.42537 0.875625 5.56728ZM9.625 13.062C9.625 13.9232 8.92437 14.6244 8.0625 14.6244H2.4375C1.57563 14.6244 0.875 13.9232 0.875 13.062C0.875 12.2008 1.57563 11.4995 2.4375 11.4995H8.0625C8.92437 11.4995 9.625 12.2008 9.625 13.062ZM2.4375 10.8746C1.57563 10.8746 0.875 10.1733 0.875 9.31212C0.875 8.45091 1.57563 7.74969 2.4375 7.74969H8.0625C8.92437 7.74969 9.625 8.45091 9.625 9.31212C9.625 10.1733 8.92437 10.8746 8.0625 10.8746H2.4375Z" fill="#5DA251" stroke="#4F9A42" stroke-width="0.5"/>
</svg>
