<svg width="21" height="21" viewBox="0 0 21 21" fill="none" xmlns="http://www.w3.org/2000/svg">
<g clip-path="url(#clip0_1144_2672)">
<path d="M10.5 21C9.57887 21 8.74037 20.4646 7.89049 20.2374C7.01152 20.0026 6.01873 20.0401 5.24895 19.5949C4.46862 19.143 4.00701 18.2602 3.37255 17.6266C2.73809 16.993 1.8549 16.5305 1.40424 15.7506C0.959068 14.9813 0.996587 13.9885 0.761774 13.1095C0.535392 12.2596 0 11.4211 0 10.5C0 9.57887 0.535392 8.74037 0.762617 7.89049C0.99743 7.01152 0.959911 6.01873 1.40509 5.24895C1.85701 4.46862 2.74019 4.00701 3.37255 3.37255C4.0049 2.73809 4.46862 1.8549 5.2481 1.40424C6.01789 0.959068 7.01068 0.996587 7.88965 0.761774C8.74037 0.535392 9.57887 0 10.5 0C11.4211 0 12.2596 0.535392 13.1108 0.762617C13.9897 0.99743 14.9825 0.959911 15.7519 1.40509C16.5314 1.85701 16.993 2.74019 17.6266 3.37255C18.2602 4.0049 19.1443 4.46862 19.5949 5.2481C20.0401 6.01789 20.0026 7.01068 20.2374 7.88965C20.4646 8.73953 21 9.57803 21 10.4992C21 11.4203 20.4646 12.2588 20.2374 13.1087C20.0026 13.9876 20.0401 14.9804 19.5949 15.7498C19.143 16.5305 18.2602 16.9922 17.6266 17.6258C16.993 18.2594 16.5305 19.1434 15.7506 19.5941C14.9813 20.0392 13.9885 20.0017 13.1095 20.2365C12.2596 20.4646 11.4211 21 10.5 21Z" fill="url(#paint0_linear_1144_2672)"/>
<path d="M10.4996 17.6579C14.4528 17.6579 17.6574 14.4532 17.6574 10.5001C17.6574 6.54694 14.4528 3.34229 10.4996 3.34229C6.54646 3.34229 3.3418 6.54694 3.3418 10.5001C3.3418 14.4532 6.54646 17.6579 10.4996 17.6579Z" fill="#0099BC"/>
<path d="M12.7213 9.50342C12.7635 8.78676 11.8554 8.62741 11.3364 8.39133V7.83739C11.4099 7.83739 11.4803 7.80821 11.5323 7.75626C11.5842 7.70432 11.6134 7.63387 11.6134 7.56042C11.6134 7.48696 11.5842 7.41651 11.5323 7.36457C11.4803 7.31263 11.4099 7.28345 11.3364 7.28345H9.67504C9.60158 7.28345 9.53114 7.31263 9.47919 7.36457C9.42725 7.41651 9.39807 7.48696 9.39807 7.56042C9.39807 7.63387 9.42725 7.70432 9.47919 7.75626C9.53114 7.80821 9.60158 7.83739 9.67504 7.83739V8.39133L8.98662 8.6683C8.84297 8.69971 8.70933 8.7662 8.59762 8.86182C8.48591 8.95745 8.39962 9.07924 8.34644 9.21634C8.29325 9.35343 8.27483 9.50155 8.29283 9.6475C8.31082 9.79344 8.36466 9.93266 8.44954 10.0527H11.3364C11.4099 10.0527 11.4803 10.0819 11.5323 10.1339C11.5842 10.1858 11.6134 10.2562 11.6134 10.3297C11.6134 10.4032 11.5842 10.4736 11.5323 10.5255C11.4803 10.5775 11.4099 10.6067 11.3364 10.6067H8.44912C8.34697 10.7734 8.29291 10.9651 8.29291 11.1606C8.29291 11.3561 8.34697 11.5478 8.44912 11.7146H11.3364C11.3737 11.7131 11.4109 11.7192 11.4457 11.7324C11.4806 11.7457 11.5124 11.7658 11.5392 11.7917C11.5661 11.8175 11.5875 11.8485 11.6021 11.8828C11.6167 11.9171 11.6242 11.954 11.6242 11.9913C11.6242 12.0286 11.6167 12.0655 11.6021 12.0998C11.5875 12.1341 11.5661 12.1651 11.5392 12.1909C11.5124 12.2168 11.4806 12.2369 11.4457 12.2502C11.4109 12.2634 11.3737 12.2695 11.3364 12.2681H8.44912C8.35151 12.4356 8.29968 12.6258 8.29883 12.8197C8.29799 13.0136 8.34815 13.2043 8.4443 13.3727C8.54044 13.541 8.67918 13.6812 8.84659 13.779C9.014 13.8768 9.20419 13.9288 9.39807 13.9299H11.6134C11.8376 13.9278 12.0558 13.8578 12.2394 13.7291C12.423 13.6005 12.5633 13.4192 12.6418 13.2093C12.7203 12.9993 12.7334 12.7704 12.6792 12.5529C12.6251 12.3354 12.5063 12.1394 12.3385 11.9907C12.5586 11.7972 12.693 11.5242 12.7119 11.2317C12.7309 10.9392 12.633 10.6512 12.4397 10.4309C12.4081 10.3951 12.3743 10.3613 12.3385 10.3297C12.4572 10.2269 12.5526 10.1001 12.6186 9.95766C12.6846 9.81522 12.7196 9.6604 12.7213 9.50342Z" fill="url(#paint1_linear_1144_2672)"/>
<path d="M12.1745 9.69871C11.8549 9.30517 11.4065 9.03722 10.9085 8.94218C10.4106 8.84714 9.89504 8.93111 9.45298 9.17928C9.01093 9.42745 8.67078 9.82384 8.49262 10.2985C8.31445 10.7731 8.30973 11.2954 8.47929 11.7731C8.64884 12.2509 8.98177 12.6534 9.41927 12.9095C9.85677 13.1656 10.3707 13.2589 10.8703 13.1729C11.3699 13.0868 11.823 12.827 12.1497 12.4393C12.4763 12.0517 12.6555 11.561 12.6555 11.054C12.656 10.5603 12.4861 10.0816 12.1745 9.69871ZM10.5046 9.11441C10.9585 9.11374 11.398 9.273 11.7461 9.56423L9.01522 12.2951C8.77926 12.012 8.62887 11.6675 8.58167 11.302C8.53447 10.9365 8.59241 10.565 8.7487 10.2313C8.905 9.89749 9.15318 9.61516 9.46416 9.41736C9.77515 9.21955 10.1361 9.11447 10.5046 9.11441ZM10.5046 12.9928C10.0025 12.993 9.51999 12.7976 9.1594 12.4482L11.8996 9.70798C11.9375 9.74761 11.9751 9.7885 12.01 9.8315C12.2411 10.1161 12.3869 10.4603 12.4303 10.8243C12.4737 11.1883 12.4131 11.5571 12.2554 11.8881C12.0978 12.219 11.8495 12.4985 11.5395 12.6941C11.2295 12.8897 10.8704 12.9934 10.5038 12.9933L10.5046 12.9928Z" fill="#FF0000"/>
</g>
<defs>
<linearGradient id="paint0_linear_1144_2672" x1="10.5" y1="0" x2="10.5" y2="21" gradientUnits="userSpaceOnUse">
<stop stop-color="#94E2FF"/>
<stop offset="1" stop-color="#009EE9"/>
</linearGradient>
<linearGradient id="paint1_linear_1144_2672" x1="8.2864" y1="10.6067" x2="12.7226" y2="10.6067" gradientUnits="userSpaceOnUse">
<stop stop-color="#94FAFF"/>
<stop offset="1" stop-color="#00D7FF"/>
</linearGradient>
<clipPath id="clip0_1144_2672">
<rect width="21" height="21" fill="white"/>
</clipPath>
</defs>
</svg>
