<svg width="128" height="128" viewBox="0 0 128 128" fill="none" xmlns="http://www.w3.org/2000/svg">
<g filter="url(#filter0_d_1602_3131)">
<path d="M105.943 102H106H105.943ZM105.943 102C102.207 105.705 95.4359 104.782 90.6875 104.782C84.859 104.782 82.0522 105.922 77.8924 110.082C74.3506 113.624 69.6022 120 64 120C58.3978 120 53.6494 113.624 50.1074 110.082C45.9477 105.922 43.141 104.782 37.3124 104.782C32.5641 104.782 25.7931 105.705 22.0569 102C18.2909 98.2657 19.2177 91.4665 19.2177 86.6875C19.2177 80.6485 17.897 77.8716 13.5963 73.5708C7.19884 67.1736 4.00012 63.9744 4 60C4.00006 56.025 7.19872 52.8264 13.5961 46.429C17.4352 42.5899 19.2177 38.7857 19.2177 33.3124C19.2177 28.5639 18.2949 21.7929 22 18.0567C25.7346 14.2907 32.5336 15.2176 37.3125 15.2176C42.7856 15.2176 46.5899 13.4352 50.4289 9.59623C56.8264 3.19872 60.025 0 64 0C67.975 0 71.1736 3.19872 77.5708 9.59623C81.409 13.4344 85.2131 15.2176 90.6875 15.2176C95.4359 15.2176 102.207 14.2948 105.944 18C109.709 21.7346 108.782 28.5336 108.782 33.3124C108.782 39.3515 110.103 42.1282 114.404 46.429C120.801 52.8264 124 56.025 124 60C124 63.9744 120.801 67.1736 114.404 73.5708C110.103 77.8716 108.782 80.6485 108.782 86.6875C108.782 91.4665 109.709 98.2657 105.943 102Z" fill="#4F9A42"/>
</g>
<defs>
<filter id="filter0_d_1602_3131" x="0" y="0" width="128" height="128" filterUnits="userSpaceOnUse" color-interpolation-filters="sRGB">
<feFlood flood-opacity="0" result="BackgroundImageFix"/>
<feColorMatrix in="SourceAlpha" type="matrix" values="0 0 0 0 0 0 0 0 0 0 0 0 0 0 0 0 0 0 127 0" result="hardAlpha"/>
<feOffset dy="4"/>
<feGaussianBlur stdDeviation="2"/>
<feComposite in2="hardAlpha" operator="out"/>
<feColorMatrix type="matrix" values="0 0 0 0 0 0 0 0 0 0 0 0 0 0 0 0 0 0 0.25 0"/>
<feBlend mode="normal" in2="BackgroundImageFix" result="effect1_dropShadow_1602_3131"/>
<feBlend mode="normal" in="SourceGraphic" in2="effect1_dropShadow_1602_3131" result="shape"/>
</filter>
</defs>
</svg>
