<svg width="36" height="36" viewBox="0 0 36 36" fill="none" xmlns="http://www.w3.org/2000/svg">
<rect width="36" height="36" rx="18" fill="white"/>
<g clip-path="url(#clip0_1144_2894)">
<path d="M22.298 14.288L23.702 15.713L17.909 21.42C17.522 21.807 17.013 22 16.502 22C15.991 22 15.477 21.805 15.086 21.415L12.304 18.719L13.697 17.282L16.49 19.989L22.298 14.288ZM30 18C30 24.617 24.617 30 18 30C11.383 30 6 24.617 6 18C6 11.383 11.383 6 18 6C24.617 6 30 11.383 30 18ZM28 18C28 12.486 23.514 8 18 8C12.486 8 8 12.486 8 18C8 23.514 12.486 28 18 28C23.514 28 28 23.514 28 18Z" fill="#4F9A42"/>
</g>
<defs>
<clipPath id="clip0_1144_2894">
<rect width="24" height="24" fill="white" transform="translate(6 6)"/>
</clipPath>
</defs>
</svg>
