<svg width="21" height="21" viewBox="0 0 21 21" fill="none" xmlns="http://www.w3.org/2000/svg">
<path d="M10.5 21C9.57887 21 8.74037 20.4646 7.89049 20.2374C7.01152 20.0026 6.01873 20.0401 5.24895 19.5949C4.46862 19.143 4.00701 18.2602 3.37255 17.6266C2.73809 16.993 1.8549 16.5305 1.40424 15.7506C0.959068 14.9813 0.996587 13.9885 0.761774 13.1095C0.535392 12.2596 0 11.4211 0 10.5C0 9.57887 0.535392 8.74037 0.762617 7.89049C0.99743 7.01152 0.959911 6.01873 1.40509 5.24895C1.85701 4.46862 2.74019 4.00701 3.37255 3.37255C4.0049 2.73809 4.46862 1.8549 5.2481 1.40424C6.01789 0.959068 7.01068 0.996587 7.88965 0.761774C8.74037 0.535392 9.57887 0 10.5 0C11.4211 0 12.2596 0.535392 13.1108 0.762617C13.9897 0.99743 14.9825 0.959911 15.7519 1.40509C16.5314 1.85701 16.993 2.74019 17.6266 3.37255C18.2602 4.0049 19.1443 4.46862 19.5949 5.2481C20.0401 6.01789 20.0026 7.01068 20.2374 7.88965C20.4646 8.73953 21 9.57803 21 10.4992C21 11.4203 20.4646 12.2588 20.2374 13.1087C20.0026 13.9876 20.0401 14.9804 19.5949 15.7498C19.143 16.5305 18.2602 16.9922 17.6266 17.6258C16.993 18.2594 16.5305 19.1434 15.7506 19.5941C14.9813 20.0392 13.9885 20.0017 13.1095 20.2365C12.2596 20.4646 11.4211 21 10.5 21Z" fill="url(#paint0_linear_1144_2717)"/>
<path d="M6.2094 9.23453C6.31311 9.23453 6.38393 9.15865 6.38562 9.03892C6.38562 8.93353 6.38562 8.82814 6.38562 8.72274C6.38562 8.61735 6.38562 8.49973 6.38562 8.38844C6.38697 8.36474 6.38348 8.341 6.37539 8.31868C6.36729 8.29637 6.35474 8.27592 6.33851 8.2586C6.32228 8.24127 6.30269 8.22742 6.28095 8.21788C6.2592 8.20835 6.23575 8.20333 6.21201 8.20313C6.18826 8.20293 6.16473 8.20755 6.14282 8.21672C6.12092 8.22589 6.10111 8.23941 6.08459 8.25646C6.06806 8.27351 6.05517 8.29374 6.0467 8.31592C6.03823 8.3381 6.03435 8.36177 6.0353 8.38549C6.0353 8.60555 6.0353 8.82519 6.0353 9.04524C6.03698 9.15865 6.10907 9.23242 6.2094 9.23453Z" fill="#8A3E00"/>
<path d="M9.73797 9.21728C9.78603 9.23793 9.83662 9.25269 9.88637 9.26997C10.1473 9.35806 10.3906 9.4915 10.6051 9.66414C10.9108 9.90235 11.1175 10.2451 11.1856 10.6266C11.1884 10.6496 11.1958 10.6719 11.2074 10.6921C11.219 10.7122 11.2345 10.7298 11.253 10.7438C11.2716 10.7578 11.2927 10.768 11.3153 10.7736C11.3378 10.7792 11.3612 10.7803 11.3842 10.7767C11.408 10.7726 11.4308 10.7636 11.451 10.7503C11.4712 10.737 11.4885 10.7197 11.5017 10.6994C11.5149 10.6792 11.5238 10.6564 11.5278 10.6326C11.5318 10.6087 11.5309 10.5843 11.525 10.5608C11.4963 10.3842 11.4433 10.2123 11.3673 10.0503C11.1485 9.60638 10.7923 9.30791 10.3598 9.0887C10.2026 9.0055 10.0364 8.94058 9.86445 8.8952C9.83848 8.88677 9.81085 8.88477 9.78394 8.88938C9.75703 8.89399 9.73164 8.90506 9.70995 8.92165C9.68826 8.93823 9.67093 8.95984 9.65943 8.9846C9.64794 9.00937 9.64263 9.03656 9.64397 9.06383C9.64161 9.09602 9.64942 9.12815 9.66628 9.15568C9.68315 9.1832 9.70822 9.20475 9.73797 9.21728Z" fill="#8A3E00"/>
<path d="M10.4996 3.34229C9.08393 3.34229 7.70004 3.76208 6.52294 4.54859C5.34585 5.3351 4.42841 6.453 3.88666 7.76092C3.3449 9.06884 3.20315 10.508 3.47934 11.8965C3.75552 13.285 4.43724 14.5604 5.43827 15.5614C6.43931 16.5625 7.71471 17.2442 9.10319 17.5204C10.4917 17.7965 11.9309 17.6548 13.2388 17.113C14.5467 16.5713 15.6646 15.6539 16.4511 14.4768C17.2376 13.2997 17.6574 11.9158 17.6574 10.5001C17.6574 8.60172 16.9033 6.78111 15.5609 5.43876C14.2186 4.09641 12.398 3.34229 10.4996 3.34229ZM15.3025 11.304C15.3025 11.5363 15.3025 11.7652 15.3025 11.9941C15.3025 12.0287 15.2899 12.0435 15.2549 12.0477C14.9577 12.0831 14.7035 12.2205 14.4607 12.3849C14.2557 12.5263 14.0128 12.6024 13.7638 12.603C13.5148 12.6037 13.2714 12.529 13.0657 12.3887C12.8435 12.2395 12.6138 12.1084 12.3469 12.0578C11.9604 11.981 11.5592 12.0533 11.2239 12.2601C11.0594 12.3579 10.9094 12.4798 10.723 12.5392C10.3344 12.6632 9.97433 12.6197 9.64762 12.3634C9.39965 12.1591 9.09141 12.0419 8.77033 12.03C8.43305 12.0189 8.10282 12.1281 7.83867 12.3381C7.66414 12.4718 7.47907 12.5734 7.25437 12.5965C6.98541 12.624 6.73585 12.5751 6.51705 12.414C6.33957 12.2833 6.16167 12.1556 5.94625 12.0932C5.88108 12.0747 5.81474 12.0606 5.74769 12.051C5.70806 12.0451 5.69626 12.0295 5.69668 11.9916C5.69668 11.7808 5.69668 11.57 5.69668 11.3592C5.69668 11.312 5.70891 11.3066 5.75528 11.3129C5.96817 11.3424 6.15408 11.4393 6.34337 11.5308C6.71607 11.716 7.1443 11.756 7.54483 11.643C7.70307 11.5986 7.85046 11.5222 7.97779 11.4183C8.17044 11.2665 8.37912 11.1569 8.62995 11.1337C8.90045 11.107 9.17077 11.1862 9.38414 11.3546C9.58691 11.5085 9.79812 11.6366 10.0527 11.6788C10.5114 11.7551 10.9237 11.6404 11.2981 11.3736C11.5085 11.2185 11.7618 11.1322 12.0232 11.1265C12.2912 11.1212 12.5536 11.2038 12.7702 11.3618C12.9873 11.5165 13.2196 11.6354 13.4868 11.6775C13.8687 11.7361 14.2593 11.6808 14.6099 11.5186C14.8287 11.4187 15.0517 11.3297 15.3025 11.304ZM8.44235 8.21561C8.44235 8.15111 8.46132 8.1313 8.52667 8.1313C9.12135 8.09631 9.71803 8.11946 10.3082 8.20044C10.9874 8.29824 11.6467 8.46898 12.2538 8.79991C12.7348 9.06212 13.1416 9.41034 13.4341 9.87828C13.6568 10.2247 13.805 10.6136 13.8692 11.0203C13.8823 11.1046 13.8899 11.1919 13.9042 11.2766C13.9143 11.3352 13.892 11.3571 13.8359 11.3538C13.7617 11.3496 13.6875 11.3415 13.6133 11.3428C13.548 11.3428 13.5223 11.3175 13.5092 11.2543C13.4413 10.9298 13.3241 10.6176 13.1618 10.3285C12.8713 9.79711 12.4201 9.37135 11.8727 9.11229C11.8339 9.09381 11.7931 9.07968 11.7512 9.07013C11.7062 9.05742 11.658 9.06272 11.6168 9.0849C11.5755 9.10708 11.5445 9.14442 11.5303 9.18901C11.52 9.23156 11.5257 9.27643 11.5465 9.31497C11.5673 9.35351 11.6017 9.38298 11.6429 9.39769C11.8898 9.49867 12.1164 9.64365 12.3115 9.82558C12.6929 10.1708 12.9697 10.6161 13.1104 11.1109C13.1138 11.1219 13.1138 11.1341 13.1188 11.1683C12.927 11.0363 12.7533 10.9153 12.5501 10.8551C12.0565 10.7079 11.5881 10.7589 11.1543 11.0452C11.0388 11.1228 10.9179 11.1921 10.7926 11.2526C10.7332 11.2808 10.7209 11.2686 10.7184 11.2062C10.7086 10.8724 10.6358 10.5434 10.5038 10.2366C10.4507 10.1152 10.3639 10.0621 10.2682 10.1004C10.1725 10.1388 10.1337 10.24 10.1779 10.3572C10.2897 10.6523 10.3719 10.9558 10.3723 11.2766C10.3723 11.342 10.3487 11.3609 10.2918 11.3542C10.1624 11.346 10.035 11.3176 9.91447 11.2699C9.8912 11.2624 9.87112 11.2474 9.8575 11.2271C9.84388 11.2068 9.83751 11.1825 9.83943 11.1582C9.8361 10.8393 9.78407 10.5229 9.68514 10.2197C9.54433 9.81041 9.3032 9.48791 8.90228 9.30031C8.79325 9.24867 8.6762 9.21602 8.55618 9.20377C8.46849 9.19492 8.43856 9.16541 8.44109 9.07224C8.44868 8.786 8.44573 8.50059 8.44235 8.21561ZM7.0731 7.52171C7.0731 7.34971 7.12327 7.29786 7.29189 7.29702C7.49045 7.29702 7.68901 7.29702 7.88715 7.29702C8.03554 7.29702 8.09793 7.35941 8.09793 7.5078C8.09793 8.27983 8.09793 9.05172 8.09793 9.82347C8.09793 9.96934 8.02711 10.0372 7.87956 10.0381C7.681 10.0381 7.48244 10.0381 7.28388 10.0381C7.13718 10.0381 7.0731 9.97482 7.0731 9.82727C7.0731 9.43943 7.0731 9.05186 7.0731 8.66458C7.0731 8.28433 7.0731 7.90337 7.0731 7.52171ZM5.77509 7.80585C6.06682 7.81007 6.35826 7.81007 6.64942 7.80585C6.71477 7.80585 6.72446 7.82777 6.72362 7.88468C6.72109 8.14479 6.72362 8.40532 6.72362 8.66543C6.72362 8.92553 6.72362 9.18016 6.72362 9.43732C6.72362 9.49929 6.71308 9.52163 6.64479 9.52163C6.35334 9.51742 6.0619 9.51742 5.77045 9.52163C5.70638 9.52163 5.69626 9.50055 5.69626 9.44322C5.69851 8.9261 5.69851 8.40869 5.69626 7.89101C5.69584 7.82819 5.70595 7.80458 5.77509 7.80585ZM15.2574 13.2997C14.9261 13.3524 14.6609 13.5354 14.3869 13.7133C13.9813 13.9768 13.5526 13.9789 13.1331 13.7369C12.9299 13.6201 12.7461 13.47 12.5151 13.4051C12.0092 13.2631 11.5396 13.3322 11.1117 13.6387C10.8508 13.825 10.5675 13.9258 10.245 13.9068C10.0175 13.8938 9.80073 13.8057 9.62865 13.6564C9.12277 13.231 8.33317 13.2289 7.82096 13.6564C7.52924 13.9005 7.19409 13.9616 6.82859 13.8672C6.6973 13.8295 6.57671 13.7615 6.47658 13.6686C6.2679 13.4873 6.03857 13.3465 5.75992 13.3027C5.73125 13.298 5.69584 13.2976 5.69668 13.2441C5.7009 13.0367 5.69668 12.8293 5.69668 12.6117C5.86653 12.6418 6.0253 12.7166 6.15661 12.8284C6.33789 12.9865 6.52717 13.1298 6.76662 13.1859C7.22149 13.2921 7.64095 13.2175 8.00814 12.9207C8.28005 12.7011 8.58231 12.6138 8.92631 12.6737C9.10496 12.7034 9.27197 12.7817 9.40901 12.9001C9.91869 13.3372 10.6265 13.3141 11.1505 12.9958C11.3592 12.8693 11.5577 12.7243 11.8048 12.6792C11.9739 12.6462 12.1481 12.6488 12.3162 12.6868C12.4843 12.7248 12.6427 12.7975 12.7811 12.9001C13.0205 13.0784 13.3031 13.1894 13.5998 13.2217C13.9924 13.2641 14.3857 13.1488 14.6934 12.9013C14.8699 12.758 15.0792 12.6605 15.3025 12.6176C15.3025 12.8335 15.3025 13.0451 15.3025 13.2571C15.3025 13.2938 15.2815 13.2955 15.2574 13.2997Z" fill="#8A3E00"/>
<defs>
<linearGradient id="paint0_linear_1144_2717" x1="10.5" y1="0" x2="10.5" y2="21" gradientUnits="userSpaceOnUse">
<stop stop-color="#FFC4AA"/>
<stop offset="1" stop-color="#BF5000"/>
</linearGradient>
</defs>
</svg>
